<svg xmlns="http://www.w3.org/2000/svg" pointer-events="none" class="leaflet-zoom-animated" width="1466" height="842" viewBox="-122 -70 1466 842" style="transform: translate3d(-122px, -70px, 0px) scale(1);"><g><path class="leaflet-interactive" stroke="black" stroke-opacity="1" stroke-width="1" stroke-linecap="round" stroke-linejoin="round" fill="#fff" fill-opacity="0.2" fill-rule="evenodd" d="M466 351L462 351L452 347L448 352L446 351L443 344L441 344L442 345L439 351L441 351L440 353L433 355L432 364L434 370L434 386L436 386L435 390L437 390L436 395L438 399L436 399L438 399L438 401L434 404L435 405L433 403L426 403L426 407L424 410L419 407L419 409L416 411L404 413L384 408L380 411L367 411L363 414L363 418L358 425L361 427L364 426L369 429L371 427L370 428L372 432L374 432L375 434L373 435L371 446L374 460L377 461L377 463L385 463L387 465L387 461L392 461L391 456L395 456L395 459L397 460L396 461L406 462L406 471L408 471L411 478L410 480L407 480L407 488L410 495L409 507L411 507L411 509L409 508L409 510L408 509L406 513L418 520L417 523L415 523L415 531L413 531L406 539L406 544L408 544L415 538L421 541L423 546L426 547L424 543L426 541L428 543L427 540L432 537L434 533L439 533L445 529L447 532L450 532L451 530L453 533L455 533L453 537L457 539L458 538L460 543L456 549L456 558L452 559L455 562L465 562L468 563L468 565L472 563L473 565L477 564L479 561L481 565L483 565L483 560L488 559L491 564L492 563L494 572L503 577L507 582L509 582L507 593L510 605L529 606L536 606L542 604L558 588L598 564L629 551L646 546L739 547L743 548L746 551L753 563L763 558L757 542L769 532L773 522L771 482L766 462L760 448L754 440L732 413L720 402L705 385L681 348L673 339L626 308L606 303L600 300L594 296L598 296L596 294L590 291L559 266L557 264L557 261L535 250L527 255L528 256L526 256L525 253L525 255L521 253L517 260L516 259L509 262L508 261L503 265L503 263L501 265L499 264L500 263L499 264L497 258L493 263L494 264L490 266L488 266L488 264L484 267L484 269L481 269L477 272L476 276L463 279L463 282L465 284L469 284L470 287L469 286L463 289L468 294L465 296L466 297L462 302L464 304L451 309L454 312L449 312L449 318L452 319L454 321L452 321L453 322L457 322L457 340L461 340L460 338L463 338L468 348L466 350zM765 206L670 181L644 171L640 172L629 167L628 169L620 166L615 163L611 158L610 159L597 152L591 147L579 146L567 140L559 129L561 128L560 125L557 123L550 113L523 96L506 100L483 112L476 118L453 145L463 147L515 206L545 233L554 219L557 217L568 217L609 242L631 253L658 259L675 268L713 284L728 286L734 286L744 283L767 271L771 265L772 258L772 250L770 243zM693 337L696 336L700 338L701 336L700 321L697 310L690 302L680 295L675 294L664 288L623 275L619 271L615 261L599 258L595 260L595 262L608 272L618 283L625 286L681 322L690 336zM862 290L863 291L863 289zM702 317L703 331L709 338L716 343L734 344L749 348L780 348L800 355L809 360L812 357L819 338L816 332L789 331L756 325L718 309L713 309L710 307L700 306L698 308L701 314zM638 279L640 279L641 277L640 274L631 266L623 264L619 265L623 271L634 278zM565 603L566 603zM753 377L754 389L759 401L763 402L772 400L778 389L778 376L767 371L756 371L754 373zM564 599L562 599L565 601L565 599zM731 366L731 373L738 383L742 386L746 385L746 369L734 365zM558 594L559 594z"/></g></svg>