<svg xmlns="http://www.w3.org/2000/svg" pointer-events="none" class="leaflet-zoom-animated" width="1466" height="842" viewBox="411 -961 1466 842" style="transform: translate3d(411px, -961px, 0px);"><g><path class="leaflet-interactive" stroke="black" stroke-opacity="1" stroke-width="1" stroke-linecap="round" stroke-linejoin="round" fill="#fff" fill-opacity="0.2" fill-rule="evenodd" d="M1224 -629L1223 -632L1226 -632L1224 -635L1227 -635L1230 -640L1234 -644L1235 -643L1238 -652L1241 -650L1242 -651L1242 -649L1249 -642L1250 -644L1253 -644L1252 -646L1255 -648L1257 -653L1264 -650L1268 -645L1272 -645L1275 -647L1276 -645L1278 -647L1281 -644L1290 -650L1295 -649L1298 -653L1298 -659L1301 -660L1299 -670L1301 -671L1299 -671L1297 -675L1300 -678L1298 -681L1296 -680L1294 -684L1287 -684L1286 -681L1282 -678L1282 -676L1268 -672L1259 -678L1255 -683L1261 -686L1261 -689L1259 -691L1261 -691L1262 -693L1259 -695L1259 -697L1254 -697L1252 -707L1256 -708L1261 -713L1258 -714L1255 -712L1249 -714L1246 -712L1244 -713L1239 -711L1237 -713L1236 -712L1234 -715L1234 -710L1231 -707L1233 -706L1235 -697L1228 -691L1225 -694L1215 -684L1218 -679L1221 -678L1218 -674L1218 -670L1214 -665L1212 -665L1208 -661L1209 -658L1206 -658L1201 -649L1198 -650L1195 -648L1193 -650L1190 -644L1192 -636L1190 -630L1191 -624L1197 -612L1198 -604L1195 -603L1196 -597L1194 -595L1191 -595L1190 -597L1190 -595L1183 -591L1183 -589L1178 -591L1179 -594L1176 -597L1161 -589L1154 -581L1151 -583L1148 -582L1147 -584L1143 -580L1141 -586L1138 -589L1131 -592L1132 -594L1134 -594L1134 -598L1128 -603L1125 -603L1125 -605L1123 -606L1123 -608L1127 -612L1125 -613L1128 -617L1126 -618L1125 -615L1122 -615L1121 -617L1123 -621L1116 -625L1117 -627L1111 -630L1112 -638L1110 -640L1107 -640L1105 -645L1106 -647L1104 -647L1102 -653L1100 -652L1101 -656L1097 -661L1097 -664L1095 -664L1091 -670L1091 -675L1088 -676L1084 -670L1082 -671L1082 -673L1079 -673L1077 -669L1074 -666L1073 -667L1073 -674L1071 -673L1067 -676L1068 -677L1063 -682L1060 -688L1061 -690L1066 -691L1068 -693L1066 -695L1067 -696L1062 -699L1063 -702L1059 -704L1059 -707L1046 -719L1046 -724L1042 -722L1042 -719L1039 -717L1038 -713L1032 -708L1032 -703L1034 -701L1032 -697L1033 -694L1031 -691L1032 -688L1024 -697L1021 -702L1022 -711L1020 -713L1020 -718L1018 -722L1020 -729L1018 -741L1019 -744L1012 -742L1014 -736L1010 -728L1012 -723L1007 -722L1003 -732L1000 -730L998 -731L997 -729L999 -724L999 -718L995 -716L997 -710L996 -707L997 -705L999 -705L1002 -699L1000 -695L1001 -692L997 -689L995 -690L986 -686L985 -693L981 -701L979 -699L978 -697L980 -693L976 -691L974 -679L975 -677L977 -677L976 -672L978 -671L978 -666L981 -662L982 -657L985 -655L986 -657L988 -657L988 -663L990 -661L993 -662L997 -658L998 -659L1000 -656L999 -651L1002 -646L1001 -633L1003 -632L1003 -630L1001 -629L1003 -623L1001 -621L1003 -619L1002 -614L1004 -610L1002 -598L999 -594L999 -590L1001 -590L1002 -587L998 -583L998 -585L994 -584L996 -577L998 -576L1000 -571L997 -568L992 -570L989 -563L987 -562L987 -559L982 -555L977 -559L977 -556L974 -553L975 -548L966 -539L964 -538L962 -541L956 -532L956 -523L959 -520L954 -520L952 -517L947 -515L947 -500L953 -500L955 -496L953 -492L958 -491L956 -489L956 -483L947 -475L952 -470L971 -482L989 -484L993 -484L995 -482L1008 -485L1009 -483L1001 -476L999 -476L999 -468L1004 -467L1008 -458L1005 -455L1006 -451L1008 -452L1010 -449L1010 -446L1008 -444L1011 -443L1009 -437L1016 -436L1018 -432L1025 -432L1028 -433L1028 -435L1037 -432L1039 -424L1038 -423L1034 -425L1033 -424L1035 -420L1033 -420L1031 -416L1028 -416L1031 -404L1025 -398L1026 -397L1024 -391L1021 -387L1024 -384L1030 -383L1035 -385L1040 -383L1043 -384L1045 -381L1058 -381L1058 -365L1067 -362L1064 -359L1067 -353L1067 -355L1072 -353L1075 -356L1078 -356L1081 -352L1088 -353L1095 -358L1099 -363L1105 -364L1109 -368L1112 -361L1111 -357L1113 -357L1115 -354L1111 -350L1113 -346L1116 -344L1115 -342L1118 -339L1129 -342L1132 -341L1132 -338L1134 -339L1139 -337L1141 -340L1143 -340L1143 -342L1138 -346L1138 -353L1140 -355L1139 -358L1141 -358L1142 -360L1139 -366L1140 -370L1138 -371L1136 -376L1132 -377L1132 -387L1130 -390L1130 -392L1134 -394L1135 -402L1139 -404L1144 -398L1146 -398L1146 -400L1152 -401L1156 -400L1157 -398L1158 -400L1162 -399L1165 -406L1169 -410L1168 -412L1173 -417L1176 -414L1178 -415L1189 -409L1191 -405L1197 -400L1204 -406L1203 -409L1209 -412L1210 -419L1216 -416L1215 -413L1219 -408L1222 -412L1222 -415L1225 -418L1233 -409L1238 -405L1242 -404L1243 -415L1246 -419L1247 -418L1253 -420L1254 -415L1258 -413L1267 -420L1275 -419L1276 -423L1280 -424L1278 -432L1283 -437L1284 -436L1291 -441L1298 -441L1301 -447L1306 -442L1307 -443L1311 -437L1311 -440L1314 -444L1319 -444L1316 -448L1319 -448L1325 -454L1332 -452L1332 -450L1338 -456L1338 -468L1341 -469L1341 -472L1339 -472L1336 -478L1337 -479L1332 -484L1329 -484L1328 -481L1326 -481L1325 -479L1323 -479L1323 -481L1319 -481L1316 -479L1314 -485L1310 -483L1310 -479L1305 -480L1301 -484L1299 -482L1300 -481L1297 -481L1295 -486L1297 -486L1298 -488L1296 -488L1294 -492L1296 -494L1289 -500L1283 -498L1276 -501L1273 -499L1273 -494L1269 -497L1269 -499L1267 -499L1263 -510L1268 -522L1274 -528L1273 -530L1269 -531L1272 -531L1275 -536L1274 -538L1278 -536L1279 -540L1271 -542L1271 -546L1267 -548L1267 -554L1261 -551L1261 -556L1255 -560L1256 -565L1258 -565L1261 -569L1260 -573L1263 -579L1262 -582L1265 -583L1266 -591L1272 -597L1268 -607L1262 -608L1260 -614L1255 -609L1248 -611L1244 -607L1244 -604L1235 -604L1230 -608L1231 -615L1228 -617L1229 -621L1231 -622L1231 -626L1228 -631L1226 -632L1225 -630z"/></g></svg>