<svg xmlns="http://www.w3.org/2000/svg" pointer-events="none" class="leaflet-zoom-animated" width="1466" height="842" viewBox="-1534 -267 1466 842" style="transform: translate3d(-1534px, -267px, 0px);"><g><path class="leaflet-interactive" stroke="black" stroke-opacity="1" stroke-width="1" stroke-linecap="round" stroke-linejoin="round" fill="#fff" fill-opacity="0.2" fill-rule="evenodd" d="M-785 354L-782 352L-775 356L-769 350L-764 349L-762 352L-757 351L-752 347L-750 348L-748 346L-745 346L-746 343L-744 339L-751 328L-746 324L-748 324L-748 320L-750 319L-746 315L-742 316L-742 307L-739 303L-735 302L-736 300L-734 297L-733 298L-728 296L-727 298L-725 306L-727 307L-727 313L-719 314L-716 313L-717 310L-705 303L-703 303L-701 308L-699 308L-699 306L-694 301L-692 301L-692 303L-685 303L-684 301L-683 302L-681 300L-683 295L-680 294L-681 290L-678 287L-669 287L-668 282L-661 282L-655 289L-654 292L-657 293L-653 296L-653 300L-650 298L-649 300L-649 308L-653 308L-651 314L-649 314L-650 317L-648 318L-647 322L-639 322L-637 320L-636 322L-629 323L-624 317L-626 311L-626 302L-624 298L-627 295L-627 293L-622 290L-620 290L-621 292L-618 294L-614 294L-614 298L-611 302L-609 310L-597 296L-591 293L-590 294L-589 292L-587 294L-579 286L-574 285L-572 288L-565 279L-560 280L-560 278L-559 280L-557 280L-554 278L-557 276L-555 275L-548 277L-546 279L-545 277L-543 278L-537 275L-538 273L-536 270L-530 270L-528 268L-526 259L-528 259L-531 256L-533 257L-535 254L-534 252L-532 253L-532 251L-530 252L-532 244L-531 243L-535 238L-533 234L-539 227L-539 223L-542 223L-548 227L-549 230L-558 231L-558 224L-560 224L-562 220L-561 214L-564 210L-562 202L-559 198L-561 197L-561 193L-565 190L-566 184L-569 185L-573 182L-570 181L-570 174L-568 174L-559 181L-557 177L-555 177L-553 181L-552 180L-550 184L-548 184L-548 180L-546 177L-547 172L-541 171L-538 166L-542 160L-542 155L-537 155L-534 152L-528 152L-528 146L-529 145L-529 147L-531 147L-530 144L-532 144L-535 141L-535 143L-533 143L-534 147L-537 146L-538 150L-541 151L-544 148L-544 143L-547 142L-545 139L-551 137L-555 130L-551 123L-538 115L-535 110L-530 107L-513 89L-512 96L-510 101L-508 102L-510 104L-508 103L-506 99L-508 89L-506 87L-500 71L-501 69L-499 67L-496 67L-494 69L-491 65L-491 53L-494 50L-492 51L-491 46L-493 44L-496 44L-497 42L-497 44L-501 44L-503 49L-507 51L-513 30L-519 30L-520 32L-524 26L-524 23L-523 22L-523 24L-521 25L-519 23L-520 20L-516 18L-513 -8L-514 -10L-521 -8L-523 -11L-526 -12L-527 -10L-533 -7L-537 -7L-543 -10L-546 -19L-545 -20L-548 -25L-548 -33L-551 -37L-551 -39L-549 -39L-547 -43L-554 -45L-555 -49L-557 -49L-558 -52L-560 -51L-561 -53L-567 -44L-570 -45L-573 -51L-583 -56L-573 -66L-574 -67L-569 -74L-572 -78L-572 -81L-578 -84L-580 -84L-581 -82L-592 -82L-591 -81L-595 -78L-596 -75L-606 -64L-610 -63L-609 -56L-600 -58L-594 -54L-596 -47L-593 -44L-592 -40L-595 -35L-595 -31L-598 -31L-610 -19L-610 -14L-613 -8L-615 -8L-614 -5L-616 -5L-615 -3L-622 7L-623 14L-627 17L-628 24L-630 24L-624 27L-628 36L-629 35L-631 39L-641 40L-647 44L-647 46L-649 46L-654 52L-659 53L-660 55L-668 51L-677 49L-685 44L-706 90L-705 99L-712 102L-711 110L-703 118L-695 112L-691 113L-681 111L-670 120L-660 107L-650 106L-643 108L-638 115L-630 119L-630 123L-625 125L-626 127L-617 135L-612 145L-612 151L-615 152L-615 154L-618 155L-623 153L-625 155L-637 149L-638 151L-643 152L-649 150L-655 154L-658 154L-660 157L-669 155L-668 157L-670 159L-670 163L-683 162L-684 164L-688 165L-695 175L-695 182L-697 185L-701 185L-708 192L-716 194L-734 194L-736 200L-745 209L-749 210L-755 215L-776 211L-782 205L-795 205L-798 208L-803 223L-806 227L-803 230L-800 237L-793 244L-793 247L-797 249L-802 255L-814 259L-828 277L-854 288L-899 288L-900 290L-911 292L-938 304L-947 309L-951 314L-953 312L-962 311L-962 305L-972 307L-988 305L-1004 296L-1010 297L-1018 294L-1024 286L-1046 280L-1066 281L-1077 284L-1130 277L-1114 311L-1120 317L-1112 328L-1103 334L-1103 344L-1097 341L-1098 339L-1096 338L-1093 343L-1093 340L-1089 338L-1087 341L-1085 340L-1084 336L-1075 336L-1073 333L-1064 334L-1060 340L-1060 343L-1062 345L-1062 353L-1065 355L-1068 361L-1071 361L-1076 365L-1078 364L-1069 365L-1068 368L-1060 371L-1058 373L-1058 376L-1054 379L-1046 379L-1047 389L-1040 392L-1037 390L-1038 392L-1035 395L-1036 397L-1030 399L-1029 401L-1025 401L-1018 394L-1024 388L-1010 383L-1007 386L-998 388L-987 380L-978 377L-972 378L-973 382L-970 386L-971 393L-978 401L-988 408L-985 415L-989 417L-989 420L-988 424L-983 426L-970 437L-955 432L-951 432L-945 428L-938 429L-938 426L-934 426L-934 414L-932 413L-933 406L-929 394L-930 393L-928 392L-926 386L-922 386L-923 383L-917 383L-915 380L-911 380L-911 385L-907 389L-907 393L-913 399L-915 409L-918 411L-907 416L-902 415L-896 420L-896 422L-895 421L-891 424L-884 426L-884 428L-880 431L-866 429L-865 418L-862 422L-859 418L-862 415L-862 412L-859 407L-854 402L-852 402L-852 399L-846 395L-846 391L-841 387L-840 388L-839 385L-841 383L-839 385L-833 383L-835 379L-834 377L-829 382L-825 380L-824 383L-822 383L-818 376L-813 374L-812 375L-814 378L-809 379L-805 376L-804 371L-795 373L-786 355zM-493 44L-491 44L-492 40L-490 38L-491 37L-489 37L-491 35L-484 27L-484 23L-483 24L-484 23L-478 18L-479 12L-472 4L-474 -2L-475 -1L-487 -18L-490 -21L-494 -22L-495 -17L-498 -15L-500 -11L-501 -12L-502 -10L-505 -9L-506 -11L-508 -11L-510 -10L-510 -8L-513 -8L-516 18L-510 19L-509 21L-509 25L-511 25L-512 32L-507 51L-503 49L-501 44L-497 44L-497 42L-494 45z"/></g></svg>