<svg xmlns="http://www.w3.org/2000/svg" pointer-events="none" class="leaflet-zoom-animated" width="1466" height="842" viewBox="-1529 -1000 1466 842" style="transform: translate3d(-1529px, -1000px, 0px);"><g><path class="leaflet-interactive" stroke="black" stroke-opacity="1" stroke-width="1" stroke-linecap="round" stroke-linejoin="round" fill="#fff" fill-opacity="0.2" fill-rule="evenodd" d="M-659 -607L-656 -612L-657 -617L-652 -623L-656 -626L-659 -631L-658 -632L-662 -636L-661 -640L-653 -640L-652 -641L-655 -646L-651 -651L-643 -655L-633 -655L-629 -651L-626 -654L-623 -653L-622 -655L-625 -662L-621 -667L-619 -667L-617 -671L-618 -672L-616 -673L-613 -669L-609 -669L-608 -673L-606 -674L-610 -679L-619 -679L-623 -682L-637 -678L-639 -677L-639 -675L-647 -675L-652 -680L-656 -679L-663 -684L-676 -684L-680 -687L-684 -685L-692 -685L-694 -683L-699 -683L-706 -687L-707 -690L-710 -691L-713 -695L-714 -701L-719 -704L-719 -708L-722 -710L-721 -712L-727 -718L-734 -720L-735 -719L-740 -728L-743 -728L-745 -731L-750 -733L-750 -739L-755 -743L-758 -750L-755 -762L-756 -768L-761 -768L-767 -772L-768 -770L-770 -770L-768 -762L-770 -758L-770 -753L-773 -751L-778 -755L-784 -754L-788 -751L-793 -753L-799 -752L-800 -746L-796 -738L-796 -732L-803 -734L-806 -733L-810 -735L-814 -743L-820 -740L-821 -738L-819 -731L-809 -721L-805 -714L-802 -714L-797 -703L-799 -700L-805 -701L-808 -704L-813 -702L-824 -702L-826 -700L-826 -697L-829 -700L-831 -700L-837 -707L-840 -702L-839 -699L-843 -694L-845 -694L-844 -693L-851 -684L-850 -682L-852 -676L-856 -677L-861 -672L-860 -667L-864 -668L-869 -663L-874 -661L-877 -662L-881 -657L-885 -656L-888 -662L-899 -665L-902 -660L-913 -658L-916 -650L-920 -651L-927 -645L-926 -644L-928 -643L-930 -638L-929 -635L-921 -635L-923 -633L-922 -631L-924 -628L-922 -628L-924 -623L-920 -621L-912 -609L-907 -606L-907 -604L-897 -602L-895 -596L-896 -595L-892 -591L-892 -586L-888 -579L-894 -578L-897 -576L-898 -573L-900 -574L-902 -572L-905 -563L-909 -561L-908 -560L-910 -558L-910 -552L-917 -554L-921 -560L-925 -556L-927 -556L-926 -552L-930 -548L-945 -549L-948 -545L-955 -546L-956 -540L-959 -541L-963 -539L-965 -535L-968 -536L-977 -526L-981 -524L-983 -520L-982 -516L-986 -514L-987 -507L-976 -502L-975 -499L-969 -494L-971 -490L-968 -488L-970 -479L-960 -473L-963 -469L-966 -469L-971 -466L-976 -470L-981 -466L-985 -466L-986 -463L-984 -459L-974 -455L-975 -447L-973 -445L-975 -442L-974 -439L-977 -435L-973 -435L-969 -431L-971 -424L-970 -421L-967 -423L-966 -427L-964 -427L-959 -422L-960 -421L-957 -420L-955 -423L-951 -424L-949 -422L-948 -424L-939 -424L-937 -416L-938 -415L-933 -413L-933 -409L-929 -410L-927 -403L-925 -403L-924 -401L-924 -403L-921 -401L-914 -401L-913 -402L-915 -403L-915 -405L-913 -409L-911 -409L-908 -412L-906 -410L-903 -410L-901 -412L-902 -415L-898 -416L-898 -423L-894 -420L-890 -413L-889 -415L-888 -414L-888 -416L-886 -416L-886 -421L-883 -421L-883 -417L-880 -417L-880 -419L-877 -420L-876 -416L-863 -418L-862 -416L-861 -417L-858 -415L-855 -416L-854 -419L-850 -419L-848 -421L-844 -419L-844 -417L-842 -418L-841 -415L-837 -413L-838 -405L-833 -398L-826 -396L-821 -389L-803 -386L-799 -388L-800 -393L-802 -395L-804 -393L-805 -396L-807 -395L-806 -401L-809 -405L-805 -405L-805 -401L-801 -401L-802 -405L-796 -407L-796 -412L-789 -411L-789 -415L-786 -416L-786 -421L-780 -423L-778 -425L-779 -426L-772 -428L-769 -423L-755 -423L-753 -420L-749 -421L-754 -425L-754 -428L-749 -428L-748 -426L-743 -426L-740 -421L-738 -425L-729 -428L-731 -432L-727 -435L-727 -439L-716 -442L-717 -444L-720 -443L-719 -445L-721 -451L-715 -455L-718 -461L-714 -463L-714 -465L-710 -465L-709 -467L-712 -470L-710 -470L-713 -473L-713 -478L-716 -482L-717 -478L-721 -481L-724 -480L-732 -489L-734 -489L-734 -491L-735 -488L-739 -491L-739 -505L-744 -508L-741 -516L-742 -520L-740 -526L-736 -524L-727 -530L-724 -527L-717 -530L-715 -530L-715 -528L-711 -530L-710 -527L-707 -530L-705 -526L-702 -527L-700 -525L-696 -525L-693 -529L-690 -530L-690 -532L-684 -535L-678 -535L-674 -533L-671 -534L-671 -536L-666 -535L-666 -537L-664 -534L-662 -534L-661 -540L-659 -540L-656 -544L-652 -545L-650 -543L-648 -546L-645 -547L-643 -551L-636 -550L-634 -555L-636 -558L-630 -558L-631 -560L-628 -559L-629 -560L-626 -562L-629 -562L-631 -565L-628 -566L-631 -569L-628 -570L-629 -572L-636 -573L-638 -576L-639 -585L-646 -584L-646 -587L-650 -591L-650 -597L-653 -599L-656 -606L-659 -605z"/></g></svg>