<svg xmlns="http://www.w3.org/2000/svg" pointer-events="none" class="leaflet-zoom-animated" width="1466" height="842" viewBox="426 -1257 1466 842" style="transform: translate3d(426px, -1257px, 0px);"><g><path class="leaflet-interactive" stroke="black" stroke-opacity="1" stroke-width="1" stroke-linecap="round" stroke-linejoin="round" fill="#fff" fill-opacity="0.2" fill-rule="evenodd" d="M1017 -689L1024 -686L1029 -681L1035 -669L1037 -661L1036 -649L1037 -644L1041 -638L1048 -638L1054 -634L1056 -636L1056 -644L1059 -649L1060 -675L1066 -698L1071 -710L1075 -711L1087 -721L1089 -728L1100 -745L1101 -752L1105 -754L1107 -758L1105 -764L1111 -776L1124 -835L1128 -844L1126 -853L1141 -877L1143 -886L1147 -891L1149 -905L1146 -910L1144 -919L1145 -927L1160 -944L1154 -947L1151 -957L1144 -957L1139 -960L1136 -960L1132 -963L1131 -966L1127 -968L1124 -973L1116 -974L1108 -971L1102 -959L1087 -956L1080 -951L1077 -951L1070 -947L1069 -943L1059 -929L1058 -920L1052 -912L1039 -903L1035 -892L1030 -887L1024 -874L1019 -868L1018 -862L1012 -855L1005 -842L999 -827L993 -824L986 -814L985 -802L988 -794L986 -778L978 -751L979 -749L989 -744L990 -734L995 -717L1004 -698zM1390 -1035L1394 -1036L1393 -1038L1390 -1037zM1290 -1017L1293 -1015L1296 -1016L1297 -1019L1294 -1021L1290 -1019zM944 -799L949 -799L947 -804L941 -804L940 -801L937 -802L938 -794L941 -794zM1310 -1036L1314 -1036L1311 -1038zM932 -806L932 -801L929 -799L933 -800L933 -806zM931 -782L931 -779L933 -779zM936 -810L941 -805L942 -810L939 -811zM1110 -712L1111 -709L1114 -708L1115 -712zM1114 -654L1114 -650L1122 -645L1123 -648L1120 -649L1120 -654zM1168 -994L1167 -991L1170 -991zM924 -766L924 -763L927 -766zM1009 -678L1013 -679L1012 -681z"/></g></svg>