<svg xmlns="http://www.w3.org/2000/svg" pointer-events="none" class="leaflet-zoom-animated" width="1466" height="842" viewBox="-1532 -474 1466 842" style="transform: translate3d(-1532px, -474px, 0px);"><g><path class="leaflet-interactive" stroke="black" stroke-opacity="1" stroke-width="1" stroke-linecap="round" stroke-linejoin="round" fill="#fff" fill-opacity="0.2" fill-rule="evenodd" d="M-655 150L-653 148L-619 148L-616 151L-609 151L-605 147L-597 149L-594 145L-591 147L-583 147L-578 150L-574 147L-573 139L-569 140L-569 138L-568 139L-565 134L-563 134L-563 131L-562 134L-558 132L-558 130L-556 131L-555 128L-550 125L-552 124L-551 122L-554 121L-553 119L-550 118L-549 116L-551 116L-548 113L-552 112L-547 112L-546 110L-549 107L-548 104L-541 104L-542 99L-540 99L-539 101L-538 95L-535 99L-534 96L-529 97L-520 107L-520 105L-518 104L-519 103L-515 101L-514 97L-516 97L-516 95L-514 94L-511 97L-511 99L-506 99L-502 93L-503 80L-499 76L-501 75L-501 72L-500 70L-499 72L-498 71L-498 67L-501 62L-496 53L-497 51L-496 46L-494 45L-493 38L-491 38L-492 32L-487 31L-489 30L-489 28L-485 26L-483 26L-483 29L-481 31L-479 30L-477 32L-469 29L-466 31L-468 33L-467 36L-470 36L-467 40L-464 38L-460 40L-456 39L-454 41L-457 50L-457 60L-455 64L-453 64L-449 71L-444 76L-438 76L-441 80L-439 83L-436 82L-437 77L-435 74L-432 74L-431 83L-428 87L-428 90L-426 91L-427 96L-426 98L-421 99L-425 94L-424 91L-428 89L-426 82L-424 82L-421 78L-422 73L-424 72L-425 68L-431 64L-436 66L-443 61L-440 61L-440 58L-429 53L-428 50L-424 50L-418 46L-414 47L-413 49L-412 47L-409 48L-407 45L-408 44L-404 42L-402 42L-398 46L-394 43L-390 45L-384 45L-386 41L-385 36L-382 38L-378 38L-375 35L-374 32L-378 31L-377 30L-379 25L-377 19L-372 19L-373 16L-368 9L-370 -1L-365 -5L-363 -20L-359 -22L-361 -27L-359 -30L-359 -35L-361 -34L-361 -31L-367 -32L-367 -30L-374 -26L-377 -27L-386 -36L-388 -36L-393 -32L-396 -27L-401 -27L-404 -34L-410 -40L-417 -44L-418 -43L-418 -45L-420 -46L-422 -45L-422 -51L-425 -49L-427 -51L-429 -50L-433 -52L-435 -55L-438 -53L-442 -54L-443 -60L-441 -67L-445 -70L-444 -71L-446 -77L-444 -81L-446 -84L-445 -88L-448 -91L-446 -97L-446 -102L-448 -104L-451 -101L-451 -98L-454 -96L-455 -92L-457 -90L-460 -91L-464 -89L-465 -84L-469 -82L-469 -79L-472 -77L-476 -80L-477 -79L-478 -81L-477 -93L-479 -93L-479 -97L-481 -100L-487 -101L-488 -99L-493 -98L-497 -93L-499 -93L-499 -85L-502 -85L-504 -82L-525 -83L-528 -82L-527 -81L-538 -72L-541 -74L-543 -72L-547 -75L-551 -71L-551 -66L-549 -62L-551 -59L-549 -47L-551 -44L-557 -44L-569 -38L-575 -42L-581 -40L-585 -46L-586 -52L-591 -63L-595 -65L-594 -67L-591 -67L-596 -75L-592 -80L-595 -85L-598 -86L-599 -84L-603 -84L-604 -89L-602 -90L-608 -97L-610 -107L-619 -120L-620 -127L-618 -128L-620 -131L-618 -137L-621 -141L-618 -142L-617 -146L-620 -150L-619 -153L-622 -158L-626 -160L-627 -163L-630 -163L-636 -156L-642 -153L-646 -142L-650 -142L-654 -145L-657 -142L-653 -135L-655 -131L-652 -127L-653 -121L-655 -121L-656 -119L-652 -115L-656 -111L-659 -112L-660 -110L-669 -107L-673 -106L-679 -109L-680 -107L-685 -110L-687 -119L-686 -123L-687 -124L-690 -119L-697 -124L-698 -126L-695 -133L-703 -142L-706 -148L-708 -148L-706 -152L-709 -156L-710 -164L-703 -164L-700 -168L-702 -171L-708 -175L-715 -177L-716 -179L-727 -179L-728 -176L-733 -177L-731 -180L-736 -180L-740 -175L-744 -176L-744 -173L-747 -170L-750 -174L-748 -176L-748 -189L-752 -195L-754 -203L-750 -213L-745 -215L-744 -220L-749 -225L-748 -226L-755 -235L-755 -243L-771 -243L-774 -248L-781 -250L-785 -255L-791 -258L-793 -256L-796 -258L-797 -256L-798 -257L-802 -254L-804 -256L-812 -249L-816 -248L-816 -250L-820 -244L-826 -245L-828 -243L-831 -245L-835 -244L-835 -246L-837 -247L-844 -247L-844 -251L-851 -251L-853 -254L-859 -256L-860 -260L-863 -262L-862 -263L-866 -263L-868 -269L-871 -271L-869 -276L-871 -284L-869 -285L-871 -286L-869 -287L-872 -292L-874 -291L-876 -293L-889 -286L-892 -289L-896 -288L-895 -286L-898 -279L-901 -277L-903 -277L-905 -280L-907 -277L-909 -279L-914 -279L-917 -277L-920 -279L-928 -275L-926 -279L-930 -281L-931 -289L-936 -289L-940 -291L-941 -295L-945 -290L-944 -285L-946 -282L-949 -284L-952 -282L-955 -286L-959 -283L-964 -284L-965 -282L-972 -284L-972 -281L-975 -279L-979 -280L-982 -285L-988 -282L-993 -290L-993 -296L-998 -295L-1001 -297L-1000 -301L-1005 -303L-1005 -308L-1008 -305L-1012 -306L-1012 -311L-1014 -312L-1013 -314L-1016 -317L-1016 -319L-1020 -323L-1023 -322L-1025 -325L-1019 -330L-1022 -333L-1021 -335L-1019 -334L-1019 -338L-1020 -341L-1028 -346L-1028 -352L-1023 -354L-1026 -356L-1026 -358L-1023 -358L-1022 -362L-1025 -364L-1024 -367L-1026 -368L-1024 -371L-1026 -375L-1024 -376L-1027 -377L-1027 -380L-1029 -381L-1029 -383L-1027 -384L-1030 -389L-1028 -392L-1029 -393L-1031 -393L-1033 -389L-1035 -390L-1034 -394L-1039 -395L-1044 -391L-1050 -389L-1059 -389L-1062 -386L-1067 -386L-1071 -389L-1075 -386L-1080 -388L-1081 -385L-1084 -385L-1087 -389L-1089 -388L-1096 -391L-1105 -383L-1105 -378L-1107 -378L-1106 -372L-1110 -372L-1112 -369L-1120 -367L-1135 -365L-1132 -342L-1134 -337L-1137 -337L-1139 -334L-1135 -326L-1139 -321L-1138 -319L-1140 -317L-1146 -316L-1149 -325L-1152 -326L-1157 -332L-1160 -327L-1161 -328L-1162 -337L-1167 -345L-1173 -345L-1174 -337L-1177 -337L-1178 -333L-1180 -333L-1180 -331L-1183 -329L-1185 -333L-1187 -333L-1190 -337L-1197 -339L-1204 -350L-1207 -351L-1207 -353L-1208 -352L-1214 -354L-1214 -356L-1220 -356L-1222 -359L-1229 -355L-1224 -349L-1224 -339L-1227 -337L-1229 -333L-1228 -332L-1231 -328L-1236 -324L-1239 -325L-1240 -323L-1233 -316L-1224 -314L-1224 -317L-1221 -319L-1216 -319L-1210 -315L-1207 -306L-1210 -299L-1208 -297L-1207 -291L-1193 -283L-1191 -278L-1194 -274L-1194 -264L-1186 -261L-1185 -257L-1186 -252L-1190 -249L-1194 -249L-1197 -244L-1196 -234L-1198 -228L-1201 -226L-1199 -219L-1200 -214L-1203 -214L-1198 -202L-1198 -198L-1192 -196L-1194 -194L-1196 -194L-1197 -196L-1198 -193L-1193 -193L-1194 -189L-1197 -187L-1198 -184L-1197 -176L-1195 -175L-1195 -171L-1189 -169L-1187 -165L-1187 -159L-1181 -159L-1180 -150L-1183 -130L-1178 -127L-1163 -128L-1161 -130L-1146 -134L-1137 -146L-1129 -148L-1114 -161L-1106 -163L-1104 -162L-1105 -156L-1103 -152L-1104 -149L-1106 -149L-1105 -144L-1098 -142L-1091 -130L-1089 -123L-1081 -118L-1086 -109L-1087 -104L-1086 -101L-1083 -100L-1080 -95L-1082 -95L-1081 -92L-1078 -89L-1076 -82L-1075 -83L-1074 -81L-1074 -75L-1071 -71L-1072 -64L-1069 -61L-1067 -54L-1067 -51L-1070 -51L-1070 -46L-1077 -48L-1078 -47L-1077 -44L-1074 -44L-1075 -41L-1084 -43L-1089 -41L-1086 -37L-1088 -34L-1083 -33L-1078 -24L-1076 -25L-1076 -27L-1072 -28L-1068 -22L-1067 -24L-1061 -18L-1052 -19L-1052 -24L-1048 -27L-1048 -31L-1044 -34L-1037 -29L-1039 -24L-1034 -20L-1035 -17L-1030 -16L-1022 -7L-1016 -9L-1015 -3L-1006 -4L-1004 -2L-1000 -2L-999 7L-986 18L-995 28L-992 31L-987 30L-985 33L-985 35L-990 39L-991 38L-992 40L-991 42L-985 43L-983 50L-982 45L-978 43L-976 44L-976 42L-970 37L-967 31L-965 31L-963 21L-958 19L-954 15L-954 13L-947 13L-945 11L-944 18L-949 24L-947 26L-946 31L-946 38L-948 41L-946 54L-944 54L-942 50L-936 52L-935 61L-937 62L-935 65L-937 68L-933 69L-933 73L-931 75L-926 74L-925 76L-928 85L-926 88L-928 90L-926 89L-916 101L-916 105L-919 108L-918 113L-910 113L-907 116L-909 123L-906 124L-908 129L-907 130L-906 127L-905 134L-902 133L-902 129L-899 129L-897 132L-892 131L-890 134L-894 139L-897 139L-896 143L-900 147L-901 151L-903 151L-908 156L-903 158L-902 160L-906 160L-907 162L-907 173L-905 179L-903 180L-905 190L-904 191L-897 189L-893 192L-892 204L-888 209L-889 211L-887 215L-885 216L-886 221L-881 226L-881 228L-879 228L-876 231L-877 234L-875 241L-873 239L-871 243L-866 243L-865 245L-867 251L-863 252L-865 257L-867 257L-869 260L-867 262L-868 266L-872 270L-873 276L-874 275L-877 280L-881 281L-881 286L-879 284L-872 284L-870 288L-868 288L-865 287L-864 285L-861 286L-860 289L-855 284L-853 285L-851 283L-850 287L-847 287L-846 284L-841 284L-845 283L-843 280L-839 281L-840 280L-836 275L-837 272L-833 272L-834 269L-831 265L-833 264L-832 262L-826 260L-824 257L-822 257L-822 255L-816 252L-817 250L-815 249L-815 246L-810 242L-810 238L-803 230L-798 227L-796 228L-797 230L-799 230L-794 229L-798 223L-793 213L-794 210L-790 203L-792 199L-791 197L-789 197L-788 191L-786 190L-785 192L-783 192L-779 189L-777 186L-780 185L-780 181L-776 182L-772 186L-772 188L-770 187L-770 182L-769 181L-768 184L-766 184L-764 178L-758 174L-756 175L-758 178L-757 179L-754 178L-754 180L-751 180L-752 182L-747 183L-747 187L-745 187L-745 189L-747 188L-749 191L-744 195L-743 194L-742 195L-744 196L-741 197L-740 200L-735 201L-738 201L-739 204L-741 204L-741 206L-743 205L-741 207L-737 207L-736 209L-733 208L-729 212L-728 210L-726 211L-727 213L-729 213L-728 214L-720 216L-717 214L-714 217L-711 217L-709 214L-705 216L-703 215L-701 220L-696 220L-694 223L-692 223L-693 222L-691 221L-681 221L-680 223L-679 221L-677 223L-674 222L-673 224L-672 218L-669 221L-667 217L-663 220L-663 222L-660 218L-661 221L-659 221L-660 222L-658 222L-657 225L-652 225L-652 228L-650 228L-644 222L-642 223L-641 219L-639 218L-639 213L-632 203L-632 199L-634 199L-633 196L-636 196L-638 192L-637 191L-641 190L-644 186L-646 186L-648 181L-647 180L-651 176L-651 157L-655 155L-658 151z"/></g></svg>