<svg xmlns="http://www.w3.org/2000/svg" pointer-events="none" class="leaflet-zoom-animated" width="1466" height="842" viewBox="410 -961 1466 842" style="transform: translate3d(410px, -961px, 0px);"><g><path class="leaflet-interactive" stroke="black" stroke-opacity="1" stroke-width="1" stroke-linecap="round" stroke-linejoin="round" fill="#fff" fill-opacity="0.2" fill-rule="evenodd" d="M1093 -324L1093 -322L1097 -326L1098 -324L1101 -325L1104 -323L1112 -331L1118 -335L1125 -337L1126 -339L1129 -337L1127 -333L1130 -331L1133 -331L1134 -334L1140 -337L1140 -339L1141 -337L1145 -337L1145 -345L1147 -345L1148 -347L1144 -363L1141 -367L1140 -372L1142 -378L1140 -386L1143 -392L1144 -390L1148 -392L1151 -391L1154 -398L1158 -400L1158 -403L1164 -407L1168 -412L1168 -416L1171 -420L1169 -420L1168 -423L1165 -424L1166 -429L1170 -431L1174 -436L1178 -433L1185 -438L1183 -448L1181 -449L1184 -453L1184 -457L1186 -454L1187 -455L1189 -453L1194 -455L1196 -453L1199 -456L1210 -455L1210 -453L1208 -453L1206 -450L1202 -450L1204 -440L1209 -439L1209 -437L1212 -436L1211 -433L1209 -433L1210 -431L1212 -431L1212 -428L1208 -425L1205 -425L1214 -416L1218 -414L1225 -417L1231 -417L1233 -419L1233 -422L1234 -421L1236 -423L1236 -426L1239 -427L1245 -426L1245 -422L1249 -422L1250 -420L1247 -417L1248 -414L1251 -413L1250 -407L1257 -411L1264 -408L1266 -405L1272 -408L1275 -407L1276 -409L1288 -411L1291 -410L1298 -413L1296 -417L1297 -420L1293 -423L1294 -427L1289 -431L1286 -431L1283 -429L1284 -428L1281 -428L1280 -430L1277 -428L1277 -435L1272 -440L1270 -436L1266 -439L1266 -445L1264 -447L1265 -449L1268 -450L1268 -453L1277 -453L1277 -456L1281 -462L1284 -458L1286 -458L1287 -455L1289 -456L1291 -452L1297 -447L1299 -447L1299 -450L1297 -451L1297 -457L1292 -469L1284 -469L1284 -472L1282 -473L1277 -469L1276 -471L1275 -470L1271 -474L1272 -475L1270 -479L1271 -481L1269 -483L1269 -489L1267 -487L1265 -489L1264 -487L1262 -489L1260 -488L1258 -489L1258 -491L1256 -490L1257 -495L1254 -496L1254 -498L1251 -497L1252 -498L1250 -504L1255 -508L1254 -509L1257 -509L1258 -511L1261 -510L1263 -513L1263 -517L1270 -519L1269 -522L1271 -527L1268 -528L1266 -532L1264 -532L1263 -535L1262 -534L1262 -536L1266 -536L1265 -541L1270 -540L1269 -543L1273 -549L1278 -548L1279 -546L1284 -546L1288 -542L1289 -543L1292 -537L1296 -537L1296 -539L1301 -539L1302 -542L1308 -543L1311 -540L1310 -538L1313 -535L1314 -530L1318 -527L1320 -529L1324 -528L1327 -531L1329 -528L1332 -530L1331 -531L1336 -535L1343 -549L1351 -560L1348 -562L1349 -564L1347 -565L1351 -572L1357 -570L1359 -573L1361 -573L1362 -569L1364 -570L1365 -568L1373 -574L1370 -577L1373 -581L1376 -581L1374 -584L1377 -589L1377 -592L1374 -592L1382 -597L1380 -599L1383 -601L1382 -604L1384 -606L1388 -606L1389 -608L1391 -608L1390 -610L1393 -613L1396 -613L1396 -618L1398 -620L1391 -623L1391 -625L1389 -625L1385 -631L1389 -631L1389 -636L1394 -637L1390 -642L1394 -642L1397 -644L1395 -647L1388 -645L1383 -646L1381 -644L1375 -644L1373 -640L1370 -643L1367 -643L1362 -651L1360 -650L1359 -654L1355 -655L1352 -653L1348 -655L1348 -661L1346 -662L1342 -659L1340 -654L1338 -655L1331 -662L1333 -665L1330 -670L1331 -671L1316 -672L1311 -669L1309 -670L1303 -668L1301 -666L1298 -669L1290 -670L1285 -674L1286 -677L1284 -679L1283 -677L1274 -677L1272 -673L1269 -674L1265 -670L1262 -673L1259 -682L1257 -683L1255 -682L1255 -677L1258 -673L1250 -668L1248 -669L1243 -665L1241 -665L1238 -668L1233 -665L1231 -665L1230 -668L1222 -668L1210 -674L1204 -679L1204 -683L1207 -683L1211 -687L1207 -689L1208 -693L1205 -703L1210 -704L1206 -705L1199 -712L1199 -720L1194 -724L1185 -724L1181 -722L1175 -726L1169 -723L1171 -727L1169 -731L1165 -727L1162 -727L1157 -731L1153 -731L1154 -736L1151 -738L1153 -741L1152 -745L1154 -746L1150 -751L1144 -752L1145 -754L1143 -758L1140 -758L1139 -756L1130 -752L1130 -750L1127 -749L1130 -747L1121 -745L1120 -746L1118 -740L1114 -740L1115 -741L1106 -739L1111 -734L1111 -730L1115 -728L1113 -726L1116 -726L1114 -723L1115 -721L1122 -716L1120 -715L1120 -710L1117 -708L1113 -709L1109 -705L1109 -699L1105 -702L1103 -697L1098 -697L1094 -692L1092 -693L1093 -697L1090 -701L1094 -703L1094 -706L1098 -711L1093 -719L1091 -716L1090 -717L1090 -711L1086 -710L1084 -704L1087 -703L1088 -700L1083 -692L1077 -699L1072 -698L1073 -695L1068 -701L1063 -701L1062 -699L1060 -699L1062 -694L1061 -691L1063 -689L1063 -686L1060 -686L1060 -682L1065 -679L1065 -672L1062 -668L1060 -667L1060 -669L1058 -669L1052 -665L1050 -667L1044 -667L1041 -669L1042 -666L1039 -665L1040 -661L1038 -661L1033 -665L1028 -672L1027 -670L1027 -672L1024 -671L1021 -673L1019 -665L1018 -667L1015 -667L1013 -669L1015 -671L1015 -678L1012 -681L1010 -681L1011 -683L1007 -684L1007 -686L1004 -689L1002 -683L999 -684L998 -682L1000 -680L996 -672L996 -674L991 -675L989 -678L986 -678L981 -681L976 -680L972 -689L959 -693L956 -696L953 -703L954 -707L952 -709L952 -713L948 -716L946 -720L948 -722L942 -729L940 -729L941 -730L937 -734L938 -743L936 -744L936 -746L928 -745L923 -748L920 -747L916 -752L909 -753L908 -750L903 -748L905 -744L902 -741L903 -739L901 -737L891 -735L891 -733L889 -732L892 -726L892 -719L896 -718L898 -712L901 -712L907 -708L905 -708L905 -706L903 -706L897 -698L895 -694L897 -690L897 -688L895 -688L896 -686L889 -683L890 -675L894 -668L900 -666L904 -661L914 -659L928 -651L928 -646L932 -639L938 -633L938 -628L936 -628L937 -623L941 -620L943 -614L958 -599L954 -593L952 -593L950 -597L947 -597L946 -589L955 -579L953 -574L962 -565L959 -562L961 -557L960 -554L962 -550L963 -534L966 -531L965 -528L967 -523L964 -517L963 -510L966 -504L967 -489L969 -487L968 -483L970 -471L968 -464L970 -460L970 -455L972 -453L971 -444L977 -437L976 -436L982 -430L981 -439L984 -443L982 -445L982 -449L988 -455L989 -459L992 -461L991 -462L996 -466L996 -461L1009 -449L1009 -447L1013 -444L1012 -443L1017 -439L1016 -437L1018 -435L1016 -433L1011 -432L1010 -430L1013 -424L1018 -419L1017 -418L1021 -415L1023 -416L1023 -409L1024 -408L1029 -415L1034 -413L1037 -415L1038 -418L1040 -418L1042 -415L1041 -412L1048 -405L1047 -404L1051 -398L1050 -394L1051 -395L1053 -393L1057 -381L1062 -381L1061 -372L1067 -369L1066 -367L1073 -363L1071 -359L1072 -358L1074 -357L1076 -358L1076 -360L1078 -359L1075 -356L1077 -354L1076 -351L1073 -351L1073 -348L1084 -340L1083 -338L1085 -338L1081 -335L1082 -333L1087 -332L1092 -325zM1294 -537L1294 -537zM1327 -531L1327 -531zM1262 -536L1262 -536z"/></g></svg>