<svg xmlns="http://www.w3.org/2000/svg" pointer-events="none" class="leaflet-zoom-animated" width="1466" height="896" viewBox="-122 -98 1466 896" style="transform: translate3d(-122px, -98px, 0px);"><g><path class="leaflet-interactive" stroke="black" stroke-opacity="1" stroke-width="1" stroke-linecap="round" stroke-linejoin="round" fill="#fff" fill-opacity="0.2" fill-rule="evenodd" d="M680 353L699 351L699 341L700 338L704 336L704 328L706 327L705 322L710 312L698 307L695 309L691 309L686 306L681 307L676 309L678 311L675 312L674 314L676 318L671 323L669 321L669 317L665 315L669 314L669 312L666 311L665 309L663 309L660 312L659 308L657 308L656 305L654 308L653 306L655 305L655 303L657 303L657 300L659 300L659 298L661 298L662 296L662 290L660 290L660 287L657 285L657 282L656 283L650 281L645 277L649 272L639 268L641 266L641 260L644 259L642 259L642 256L640 253L639 254L638 251L640 248L638 246L637 247L635 237L633 237L634 231L632 232L636 228L633 227L634 224L637 223L640 217L638 212L647 212L653 219L663 218L664 216L669 215L677 220L679 218L683 220L685 210L683 207L676 207L676 200L678 201L681 199L678 196L677 192L672 193L669 189L663 192L662 188L658 190L660 186L658 181L656 180L655 176L653 177L653 174L650 171L647 172L644 165L643 157L632 157L622 151L618 153L616 152L616 155L614 157L611 157L612 159L609 160L609 162L612 163L609 164L610 167L614 167L611 169L612 170L605 170L604 171L606 174L604 178L600 180L599 178L597 178L595 182L590 185L591 186L586 184L579 189L578 192L581 196L575 196L573 198L575 200L574 204L576 206L576 213L573 220L570 220L568 225L567 224L569 226L567 230L565 230L567 233L569 233L567 236L569 238L568 241L569 240L572 243L573 242L573 244L574 243L582 247L584 245L588 249L586 251L587 252L583 251L580 253L579 251L575 251L576 253L571 253L570 255L569 254L569 260L573 260L573 263L578 268L570 271L570 274L568 274L568 276L571 279L571 289L569 292L573 296L565 302L546 294L543 294L536 298L536 296L534 296L530 290L530 284L531 282L532 283L531 281L525 281L523 286L524 287L513 290L513 294L509 297L511 301L508 303L507 302L506 306L506 304L504 305L505 306L503 308L506 312L503 314L502 318L504 323L508 322L508 327L506 328L508 334L501 338L503 342L502 341L505 343L507 341L510 345L514 343L515 345L518 345L517 347L515 346L516 348L512 351L511 350L511 360L508 360L510 363L508 363L509 368L513 368L517 364L518 368L520 368L520 374L519 376L516 376L515 379L517 379L518 391L519 393L521 393L521 395L519 396L519 394L517 394L518 397L514 397L514 399L516 411L524 412L526 418L525 419L527 419L526 422L524 421L519 431L517 431L517 435L508 437L503 435L501 436L501 434L503 434L501 433L499 437L497 436L495 438L496 447L490 455L489 461L487 462L487 472L490 472L490 482L494 482L493 486L495 489L492 498L495 499L494 505L501 509L503 507L516 507L518 522L527 522L539 519L543 520L543 518L548 516L548 521L552 522L550 532L553 539L556 539L556 541L558 541L557 542L560 544L562 543L562 541L565 541L568 537L577 536L577 534L580 531L582 531L581 534L583 534L582 535L587 538L587 540L583 544L588 544L584 546L586 551L593 550L593 548L595 548L596 551L598 551L599 549L604 550L605 545L607 545L607 549L612 547L615 544L613 544L615 542L616 543L626 538L627 539L627 537L632 537L634 539L636 538L636 541L639 540L638 539L640 537L642 538L657 535L658 528L673 522L675 520L675 505L674 503L662 501L659 499L658 487L677 483L682 478L690 481L694 481L697 478L697 473L700 466L703 465L704 461L695 456L693 440L694 427L699 419L716 407L718 399L728 396L729 393L734 393L734 387L728 384L729 383L727 382L727 379L725 381L721 380L721 378L719 378L716 373L705 373L702 370L697 369L695 371L695 369L693 369L696 365L696 361L696 363L693 365L687 364L687 360L683 359L676 364L669 365L666 363L662 363L661 373L658 372L656 367L653 368L649 366L638 368L635 364L642 357L641 355L644 354L644 352L648 352L650 349L656 354L660 352L659 351L661 351L663 357L668 356L668 352L674 351zM687 360L695 358L696 360L698 359L697 354L694 352L680 353L683 355L683 359z"/></g></svg>