<svg xmlns="http://www.w3.org/2000/svg" pointer-events="none" class="leaflet-zoom-animated" width="1466" height="842" viewBox="409 -955 1466 842" style="transform: translate3d(409px, -955px, 0px);"><g><path class="leaflet-interactive" stroke="black" stroke-opacity="1" stroke-width="1" stroke-linecap="round" stroke-linejoin="round" fill="#fff" fill-opacity="0.2" fill-rule="evenodd" d="M1185 -453L1189 -454L1189 -460L1192 -460L1191 -463L1193 -465L1199 -467L1202 -464L1201 -468L1204 -474L1203 -479L1201 -480L1202 -483L1200 -482L1200 -485L1194 -489L1194 -494L1197 -488L1198 -491L1203 -492L1203 -496L1205 -498L1199 -510L1205 -510L1205 -508L1207 -511L1208 -509L1211 -510L1211 -508L1214 -505L1215 -513L1219 -512L1226 -507L1227 -510L1225 -512L1227 -513L1234 -508L1235 -510L1238 -508L1238 -511L1244 -509L1251 -512L1257 -507L1260 -507L1260 -510L1263 -507L1266 -515L1264 -519L1260 -522L1263 -524L1259 -531L1259 -538L1261 -551L1266 -554L1269 -559L1269 -562L1265 -563L1264 -566L1267 -565L1272 -571L1274 -570L1274 -572L1270 -574L1278 -575L1280 -577L1281 -583L1289 -586L1291 -585L1294 -587L1295 -590L1295 -594L1293 -596L1286 -598L1280 -604L1274 -604L1273 -605L1275 -610L1268 -616L1266 -620L1258 -623L1253 -628L1248 -629L1247 -626L1237 -624L1215 -630L1211 -634L1201 -637L1188 -647L1199 -656L1203 -665L1208 -693L1213 -697L1217 -705L1232 -721L1232 -733L1222 -740L1222 -743L1216 -755L1218 -759L1217 -768L1213 -771L1207 -770L1206 -768L1199 -771L1190 -758L1181 -761L1170 -758L1170 -744L1167 -742L1160 -746L1158 -745L1153 -737L1151 -730L1152 -727L1149 -722L1147 -722L1142 -716L1143 -712L1145 -712L1135 -701L1135 -691L1131 -685L1133 -679L1131 -677L1132 -671L1130 -670L1131 -668L1129 -666L1131 -662L1128 -653L1132 -645L1130 -638L1126 -636L1124 -632L1123 -625L1124 -620L1130 -611L1126 -604L1127 -595L1123 -587L1117 -584L1111 -585L1108 -576L1083 -576L1072 -573L1056 -562L1041 -561L1036 -557L1002 -555L998 -548L996 -549L995 -547L988 -545L989 -543L996 -543L997 -545L1002 -547L1004 -544L1014 -545L1024 -542L1023 -536L1028 -536L1028 -534L1022 -529L1019 -529L1019 -527L1017 -526L1018 -521L1020 -519L1027 -519L1033 -524L1035 -522L1036 -523L1040 -520L1041 -515L1049 -505L1049 -500L1054 -500L1054 -498L1068 -495L1070 -491L1070 -483L1075 -484L1083 -474L1083 -467L1082 -466L1078 -468L1078 -466L1075 -466L1072 -462L1072 -459L1074 -458L1074 -454L1078 -449L1078 -446L1076 -445L1079 -441L1082 -443L1087 -437L1086 -432L1090 -431L1089 -428L1092 -425L1090 -423L1093 -419L1095 -419L1097 -415L1095 -409L1100 -399L1098 -394L1095 -395L1084 -384L1084 -370L1090 -366L1087 -365L1087 -360L1088 -359L1091 -363L1095 -357L1095 -354L1096 -355L1097 -352L1100 -351L1104 -352L1105 -347L1105 -351L1114 -354L1122 -352L1120 -348L1119 -352L1116 -347L1119 -346L1119 -342L1121 -342L1122 -340L1123 -341L1122 -340L1125 -337L1124 -336L1126 -334L1128 -335L1128 -331L1130 -329L1129 -326L1130 -325L1132 -331L1134 -330L1136 -332L1146 -329L1146 -326L1151 -327L1151 -325L1152 -327L1153 -326L1151 -323L1151 -319L1155 -311L1156 -315L1161 -319L1163 -316L1165 -317L1168 -307L1174 -302L1173 -300L1177 -297L1179 -298L1178 -301L1184 -303L1189 -307L1189 -310L1191 -311L1189 -314L1189 -324L1187 -324L1187 -327L1185 -327L1186 -335L1188 -335L1184 -347L1189 -352L1199 -352L1199 -354L1200 -352L1201 -354L1202 -350L1205 -350L1206 -352L1207 -350L1213 -348L1213 -352L1218 -350L1220 -354L1223 -353L1223 -357L1225 -357L1226 -355L1228 -359L1226 -361L1229 -361L1224 -366L1225 -369L1222 -369L1225 -373L1227 -373L1227 -375L1230 -375L1230 -377L1227 -376L1226 -379L1228 -376L1231 -383L1229 -383L1229 -386L1232 -393L1230 -397L1229 -395L1229 -398L1227 -398L1226 -402L1225 -401L1220 -408L1218 -406L1216 -408L1215 -406L1209 -410L1208 -409L1207 -413L1204 -412L1203 -415L1202 -412L1199 -415L1199 -413L1195 -415L1194 -412L1188 -415L1188 -418L1191 -415L1190 -418L1192 -425L1189 -430L1190 -429L1191 -431L1190 -432L1192 -434L1192 -437L1188 -437L1184 -441L1182 -441L1177 -447L1178 -448L1180 -445L1181 -447L1185 -445L1185 -448L1187 -448L1185 -452zM1149 -321L1150 -325L1143 -324L1141 -322L1134 -320L1135 -317L1144 -319L1144 -321L1145 -320L1148 -323L1148 -321zM1151 -318L1150 -318zM1151 -321L1151 -321z"/></g></svg>