<svg xmlns="http://www.w3.org/2000/svg" pointer-events="none" class="leaflet-zoom-animated" width="1466" height="896" viewBox="427 -1389 1466 896" style="transform: translate3d(427px, -1389px, 0px);"><g><path class="leaflet-interactive" stroke="black" stroke-opacity="1" stroke-width="1" stroke-linecap="round" stroke-linejoin="round" fill="#fff" fill-opacity="0.2" fill-rule="evenodd" d="M1080 -1127L1073 -1126L1069 -1122L1060 -1119L1054 -1127L1051 -1127L1051 -1134L1049 -1137L1043 -1140L1045 -1147L1041 -1152L1036 -1152L1034 -1155L1033 -1152L1031 -1152L1027 -1158L1021 -1160L1018 -1158L1013 -1158L1012 -1155L1008 -1154L1009 -1153L1003 -1138L1011 -1137L1010 -1129L1009 -1127L1005 -1127L1005 -1125L1008 -1122L1008 -1115L1012 -1106L1005 -1105L1004 -1103L1000 -1102L999 -1104L992 -1103L990 -1097L987 -1099L985 -1097L985 -1091L982 -1091L984 -1086L982 -1083L985 -1082L985 -1079L987 -1079L986 -1074L984 -1074L985 -1070L980 -1061L981 -1057L980 -1058L980 -1056L976 -1057L973 -1054L969 -1054L968 -1051L957 -1051L953 -1053L953 -1055L950 -1058L947 -1059L947 -1057L945 -1057L944 -1051L946 -1051L946 -1047L948 -1045L944 -1044L944 -1039L946 -1039L948 -1035L956 -1035L956 -1032L966 -1031L968 -1027L972 -1026L971 -1022L973 -1019L970 -1018L970 -1006L971 -1007L972 -1005L974 -1005L971 -1003L973 -1000L971 -999L974 -998L974 -996L976 -998L978 -996L980 -998L983 -994L991 -996L991 -994L993 -994L994 -991L999 -987L1000 -983L1005 -979L1005 -977L1009 -980L1011 -978L1013 -980L1013 -978L1016 -983L1015 -984L1017 -984L1017 -986L1021 -985L1024 -989L1025 -984L1035 -996L1038 -995L1033 -993L1031 -989L1034 -987L1034 -985L1032 -984L1035 -980L1035 -971L1039 -952L1039 -942L1037 -939L1039 -934L1036 -928L1037 -924L1035 -921L1035 -916L1037 -915L1036 -912L1034 -910L1031 -911L1028 -909L1025 -911L1017 -909L1016 -910L1014 -908L1011 -908L1004 -901L1002 -902L998 -898L998 -894L994 -890L991 -883L987 -880L989 -875L988 -865L994 -864L994 -861L996 -861L995 -857L1002 -854L1004 -844L1007 -843L1012 -850L1017 -849L1024 -839L1032 -843L1034 -842L1034 -839L1039 -835L1039 -832L1043 -832L1045 -829L1049 -829L1050 -827L1051 -824L1045 -822L1031 -811L1033 -804L1028 -801L1025 -801L1023 -794L1028 -788L1028 -785L1029 -786L1034 -783L1034 -779L1037 -776L1035 -770L1037 -769L1037 -767L1040 -767L1037 -766L1034 -762L1037 -757L1037 -753L1043 -753L1044 -750L1050 -744L1050 -738L1053 -733L1051 -719L1057 -709L1057 -703L1064 -704L1068 -699L1087 -711L1094 -711L1098 -727L1100 -729L1105 -730L1110 -727L1113 -728L1118 -721L1120 -722L1121 -717L1121 -719L1124 -720L1127 -716L1119 -702L1116 -700L1112 -700L1112 -698L1107 -694L1106 -691L1110 -689L1104 -685L1110 -679L1110 -676L1114 -680L1117 -676L1119 -676L1124 -681L1133 -686L1135 -689L1139 -688L1146 -692L1147 -693L1145 -695L1148 -698L1142 -703L1148 -709L1148 -712L1154 -714L1159 -712L1158 -706L1161 -703L1166 -706L1168 -702L1172 -706L1174 -706L1173 -699L1177 -695L1177 -690L1179 -687L1184 -685L1183 -683L1185 -679L1189 -678L1195 -681L1200 -674L1204 -676L1206 -675L1208 -677L1215 -674L1228 -677L1231 -676L1231 -674L1236 -673L1240 -669L1238 -666L1238 -662L1243 -659L1244 -660L1244 -658L1246 -661L1249 -662L1255 -661L1255 -669L1258 -667L1261 -670L1272 -671L1272 -677L1279 -684L1285 -684L1290 -691L1292 -691L1295 -697L1295 -706L1298 -705L1304 -711L1303 -715L1307 -715L1309 -725L1306 -729L1306 -734L1308 -736L1304 -739L1310 -741L1311 -744L1307 -748L1307 -755L1314 -760L1314 -758L1315 -759L1323 -754L1326 -756L1335 -752L1339 -752L1340 -758L1342 -757L1348 -761L1349 -758L1354 -761L1351 -762L1351 -764L1349 -765L1350 -766L1348 -769L1348 -777L1347 -778L1342 -776L1339 -779L1342 -782L1339 -786L1346 -787L1348 -791L1353 -794L1355 -790L1358 -791L1362 -796L1361 -803L1364 -803L1368 -809L1370 -809L1370 -824L1375 -829L1375 -836L1377 -839L1370 -839L1370 -841L1366 -844L1360 -844L1356 -847L1353 -846L1355 -848L1354 -849L1352 -847L1350 -850L1352 -856L1350 -860L1350 -857L1348 -855L1346 -856L1342 -854L1339 -854L1337 -857L1336 -856L1336 -859L1332 -859L1330 -855L1327 -854L1327 -852L1300 -852L1296 -857L1293 -857L1291 -859L1296 -869L1296 -866L1304 -869L1306 -872L1305 -875L1307 -881L1304 -882L1307 -883L1307 -888L1305 -890L1306 -893L1303 -895L1300 -893L1298 -896L1299 -898L1297 -900L1294 -899L1292 -894L1292 -896L1289 -895L1285 -897L1285 -899L1290 -903L1286 -905L1284 -908L1277 -905L1275 -907L1276 -909L1272 -910L1271 -912L1273 -917L1269 -919L1270 -921L1260 -927L1263 -936L1262 -940L1264 -944L1266 -943L1273 -949L1273 -954L1285 -957L1288 -962L1287 -966L1291 -970L1291 -973L1288 -977L1290 -984L1284 -984L1281 -986L1281 -988L1283 -989L1282 -992L1278 -995L1278 -997L1281 -999L1284 -996L1286 -998L1290 -997L1290 -999L1293 -1000L1293 -998L1296 -999L1298 -997L1300 -997L1301 -999L1301 -997L1304 -995L1309 -998L1308 -994L1312 -994L1316 -988L1320 -990L1325 -983L1331 -988L1334 -998L1335 -999L1335 -996L1337 -996L1339 -1000L1337 -1001L1337 -1014L1335 -1022L1328 -1023L1324 -1027L1322 -1032L1319 -1032L1320 -1037L1318 -1038L1314 -1036L1308 -1036L1307 -1038L1304 -1036L1303 -1032L1300 -1032L1301 -1027L1294 -1026L1294 -1017L1296 -1014L1293 -1012L1285 -1014L1283 -1014L1282 -1012L1268 -1012L1268 -1014L1264 -1011L1261 -1012L1260 -1016L1257 -1016L1253 -1020L1255 -1022L1253 -1027L1249 -1026L1248 -1029L1249 -1035L1255 -1038L1250 -1040L1248 -1049L1246 -1049L1246 -1064L1243 -1066L1240 -1060L1231 -1057L1226 -1062L1225 -1067L1221 -1067L1221 -1071L1225 -1074L1226 -1078L1224 -1079L1229 -1083L1228 -1086L1231 -1096L1236 -1094L1237 -1109L1242 -1114L1241 -1121L1243 -1122L1241 -1124L1238 -1124L1237 -1126L1233 -1126L1229 -1123L1223 -1125L1222 -1122L1208 -1122L1204 -1120L1201 -1123L1204 -1128L1205 -1139L1200 -1139L1197 -1144L1197 -1150L1192 -1155L1191 -1151L1188 -1149L1182 -1158L1173 -1154L1168 -1161L1164 -1159L1161 -1160L1159 -1158L1150 -1160L1150 -1162L1147 -1162L1147 -1164L1139 -1170L1138 -1172L1140 -1174L1140 -1178L1133 -1182L1133 -1194L1128 -1196L1120 -1194L1112 -1203L1097 -1205L1099 -1206L1099 -1208L1092 -1211L1089 -1214L1088 -1218L1084 -1221L1084 -1223L1075 -1220L1074 -1217L1070 -1218L1067 -1212L1064 -1215L1062 -1212L1063 -1208L1059 -1202L1066 -1192L1068 -1193L1079 -1184L1078 -1180L1080 -1182L1084 -1181L1085 -1183L1086 -1181L1091 -1184L1098 -1181L1094 -1176L1096 -1170L1093 -1168L1093 -1165L1100 -1154L1099 -1152L1104 -1148L1103 -1139L1096 -1141L1094 -1137L1093 -1138L1090 -1136L1086 -1136L1086 -1134L1084 -1134L1084 -1129L1082 -1130zM1305 -883L1305 -881L1307 -881L1307 -883zM1108 -691L1104 -689L1107 -688L1109 -690zM1000 -985L1000 -985z"/></g></svg>