<svg xmlns="http://www.w3.org/2000/svg" pointer-events="none" class="leaflet-zoom-animated" width="1466" height="842" viewBox="418 -984 1466 842" style="transform: translate3d(418px, -984px, 0px);"><g><path class="leaflet-interactive" stroke="black" stroke-opacity="1" stroke-width="1" stroke-linecap="round" stroke-linejoin="round" fill="#fff" fill-opacity="0.2" fill-rule="evenodd" d="M937 -388L941 -394L943 -393L955 -396L956 -398L971 -395L971 -402L973 -401L972 -397L974 -397L973 -401L974 -397L978 -397L979 -395L984 -393L984 -390L988 -391L984 -387L988 -387L989 -384L986 -384L986 -382L989 -378L993 -378L998 -371L996 -367L997 -365L999 -366L1004 -357L1003 -352L1006 -342L1009 -342L1014 -345L1013 -347L1014 -348L1015 -346L1014 -349L1016 -350L1015 -353L1018 -354L1015 -356L1021 -356L1020 -357L1023 -359L1026 -358L1027 -354L1037 -346L1045 -345L1046 -347L1051 -349L1053 -355L1063 -351L1063 -365L1073 -365L1073 -368L1077 -369L1083 -366L1091 -366L1090 -364L1092 -362L1089 -358L1093 -355L1094 -356L1098 -354L1094 -347L1098 -344L1097 -336L1101 -336L1102 -339L1103 -338L1111 -341L1116 -340L1119 -342L1122 -350L1120 -359L1122 -363L1123 -362L1125 -364L1124 -369L1126 -368L1129 -371L1129 -373L1136 -373L1137 -371L1141 -371L1144 -369L1153 -374L1152 -376L1149 -375L1147 -378L1149 -382L1152 -382L1152 -387L1155 -388L1155 -391L1160 -398L1160 -408L1165 -410L1168 -409L1173 -411L1183 -411L1185 -415L1188 -417L1195 -418L1199 -417L1200 -413L1205 -414L1207 -412L1209 -417L1212 -418L1208 -421L1211 -422L1209 -423L1211 -433L1218 -440L1222 -438L1222 -443L1226 -445L1225 -450L1229 -456L1233 -470L1241 -474L1242 -469L1246 -470L1246 -475L1248 -477L1248 -474L1252 -473L1257 -476L1256 -480L1259 -483L1259 -486L1256 -487L1257 -489L1260 -489L1262 -485L1265 -484L1268 -491L1267 -497L1269 -502L1271 -504L1273 -503L1277 -507L1278 -506L1283 -511L1279 -506L1279 -504L1281 -504L1285 -510L1290 -513L1292 -517L1290 -518L1287 -514L1287 -519L1283 -516L1286 -523L1285 -524L1281 -524L1274 -528L1274 -531L1277 -533L1276 -536L1283 -540L1284 -538L1286 -539L1288 -537L1292 -537L1290 -541L1293 -543L1297 -536L1290 -523L1294 -523L1294 -521L1297 -521L1299 -523L1300 -522L1307 -527L1314 -527L1313 -529L1318 -528L1320 -530L1327 -530L1329 -532L1327 -535L1326 -548L1323 -548L1323 -553L1331 -553L1327 -560L1328 -563L1330 -563L1333 -566L1333 -568L1339 -569L1342 -564L1341 -560L1345 -559L1347 -564L1349 -564L1347 -564L1346 -567L1350 -567L1352 -570L1352 -580L1345 -582L1341 -586L1346 -587L1351 -582L1359 -582L1369 -590L1378 -592L1381 -596L1387 -597L1391 -595L1392 -601L1396 -602L1404 -610L1406 -610L1398 -605L1401 -604L1402 -601L1405 -601L1403 -599L1407 -600L1405 -603L1409 -603L1409 -601L1414 -598L1412 -603L1413 -608L1419 -609L1424 -612L1424 -614L1427 -617L1447 -625L1450 -615L1450 -619L1454 -620L1455 -623L1459 -623L1456 -618L1460 -616L1462 -618L1462 -613L1466 -613L1468 -611L1470 -612L1477 -610L1481 -614L1488 -616L1485 -619L1490 -620L1490 -617L1493 -617L1495 -620L1496 -632L1499 -634L1498 -636L1488 -634L1489 -640L1491 -646L1499 -647L1498 -650L1503 -652L1503 -654L1499 -658L1500 -660L1497 -660L1499 -662L1498 -664L1501 -668L1501 -672L1503 -672L1504 -674L1507 -674L1508 -672L1511 -675L1507 -679L1507 -677L1505 -679L1496 -676L1489 -679L1484 -677L1474 -677L1471 -679L1472 -681L1468 -683L1463 -682L1462 -679L1459 -685L1460 -686L1458 -687L1461 -691L1457 -695L1457 -693L1452 -695L1452 -691L1451 -692L1447 -690L1445 -686L1439 -684L1423 -683L1415 -684L1414 -686L1412 -686L1407 -682L1407 -680L1403 -683L1398 -684L1396 -687L1397 -689L1394 -692L1392 -692L1390 -698L1395 -698L1392 -699L1390 -702L1386 -702L1388 -698L1382 -696L1374 -696L1368 -701L1369 -710L1367 -713L1358 -712L1354 -717L1350 -719L1349 -724L1339 -724L1332 -726L1321 -721L1316 -717L1304 -716L1295 -709L1284 -709L1283 -708L1289 -704L1286 -701L1283 -701L1283 -697L1286 -693L1270 -681L1259 -678L1257 -674L1249 -673L1249 -669L1254 -664L1254 -661L1251 -660L1253 -659L1252 -657L1248 -655L1240 -645L1235 -646L1235 -648L1225 -644L1218 -644L1217 -647L1217 -645L1202 -643L1199 -649L1200 -652L1198 -654L1196 -653L1194 -655L1191 -655L1191 -652L1191 -662L1185 -656L1184 -657L1186 -662L1188 -661L1187 -663L1185 -663L1185 -660L1181 -659L1180 -657L1178 -659L1177 -664L1171 -668L1171 -671L1174 -672L1173 -674L1171 -673L1167 -687L1170 -698L1175 -703L1197 -705L1201 -722L1199 -729L1197 -731L1192 -726L1187 -724L1185 -725L1183 -735L1173 -744L1169 -757L1164 -761L1152 -763L1139 -760L1137 -759L1137 -756L1133 -751L1130 -752L1126 -759L1121 -757L1117 -759L1114 -758L1101 -761L1098 -766L1092 -769L1083 -768L1072 -777L1072 -779L1064 -771L1062 -765L1064 -765L1060 -763L1061 -760L1058 -759L1055 -753L1044 -753L1041 -751L1042 -749L1040 -748L1037 -738L1034 -735L1031 -728L1028 -726L1022 -729L1015 -726L997 -727L993 -725L983 -727L976 -725L973 -727L967 -721L967 -716L965 -718L966 -715L961 -713L960 -708L958 -708L955 -701L952 -700L944 -689L940 -687L940 -684L933 -691L934 -694L931 -694L930 -696L927 -694L925 -690L925 -688L927 -688L925 -687L925 -683L922 -686L922 -681L920 -679L924 -678L925 -676L921 -671L917 -671L915 -674L897 -668L897 -657L891 -653L892 -650L889 -647L888 -639L884 -635L884 -633L882 -633L883 -632L879 -629L880 -626L881 -627L880 -624L878 -619L876 -619L872 -615L871 -608L861 -604L858 -605L856 -603L853 -603L850 -596L840 -586L839 -579L837 -576L835 -577L836 -574L833 -573L835 -568L837 -568L836 -563L840 -561L840 -557L842 -555L841 -552L842 -551L846 -553L847 -549L849 -547L851 -548L852 -544L853 -532L851 -525L850 -526L849 -523L849 -518L842 -513L842 -505L839 -501L839 -494L842 -492L846 -495L850 -502L853 -503L853 -506L855 -507L855 -505L858 -505L862 -508L867 -507L872 -513L878 -513L883 -518L886 -517L899 -522L905 -528L909 -529L903 -512L898 -514L892 -512L891 -508L888 -507L889 -503L887 -500L879 -500L878 -498L875 -498L872 -490L865 -487L857 -487L853 -484L849 -476L840 -466L841 -459L833 -456L830 -452L821 -452L819 -449L819 -451L817 -451L817 -448L815 -446L812 -447L810 -440L807 -438L805 -435L806 -434L802 -432L802 -427L797 -426L794 -422L798 -417L796 -414L793 -413L792 -410L795 -409L795 -407L793 -406L796 -405L797 -407L802 -401L803 -403L806 -404L810 -402L815 -405L820 -405L820 -403L824 -400L828 -400L829 -399L827 -396L832 -394L830 -392L832 -387L836 -389L846 -385L849 -376L849 -369L851 -364L857 -357L865 -358L871 -355L872 -360L884 -356L897 -358L898 -361L901 -362L903 -360L909 -361L913 -355L918 -358L921 -355L925 -361L928 -360L930 -363L934 -365L933 -366L935 -373L933 -373L933 -376L936 -378L937 -385zM1462 -687L1465 -687L1463 -689L1461 -687zM1469 -602L1470 -602zM1401 -693L1403 -694L1401 -693zM1330 -738L1329 -735L1332 -732L1333 -736L1331 -739zM1327 -743L1327 -741L1331 -741L1330 -743L1326 -743zM1323 -742L1322 -740L1324 -742zM1399 -599L1399 -600zM1305 -718L1306 -720L1303 -720L1304 -718zM1317 -527L1317 -528zM1354 -563L1353 -565L1350 -563L1353 -564zM1355 -572L1354 -571zM1344 -505L1343 -504L1345 -505zM1326 -736L1327 -738L1325 -738L1325 -736zM1240 -471L1240 -472zM1332 -762L1335 -763L1332 -767L1331 -763zM1347 -784L1347 -788L1345 -787L1346 -785zM1278 -490L1279 -487L1281 -488L1280 -493L1279 -492zM1340 -783L1342 -784L1340 -786zM1346 -789L1348 -789L1347 -791L1345 -789zM1321 -738L1320 -743L1318 -742L1319 -739zM1337 -777L1341 -780L1338 -781L1336 -778zM1411 -597L1411 -599zM1350 -747L1348 -749L1349 -748zM1334 -543L1334 -542zM1247 -665L1247 -666zM1390 -547L1391 -546L1390 -547zM1490 -681L1490 -682zM1322 -760L1322 -761zM1344 -748L1343 -747zM1322 -751L1322 -752zM854 -505L853 -503L855 -505z"/></g></svg>