<svg xmlns="http://www.w3.org/2000/svg" pointer-events="none" class="leaflet-zoom-animated" width="1466" height="842" viewBox="406 -777 1466 842" style="transform: translate3d(406px, -777px, 0px);"><g><path class="leaflet-interactive" stroke="black" stroke-opacity="1" stroke-width="1" stroke-linecap="round" stroke-linejoin="round" fill="#fff" fill-opacity="0.2" fill-rule="evenodd" d="M1056 -243L1058 -238L1057 -234L1054 -231L1051 -221L1047 -216L1045 -203L1041 -196L1042 -182L1049 -180L1052 -181L1054 -179L1058 -181L1062 -180L1064 -183L1068 -181L1072 -187L1074 -186L1081 -189L1082 -192L1086 -191L1091 -193L1094 -192L1102 -194L1104 -198L1107 -200L1106 -202L1113 -204L1113 -206L1115 -207L1120 -207L1123 -205L1123 -213L1125 -215L1124 -218L1132 -215L1134 -216L1134 -214L1139 -216L1147 -214L1150 -217L1154 -213L1159 -217L1163 -216L1165 -219L1166 -218L1167 -223L1173 -221L1175 -227L1177 -228L1181 -226L1180 -227L1183 -228L1185 -231L1189 -231L1192 -239L1195 -238L1193 -247L1197 -249L1196 -258L1198 -257L1197 -265L1199 -266L1196 -268L1199 -268L1198 -271L1200 -280L1199 -282L1193 -284L1192 -288L1194 -290L1191 -292L1191 -294L1188 -295L1190 -297L1188 -298L1189 -300L1197 -303L1199 -308L1201 -306L1202 -308L1203 -307L1201 -312L1203 -315L1201 -319L1202 -323L1205 -324L1208 -333L1218 -349L1219 -354L1215 -356L1212 -355L1212 -357L1214 -358L1211 -361L1211 -365L1208 -371L1206 -372L1207 -374L1204 -378L1204 -381L1201 -382L1199 -385L1198 -384L1196 -386L1193 -386L1191 -393L1191 -396L1193 -398L1192 -405L1194 -406L1195 -410L1199 -410L1199 -413L1201 -413L1203 -417L1205 -416L1206 -419L1202 -424L1202 -430L1210 -436L1212 -436L1213 -438L1215 -438L1217 -433L1228 -435L1230 -441L1231 -440L1234 -443L1231 -445L1232 -449L1234 -450L1235 -458L1238 -462L1238 -464L1232 -466L1230 -481L1223 -481L1221 -482L1222 -483L1215 -485L1214 -484L1213 -489L1209 -490L1211 -492L1211 -496L1214 -493L1216 -494L1217 -496L1215 -500L1223 -501L1223 -503L1231 -504L1236 -507L1236 -509L1233 -512L1231 -510L1228 -511L1225 -515L1225 -525L1222 -527L1219 -534L1216 -532L1214 -526L1216 -524L1215 -521L1211 -521L1207 -517L1205 -517L1203 -520L1190 -509L1181 -508L1178 -514L1166 -511L1162 -509L1160 -502L1155 -499L1142 -507L1135 -505L1135 -502L1132 -499L1120 -477L1118 -466L1114 -467L1112 -465L1099 -469L1095 -466L1095 -461L1092 -458L1092 -455L1085 -455L1081 -453L1083 -452L1083 -450L1084 -451L1085 -448L1087 -448L1082 -434L1080 -432L1077 -432L1075 -429L1076 -421L1070 -409L1072 -402L1070 -402L1070 -399L1066 -398L1061 -390L1057 -389L1056 -384L1053 -383L1054 -370L1057 -368L1060 -361L1065 -358L1062 -356L1066 -354L1065 -342L1060 -340L1059 -337L1059 -335L1062 -335L1062 -331L1060 -331L1055 -321L1047 -315L1050 -313L1049 -309L1047 -308L1049 -307L1048 -301L1050 -301L1049 -300L1051 -299L1048 -296L1053 -291L1051 -267L1056 -245z"/></g></svg>