<svg xmlns="http://www.w3.org/2000/svg" pointer-events="none" class="leaflet-zoom-animated" width="1466" height="842" viewBox="414 -984 1466 842" style="transform: translate3d(414px, -984px, 0px);"><g><path class="leaflet-interactive" stroke="black" stroke-opacity="1" stroke-width="1" stroke-linecap="round" stroke-linejoin="round" fill="#fff" fill-opacity="0.2" fill-rule="evenodd" d="M1116 -488L1117 -482L1122 -477L1122 -474L1128 -466L1133 -463L1138 -467L1139 -472L1149 -477L1152 -481L1160 -483L1159 -490L1157 -493L1159 -497L1163 -499L1162 -504L1165 -507L1164 -508L1168 -514L1169 -519L1165 -519L1163 -515L1160 -516L1166 -522L1176 -528L1174 -539L1170 -547L1172 -548L1177 -546L1177 -542L1185 -531L1184 -529L1186 -529L1187 -522L1190 -519L1197 -526L1205 -525L1214 -529L1215 -531L1221 -529L1234 -535L1239 -533L1239 -531L1242 -528L1243 -521L1244 -519L1246 -519L1257 -525L1257 -527L1250 -532L1254 -540L1246 -540L1254 -544L1254 -547L1264 -553L1268 -551L1266 -546L1268 -533L1279 -534L1280 -529L1283 -529L1285 -538L1294 -546L1293 -547L1295 -551L1297 -553L1305 -555L1305 -553L1308 -552L1309 -557L1314 -556L1312 -555L1312 -552L1321 -552L1322 -547L1325 -543L1333 -544L1343 -540L1344 -542L1342 -543L1346 -550L1340 -550L1345 -559L1350 -561L1353 -561L1354 -559L1362 -555L1363 -549L1366 -548L1375 -555L1377 -554L1387 -559L1390 -556L1393 -557L1398 -560L1402 -566L1409 -569L1416 -566L1423 -568L1428 -567L1430 -573L1434 -576L1432 -580L1433 -587L1436 -589L1441 -589L1447 -595L1456 -595L1457 -597L1454 -598L1453 -605L1463 -621L1463 -626L1465 -627L1469 -624L1474 -624L1477 -628L1482 -627L1490 -630L1490 -637L1486 -639L1484 -638L1479 -643L1477 -643L1477 -649L1474 -654L1475 -657L1474 -659L1469 -660L1471 -662L1469 -665L1471 -667L1471 -673L1468 -674L1469 -675L1467 -677L1468 -679L1466 -680L1466 -682L1467 -686L1472 -691L1469 -695L1467 -695L1467 -701L1465 -702L1463 -708L1464 -710L1462 -713L1461 -712L1458 -718L1460 -720L1457 -723L1454 -723L1453 -727L1451 -728L1451 -732L1456 -739L1455 -741L1452 -741L1450 -739L1446 -740L1438 -737L1436 -739L1434 -736L1430 -734L1428 -735L1426 -745L1422 -745L1419 -749L1420 -750L1416 -754L1416 -756L1420 -757L1419 -759L1417 -759L1418 -761L1413 -759L1413 -756L1408 -753L1404 -753L1404 -756L1402 -756L1402 -758L1399 -761L1396 -758L1388 -758L1384 -764L1380 -763L1379 -765L1372 -767L1372 -760L1370 -760L1366 -764L1364 -763L1359 -748L1361 -744L1364 -742L1360 -740L1362 -740L1363 -736L1368 -730L1362 -730L1356 -727L1353 -728L1352 -734L1346 -736L1343 -735L1341 -738L1341 -742L1338 -744L1339 -745L1337 -745L1333 -750L1328 -753L1324 -751L1324 -747L1316 -749L1314 -746L1309 -745L1307 -744L1308 -743L1302 -740L1300 -740L1296 -744L1293 -741L1289 -741L1285 -738L1285 -740L1283 -740L1281 -736L1282 -734L1279 -730L1277 -734L1275 -733L1268 -735L1266 -734L1267 -730L1264 -726L1260 -732L1258 -730L1256 -731L1253 -727L1248 -729L1241 -723L1236 -723L1237 -725L1233 -732L1227 -731L1226 -735L1222 -738L1215 -738L1215 -742L1223 -743L1226 -747L1228 -747L1231 -750L1230 -751L1236 -761L1235 -765L1238 -771L1240 -771L1243 -774L1246 -773L1251 -781L1258 -781L1267 -787L1266 -790L1263 -790L1261 -793L1263 -793L1264 -796L1268 -797L1267 -801L1263 -806L1257 -806L1254 -812L1252 -812L1249 -815L1245 -811L1240 -812L1238 -807L1234 -805L1228 -807L1226 -802L1226 -804L1220 -803L1218 -805L1214 -805L1207 -801L1205 -802L1203 -799L1201 -802L1205 -805L1203 -806L1202 -811L1204 -812L1198 -814L1200 -817L1196 -819L1194 -817L1189 -817L1190 -815L1183 -807L1178 -807L1177 -810L1175 -808L1173 -810L1170 -807L1166 -807L1162 -804L1162 -807L1158 -810L1149 -810L1146 -814L1142 -814L1141 -818L1137 -818L1136 -825L1134 -823L1129 -825L1125 -821L1124 -823L1122 -823L1122 -820L1119 -818L1120 -815L1117 -815L1117 -813L1114 -812L1111 -808L1107 -809L1102 -806L1102 -804L1099 -805L1099 -807L1095 -807L1097 -798L1100 -797L1105 -799L1112 -794L1106 -790L1109 -782L1109 -779L1107 -777L1110 -768L1107 -765L1100 -766L1097 -763L1091 -762L1089 -763L1089 -767L1085 -769L1083 -781L1078 -785L1078 -787L1064 -787L1059 -789L1058 -792L1055 -788L1051 -793L1046 -791L1045 -789L1041 -789L1040 -792L1036 -792L1033 -786L1034 -784L1031 -779L1032 -776L1028 -770L1030 -767L1033 -766L1033 -760L1031 -757L1030 -758L1026 -756L1019 -746L1017 -747L1012 -742L1013 -738L1011 -736L1018 -727L1016 -721L1023 -712L1022 -705L1016 -699L1013 -699L1010 -697L1010 -695L1006 -696L1006 -684L1012 -672L1009 -668L1005 -668L1005 -665L1001 -665L1000 -662L1002 -657L1000 -654L990 -657L990 -655L987 -657L985 -655L983 -646L987 -645L983 -641L983 -637L977 -638L971 -636L971 -630L969 -625L966 -622L966 -620L963 -621L961 -614L962 -611L959 -607L961 -605L958 -601L960 -600L962 -595L961 -591L963 -590L960 -588L961 -583L962 -581L966 -581L966 -578L964 -577L960 -569L961 -568L958 -561L954 -559L953 -556L950 -553L948 -553L948 -551L945 -548L932 -548L932 -546L935 -544L932 -539L925 -539L923 -538L923 -536L917 -536L916 -533L911 -533L908 -530L908 -532L906 -533L904 -530L905 -526L903 -525L904 -522L900 -521L898 -523L898 -521L900 -519L900 -512L903 -511L907 -503L903 -503L901 -505L898 -500L894 -498L897 -494L893 -490L890 -492L890 -494L886 -495L882 -490L880 -490L875 -496L873 -496L873 -494L870 -492L867 -495L866 -494L865 -491L869 -488L869 -485L867 -485L867 -479L869 -476L868 -473L871 -471L869 -469L872 -466L871 -465L865 -465L862 -468L859 -464L848 -464L848 -466L846 -466L843 -462L834 -464L834 -462L830 -461L830 -450L828 -449L829 -447L826 -441L818 -441L818 -439L815 -443L813 -441L812 -436L815 -430L816 -422L827 -420L824 -413L813 -412L814 -400L805 -390L806 -384L804 -368L811 -350L812 -341L818 -339L819 -329L825 -327L826 -325L826 -322L825 -320L823 -320L823 -317L827 -314L828 -311L827 -303L829 -301L834 -305L838 -306L842 -306L846 -302L851 -302L855 -305L865 -305L870 -309L874 -309L877 -311L882 -320L885 -321L886 -325L878 -347L871 -347L873 -352L871 -360L866 -363L860 -362L855 -364L852 -367L851 -372L855 -383L857 -379L862 -387L868 -389L869 -391L871 -390L874 -396L877 -396L880 -399L892 -399L905 -413L920 -414L932 -422L952 -425L953 -424L951 -421L950 -422L950 -418L959 -423L962 -427L978 -427L982 -429L985 -428L988 -430L989 -435L996 -438L1002 -435L1000 -432L1005 -432L1012 -437L1013 -436L1020 -439L1020 -441L1013 -443L1013 -447L1023 -453L1033 -456L1035 -455L1035 -450L1038 -449L1039 -446L1044 -446L1055 -449L1057 -456L1063 -455L1066 -451L1076 -452L1090 -468L1093 -468L1099 -460L1103 -460L1108 -463L1113 -471L1111 -482L1116 -487zM1486 -619L1484 -622L1482 -620L1478 -621L1475 -617L1471 -620L1468 -616L1477 -614L1480 -615L1484 -613L1486 -614L1486 -619zM1088 -433L1092 -435L1090 -437L1092 -442L1091 -447L1096 -450L1097 -453L1089 -453L1088 -449L1083 -448L1082 -444L1089 -443L1084 -438L1086 -438L1086 -435L1088 -435L1087 -434zM1066 -435L1069 -435L1067 -436L1069 -438L1074 -437L1076 -440L1078 -439L1078 -441L1076 -442L1078 -448L1068 -443L1069 -442L1066 -439L1065 -435zM1259 -532L1260 -531L1258 -532zM1204 -484L1205 -485L1202 -486L1203 -485zM1221 -477L1229 -481L1227 -482L1221 -479L1220 -477zM1174 -476L1175 -477L1172 -478L1173 -476zM885 -386L888 -386L893 -398L883 -396L882 -398L875 -396L875 -394L882 -391L884 -386zM1057 -443L1058 -441L1060 -445L1058 -444zM883 -385L877 -384L873 -387L866 -385L863 -386L861 -381L855 -376L854 -372L864 -374L869 -377L877 -377L881 -373L881 -371L884 -370L886 -382L886 -384L884 -385zM1184 -476L1184 -475zM1200 -461L1202 -463L1200 -462zM1034 -431L1036 -431L1034 -432zM1183 -491L1182 -493L1181 -492zM1199 -480L1200 -480zM1257 -520L1259 -520L1257 -522L1256 -521zM1178 -472L1180 -475L1176 -474L1178 -472zM1203 -464L1205 -466L1203 -465zM1174 -468L1177 -470L1174 -471L1175 -469zM1192 -479L1194 -479L1193 -480zM1122 -459L1123 -461L1127 -462L1121 -463L1121 -460zM943 -414L943 -415zM1188 -487L1189 -487zM1183 -515L1182 -517L1180 -516L1182 -515zM1184 -487L1184 -491L1183 -487zM1217 -474L1220 -475L1219 -477L1216 -477L1216 -474zM1124 -471L1124 -471zM1214 -473L1215 -476L1211 -474L1213 -474zM1121 -468L1120 -465L1123 -468L1121 -468zM1079 -446L1080 -448L1079 -447zM1255 -542L1256 -541zM1169 -479L1170 -478L1170 -480zM1452 -356L1451 -353L1461 -352L1463 -347L1459 -342L1450 -340L1454 -337L1457 -337L1462 -339L1467 -346L1464 -355L1456 -356zM1171 -470L1173 -470L1172 -472L1171 -471zM1276 -526L1277 -526zM1030 -437L1031 -438zM1098 -436L1100 -437L1098 -438L1096 -436zM1111 -461L1113 -461L1113 -463L1111 -464L1109 -463L1110 -461zM1028 -440L1028 -441zM1077 -436L1077 -437zM1259 -542L1259 -541zM1191 -487L1189 -487zM1266 -532L1265 -533zM1173 -490L1174 -490zM1258 -518L1259 -519zM1071 -435L1072 -436L1070 -436zM872 -346L875 -347L874 -350L872 -348zM1300 -552L1300 -553zM1200 -478L1201 -479zM1449 -348L1447 -349zM1172 -486L1173 -485zM1079 -437L1078 -438zM894 -371L890 -373L885 -369L886 -365L891 -364L894 -370zM1307 -548L1308 -549zM886 -312L890 -317L889 -318L888 -315zM1211 -472L1213 -472L1212 -473zM874 -393L876 -392L874 -394zM1185 -526L1187 -525L1185 -526zM1090 -433L1092 -433L1090 -433zM1161 -496L1162 -496zM871 -388L874 -387L873 -389zM1376 -387L1377 -384L1381 -381L1387 -380L1388 -384L1386 -389L1377 -389zM1375 -376L1376 -372L1381 -370L1382 -373L1377 -378L1375 -377zM1185 -525L1186 -524L1185 -525z"/></g></svg>