<svg xmlns="http://www.w3.org/2000/svg" pointer-events="none" class="leaflet-zoom-animated" width="1466" height="842" viewBox="412 -961 1466 842" style="transform: translate3d(412px, -961px, 0px);"><g><path class="leaflet-interactive" stroke="black" stroke-opacity="1" stroke-width="1" stroke-linecap="round" stroke-linejoin="round" fill="#fff" fill-opacity="0.2" fill-rule="evenodd" d="M1282 -761L1276 -761L1274 -763L1276 -769L1279 -772L1277 -775L1276 -773L1272 -775L1271 -778L1266 -775L1263 -775L1262 -773L1259 -773L1258 -776L1256 -776L1254 -772L1249 -769L1251 -769L1252 -766L1248 -762L1248 -760L1243 -756L1243 -746L1239 -744L1234 -747L1231 -747L1231 -752L1228 -754L1230 -750L1226 -747L1224 -749L1226 -751L1223 -754L1220 -752L1211 -751L1211 -747L1207 -747L1203 -744L1203 -741L1208 -741L1211 -745L1213 -745L1213 -747L1215 -745L1216 -747L1220 -745L1215 -736L1217 -735L1217 -730L1220 -728L1219 -726L1216 -726L1215 -724L1208 -728L1203 -727L1200 -729L1195 -725L1193 -728L1194 -732L1192 -733L1193 -736L1184 -735L1184 -731L1183 -732L1181 -730L1181 -728L1184 -726L1179 -725L1177 -722L1179 -720L1178 -719L1177 -721L1175 -715L1178 -712L1178 -703L1175 -706L1175 -709L1166 -718L1164 -719L1161 -717L1157 -723L1150 -726L1149 -723L1143 -719L1144 -717L1142 -715L1142 -718L1139 -719L1136 -717L1136 -715L1137 -716L1139 -714L1138 -712L1135 -712L1136 -710L1134 -707L1134 -696L1132 -696L1132 -694L1129 -692L1122 -692L1115 -688L1110 -687L1107 -684L1100 -684L1102 -688L1102 -690L1099 -692L1100 -695L1099 -697L1094 -692L1094 -695L1091 -697L1090 -704L1088 -704L1086 -698L1084 -699L1084 -697L1081 -697L1077 -693L1074 -694L1074 -703L1071 -701L1068 -707L1069 -711L1066 -714L1063 -712L1059 -713L1058 -716L1061 -717L1060 -722L1051 -729L1052 -731L1050 -734L1043 -729L1036 -729L1037 -725L1031 -721L1030 -717L1027 -716L1029 -709L1032 -707L1032 -700L1029 -698L1030 -697L1022 -697L1020 -691L1009 -691L1006 -689L1000 -690L997 -688L997 -685L986 -678L980 -676L979 -674L967 -670L959 -671L956 -668L953 -668L958 -658L955 -648L953 -649L952 -646L945 -642L941 -636L938 -637L934 -645L927 -645L922 -642L913 -649L905 -650L904 -653L896 -652L893 -654L889 -664L884 -667L874 -665L871 -669L866 -672L863 -668L860 -669L860 -667L852 -660L850 -651L847 -649L839 -648L834 -640L827 -638L824 -634L818 -638L815 -638L808 -645L804 -643L803 -639L800 -636L798 -637L801 -637L803 -635L803 -631L810 -615L815 -612L813 -610L822 -604L823 -608L821 -613L823 -617L825 -616L826 -618L837 -616L842 -613L850 -616L858 -614L859 -609L861 -610L866 -606L863 -601L868 -594L870 -594L870 -590L867 -588L865 -589L865 -587L872 -578L875 -580L873 -582L877 -584L886 -576L892 -574L895 -576L894 -577L895 -582L897 -584L896 -585L904 -586L906 -585L907 -577L910 -576L912 -579L916 -578L918 -580L922 -578L920 -576L921 -575L925 -575L927 -578L930 -576L930 -582L932 -585L936 -583L939 -585L940 -582L942 -583L944 -581L944 -577L948 -574L953 -563L957 -560L955 -559L957 -556L952 -552L954 -545L950 -533L952 -530L946 -522L941 -520L939 -517L938 -522L934 -524L931 -523L929 -526L922 -523L922 -520L917 -519L916 -516L912 -513L907 -513L912 -509L910 -508L912 -506L909 -505L910 -507L907 -507L904 -504L902 -504L897 -498L896 -496L898 -491L900 -490L899 -482L900 -480L905 -479L907 -481L915 -478L916 -476L924 -472L928 -465L930 -465L929 -466L933 -468L939 -467L941 -472L947 -473L949 -471L958 -471L964 -464L963 -462L965 -460L972 -459L973 -461L985 -464L987 -468L992 -465L994 -466L999 -460L1002 -462L1005 -461L1004 -460L1008 -456L1010 -456L1009 -454L1014 -455L1016 -453L1009 -447L1009 -445L1011 -444L1005 -437L1006 -435L1004 -431L1000 -431L995 -434L993 -422L992 -420L991 -421L991 -416L993 -413L993 -411L991 -410L992 -408L999 -408L1001 -402L1003 -402L1002 -400L1004 -396L1003 -394L1001 -394L1005 -382L1001 -374L1003 -371L1008 -376L1011 -375L1013 -372L1023 -372L1024 -369L1027 -367L1032 -369L1036 -366L1036 -364L1031 -360L1031 -358L1047 -350L1050 -346L1053 -345L1055 -348L1058 -349L1064 -340L1064 -335L1066 -335L1073 -341L1075 -340L1075 -335L1079 -334L1084 -337L1085 -335L1096 -337L1104 -341L1107 -339L1111 -339L1111 -336L1115 -334L1117 -329L1126 -330L1131 -326L1138 -327L1139 -328L1136 -331L1142 -336L1144 -335L1143 -329L1140 -325L1142 -325L1152 -330L1165 -330L1170 -335L1173 -341L1177 -343L1183 -339L1183 -341L1185 -340L1185 -336L1183 -335L1186 -336L1186 -340L1189 -336L1192 -336L1194 -338L1196 -338L1197 -336L1202 -338L1207 -334L1218 -334L1222 -332L1224 -333L1226 -328L1224 -326L1219 -325L1216 -322L1216 -319L1227 -314L1235 -318L1241 -319L1257 -321L1261 -319L1268 -330L1270 -330L1273 -324L1280 -321L1284 -321L1280 -338L1283 -342L1285 -338L1286 -340L1289 -339L1296 -342L1295 -345L1298 -349L1298 -358L1302 -362L1304 -363L1311 -361L1316 -365L1316 -363L1320 -365L1327 -363L1330 -367L1333 -364L1339 -364L1339 -368L1337 -368L1339 -370L1336 -372L1335 -378L1335 -384L1337 -384L1337 -387L1333 -390L1335 -393L1338 -391L1342 -395L1348 -390L1347 -389L1351 -389L1354 -394L1361 -389L1363 -390L1365 -392L1362 -397L1366 -399L1369 -403L1375 -402L1371 -410L1368 -411L1368 -418L1366 -420L1366 -422L1368 -420L1372 -421L1371 -423L1373 -432L1376 -431L1376 -429L1379 -432L1385 -433L1385 -435L1391 -435L1392 -438L1400 -438L1400 -440L1403 -442L1400 -445L1400 -447L1413 -447L1416 -449L1416 -452L1421 -454L1424 -460L1427 -462L1429 -466L1428 -470L1431 -471L1430 -474L1434 -477L1434 -480L1429 -481L1429 -487L1431 -489L1429 -492L1430 -494L1428 -499L1426 -499L1429 -503L1427 -506L1430 -512L1429 -513L1431 -520L1434 -519L1437 -524L1439 -529L1439 -535L1445 -537L1450 -536L1451 -540L1455 -543L1451 -545L1454 -556L1457 -554L1460 -556L1462 -554L1467 -553L1470 -556L1468 -561L1469 -563L1473 -564L1472 -566L1477 -567L1480 -571L1474 -583L1474 -595L1480 -595L1481 -598L1484 -598L1489 -604L1491 -611L1489 -612L1488 -616L1485 -617L1484 -621L1486 -623L1486 -626L1480 -632L1479 -635L1481 -637L1480 -641L1482 -644L1488 -646L1485 -648L1474 -648L1474 -650L1469 -649L1466 -651L1459 -651L1453 -645L1452 -640L1449 -642L1445 -636L1443 -636L1439 -640L1434 -640L1438 -652L1435 -658L1435 -662L1437 -665L1434 -668L1437 -675L1434 -675L1432 -677L1434 -682L1431 -685L1429 -685L1428 -683L1424 -683L1419 -688L1410 -678L1404 -676L1403 -666L1397 -666L1393 -664L1394 -668L1390 -674L1390 -677L1395 -689L1405 -694L1404 -701L1409 -705L1411 -709L1417 -711L1422 -718L1426 -733L1423 -736L1422 -745L1431 -747L1432 -750L1435 -751L1433 -756L1434 -758L1439 -759L1437 -761L1436 -760L1436 -762L1429 -761L1429 -764L1427 -762L1426 -764L1421 -759L1418 -759L1412 -769L1415 -777L1419 -779L1417 -781L1419 -783L1419 -795L1421 -796L1420 -801L1416 -800L1413 -802L1414 -804L1404 -804L1402 -806L1398 -806L1397 -808L1395 -808L1393 -812L1389 -811L1389 -802L1387 -799L1388 -800L1385 -801L1373 -798L1370 -801L1372 -803L1371 -805L1369 -803L1367 -805L1360 -805L1360 -807L1357 -803L1354 -802L1351 -792L1349 -790L1347 -792L1338 -783L1334 -772L1327 -769L1326 -776L1322 -780L1319 -778L1318 -775L1314 -777L1313 -775L1309 -778L1313 -787L1311 -791L1306 -790L1305 -792L1302 -791L1300 -793L1295 -788L1292 -777L1285 -777L1284 -773L1288 -765L1287 -762L1283 -760zM857 -665L856 -664zM1220 -278L1222 -277L1222 -279L1224 -278L1226 -281L1224 -284L1220 -281zM1231 -268L1233 -268L1231 -269zM1198 -336L1198 -334L1200 -334z"/></g></svg>