<svg xmlns="http://www.w3.org/2000/svg" pointer-events="none" class="leaflet-zoom-animated" width="1466" height="896" viewBox="-1535 -173 1466 896" style="transform: translate3d(-1535px, -173px, 0px);"><g><path class="leaflet-interactive" stroke="black" stroke-opacity="1" stroke-width="1" stroke-linecap="round" stroke-linejoin="round" fill="#fff" fill-opacity="0.2" fill-rule="evenodd" d="M-1120 82L-1121 77L-1123 75L-1135 69L-1132 65L-1135 62L-1136 63L-1140 58L-1139 56L-1137 56L-1139 48L-1144 49L-1147 52L-1150 50L-1157 49L-1160 50L-1163 54L-1163 58L-1161 60L-1163 61L-1162 64L-1167 70L-1175 74L-1184 74L-1187 76L-1191 87L-1189 104L-1187 108L-1187 115L-1190 118L-1190 120L-1196 120L-1204 127L-1209 122L-1221 122L-1224 124L-1231 121L-1232 122L-1245 114L-1248 115L-1253 136L-1263 158L-1265 168L-1265 170L-1257 177L-1258 181L-1260 182L-1264 180L-1273 180L-1276 175L-1281 177L-1282 179L-1286 179L-1293 183L-1295 182L-1296 184L-1300 182L-1301 184L-1305 184L-1308 187L-1313 186L-1319 191L-1317 192L-1317 194L-1313 193L-1312 196L-1309 197L-1307 200L-1309 204L-1307 211L-1308 216L-1306 218L-1305 226L-1299 236L-1301 241L-1299 242L-1298 246L-1308 250L-1303 254L-1311 257L-1313 263L-1310 275L-1313 276L-1312 280L-1318 281L-1322 285L-1336 290L-1347 298L-1355 301L-1357 300L-1359 306L-1366 308L-1367 312L-1381 312L-1385 310L-1391 315L-1391 318L-1393 320L-1392 322L-1396 330L-1400 332L-1401 330L-1408 331L-1409 334L-1414 334L-1414 328L-1416 327L-1417 323L-1425 329L-1433 327L-1435 329L-1432 332L-1433 333L-1437 332L-1445 340L-1453 340L-1455 346L-1457 347L-1457 350L-1455 350L-1454 354L-1456 358L-1461 358L-1464 361L-1464 364L-1461 365L-1459 371L-1457 371L-1457 373L-1460 375L-1458 379L-1459 380L-1457 382L-1458 383L-1453 386L-1450 383L-1450 381L-1443 383L-1442 382L-1435 385L-1433 389L-1435 391L-1435 396L-1431 407L-1433 410L-1432 413L-1427 416L-1427 420L-1435 423L-1437 421L-1438 423L-1441 422L-1443 425L-1442 428L-1441 427L-1440 429L-1437 427L-1433 431L-1426 429L-1427 430L-1425 431L-1421 431L-1420 438L-1416 436L-1411 439L-1409 441L-1407 446L-1408 448L-1406 451L-1409 454L-1409 456L-1405 457L-1404 463L-1399 463L-1395 460L-1395 463L-1390 467L-1378 471L-1376 473L-1368 473L-1366 471L-1364 473L-1359 472L-1362 476L-1362 479L-1361 483L-1359 483L-1356 496L-1349 498L-1349 500L-1346 499L-1342 504L-1338 504L-1339 502L-1336 501L-1331 502L-1327 500L-1321 500L-1315 484L-1311 482L-1311 480L-1308 480L-1310 478L-1310 475L-1307 474L-1303 474L-1299 477L-1293 477L-1292 474L-1291 476L-1285 476L-1282 479L-1274 479L-1270 477L-1270 474L-1261 466L-1259 466L-1254 468L-1249 467L-1249 471L-1245 475L-1243 474L-1237 476L-1228 476L-1225 474L-1223 476L-1216 473L-1213 469L-1207 468L-1202 465L-1197 464L-1190 468L-1188 465L-1179 462L-1175 457L-1176 454L-1171 452L-1166 452L-1160 449L-1156 450L-1148 446L-1147 448L-1144 448L-1124 444L-1121 445L-1117 450L-1116 448L-1113 448L-1107 451L-1103 451L-1101 454L-1094 456L-1091 456L-1088 451L-1071 455L-1070 457L-1064 455L-1066 445L-1065 443L-1070 442L-1073 439L-1072 434L-1069 432L-1065 432L-1063 429L-1059 429L-1059 427L-1062 424L-1065 416L-1068 416L-1071 411L-1076 409L-1077 392L-1083 394L-1086 391L-1086 387L-1079 387L-1074 382L-1062 380L-1056 377L-1035 372L-1034 371L-1036 365L-1029 357L-1022 325L-1003 322L-1002 316L-998 309L-986 297L-981 296L-978 292L-972 289L-970 294L-968 295L-968 293L-964 289L-956 287L-950 282L-949 280L-951 277L-948 275L-952 272L-951 269L-953 269L-952 265L-944 260L-944 254L-954 244L-963 220L-968 219L-967 213L-965 211L-966 210L-975 212L-976 210L-981 209L-990 201L-992 201L-996 196L-1012 188L-1021 188L-1023 186L-1032 188L-1041 185L-1050 186L-1056 183L-1061 183L-1062 181L-1069 182L-1074 170L-1073 164L-1066 155L-1066 151L-1069 145L-1064 137L-1066 130L-1068 128L-1067 126L-1070 122L-1072 123L-1078 112L-1077 110L-1079 108L-1078 107L-1081 99L-1084 99L-1087 96L-1087 93L-1094 94L-1095 92L-1097 92L-1099 87L-1110 89L-1119 82z"/></g></svg>