<svg xmlns="http://www.w3.org/2000/svg" pointer-events="none" class="leaflet-zoom-animated" width="1466" height="842" viewBox="428 -1361 1466 842" style="transform: translate3d(428px, -1361px, 0px);"><g><path class="leaflet-interactive" stroke="black" stroke-opacity="1" stroke-width="1" stroke-linecap="round" stroke-linejoin="round" fill="#fff" fill-opacity="0.2" fill-rule="evenodd" d="M1290 -1004L1296 -1006L1297 -1009L1301 -1006L1301 -1004L1303 -1004L1305 -999L1304 -997L1312 -992L1314 -993L1316 -990L1320 -994L1321 -999L1328 -1005L1333 -1005L1333 -1007L1337 -1007L1340 -1010L1349 -1007L1349 -1011L1352 -1012L1353 -1016L1359 -1016L1369 -1020L1372 -1019L1375 -1030L1369 -1034L1384 -1043L1382 -1050L1380 -1052L1384 -1059L1381 -1062L1378 -1062L1380 -1062L1381 -1064L1378 -1068L1380 -1080L1376 -1084L1376 -1091L1373 -1095L1368 -1097L1365 -1106L1359 -1104L1358 -1105L1361 -1108L1356 -1113L1352 -1114L1352 -1116L1351 -1113L1351 -1115L1349 -1114L1349 -1117L1347 -1118L1348 -1121L1344 -1125L1345 -1130L1343 -1132L1344 -1136L1348 -1139L1347 -1144L1355 -1144L1357 -1146L1356 -1147L1360 -1150L1360 -1154L1352 -1159L1352 -1163L1354 -1165L1353 -1167L1342 -1174L1337 -1174L1331 -1171L1322 -1174L1320 -1172L1318 -1173L1314 -1171L1312 -1172L1310 -1178L1303 -1175L1300 -1176L1297 -1180L1298 -1182L1293 -1184L1291 -1187L1291 -1192L1287 -1196L1288 -1203L1282 -1199L1280 -1203L1275 -1200L1272 -1203L1272 -1210L1267 -1211L1261 -1208L1261 -1204L1256 -1201L1262 -1196L1259 -1193L1261 -1190L1258 -1187L1253 -1185L1249 -1186L1246 -1182L1238 -1178L1236 -1174L1233 -1173L1230 -1173L1230 -1176L1228 -1177L1224 -1173L1224 -1176L1221 -1177L1218 -1181L1220 -1184L1220 -1186L1218 -1186L1221 -1191L1226 -1195L1226 -1197L1230 -1197L1233 -1199L1241 -1213L1238 -1217L1235 -1216L1235 -1214L1234 -1218L1232 -1218L1227 -1225L1224 -1224L1219 -1227L1214 -1226L1212 -1224L1208 -1208L1202 -1208L1182 -1196L1178 -1201L1168 -1199L1166 -1196L1153 -1189L1144 -1192L1130 -1203L1114 -1202L1114 -1200L1111 -1199L1111 -1192L1101 -1182L1092 -1179L1092 -1182L1090 -1183L1088 -1182L1082 -1183L1079 -1186L1077 -1185L1077 -1183L1081 -1182L1079 -1177L1083 -1176L1081 -1172L1082 -1167L1075 -1169L1077 -1172L1076 -1173L1071 -1171L1068 -1174L1063 -1171L1063 -1169L1065 -1169L1064 -1166L1058 -1169L1055 -1164L1057 -1160L1060 -1162L1059 -1163L1061 -1165L1063 -1162L1061 -1161L1061 -1158L1056 -1155L1052 -1156L1046 -1152L1044 -1152L1042 -1156L1036 -1155L1024 -1148L1019 -1148L1017 -1150L1008 -1148L1004 -1152L1000 -1150L1000 -1140L998 -1138L997 -1139L990 -1136L982 -1136L980 -1130L972 -1124L972 -1112L974 -1108L977 -1109L979 -1103L981 -1105L982 -1104L982 -1099L984 -1097L988 -1098L989 -1096L991 -1096L989 -1092L991 -1090L990 -1085L988 -1082L989 -1073L984 -1068L996 -1060L992 -1055L994 -1055L997 -1051L1000 -1051L1000 -1044L993 -1038L993 -1036L992 -1037L988 -1034L986 -1029L978 -1029L976 -1027L981 -1017L979 -1015L973 -1015L973 -1013L969 -1010L967 -1009L964 -1011L963 -1009L960 -1009L954 -1004L952 -998L954 -996L955 -991L949 -984L946 -977L942 -974L938 -964L943 -960L939 -956L940 -952L943 -949L940 -947L942 -943L944 -944L947 -942L965 -947L963 -939L965 -938L963 -932L956 -922L956 -918L959 -918L960 -913L967 -904L970 -903L967 -898L967 -894L965 -894L962 -888L964 -874L971 -868L975 -869L982 -865L986 -865L983 -855L987 -855L984 -851L984 -847L983 -848L979 -844L981 -840L978 -835L979 -833L972 -826L972 -823L973 -822L978 -825L982 -825L982 -823L985 -823L989 -827L993 -828L994 -826L996 -827L998 -824L996 -823L996 -820L986 -816L986 -813L981 -814L979 -809L977 -808L979 -805L979 -795L974 -790L973 -784L969 -780L970 -772L972 -768L975 -766L976 -762L971 -752L972 -750L973 -751L977 -749L975 -747L978 -744L981 -744L979 -743L981 -742L979 -738L982 -737L980 -736L979 -732L980 -731L990 -737L994 -737L995 -735L1003 -736L1003 -734L1003 -736L1005 -737L1004 -739L1011 -737L1016 -740L1017 -744L1022 -743L1025 -747L1031 -744L1031 -742L1034 -739L1038 -737L1040 -738L1044 -733L1045 -729L1041 -728L1040 -725L1038 -725L1040 -722L1043 -722L1044 -719L1041 -716L1038 -716L1036 -713L1028 -713L1023 -706L1018 -705L1018 -703L1015 -703L1012 -697L1013 -693L1008 -687L1007 -680L1003 -679L1001 -675L992 -674L994 -671L992 -671L998 -669L999 -670L1005 -663L1008 -664L1011 -662L1014 -657L1013 -655L1014 -656L1016 -654L1025 -661L1030 -659L1033 -663L1035 -662L1037 -664L1039 -659L1041 -658L1044 -662L1043 -667L1048 -667L1052 -664L1054 -666L1055 -662L1057 -662L1060 -672L1062 -672L1062 -670L1066 -673L1070 -672L1073 -676L1078 -672L1083 -675L1085 -674L1084 -676L1090 -678L1093 -681L1100 -679L1101 -683L1105 -685L1118 -674L1118 -670L1120 -667L1127 -667L1130 -664L1130 -660L1133 -659L1139 -662L1144 -662L1144 -664L1137 -672L1141 -675L1138 -676L1138 -678L1136 -679L1140 -691L1139 -692L1140 -691L1141 -695L1145 -695L1146 -692L1150 -693L1148 -695L1149 -699L1147 -703L1151 -701L1151 -703L1147 -706L1151 -710L1151 -712L1147 -717L1148 -720L1145 -721L1145 -726L1147 -728L1148 -727L1152 -729L1154 -735L1155 -734L1159 -736L1158 -743L1159 -747L1161 -748L1159 -755L1162 -757L1162 -760L1164 -760L1164 -764L1162 -767L1164 -770L1165 -769L1164 -774L1169 -777L1168 -778L1170 -782L1174 -783L1174 -781L1175 -783L1175 -785L1171 -788L1170 -792L1175 -796L1182 -796L1183 -798L1186 -798L1188 -802L1192 -803L1192 -807L1203 -818L1201 -824L1198 -822L1194 -824L1194 -832L1206 -848L1209 -847L1209 -843L1212 -843L1214 -845L1214 -850L1217 -854L1214 -855L1208 -863L1210 -871L1205 -878L1209 -883L1208 -890L1220 -906L1228 -906L1228 -908L1233 -910L1244 -910L1247 -914L1254 -918L1256 -926L1258 -929L1262 -931L1265 -938L1262 -939L1263 -940L1259 -943L1259 -947L1262 -951L1257 -966L1255 -964L1251 -965L1251 -975L1255 -977L1258 -972L1260 -973L1260 -979L1263 -979L1265 -977L1268 -981L1274 -983L1275 -987L1277 -987L1277 -993L1275 -997L1277 -997L1279 -1000L1280 -996L1282 -996L1289 -1002zM1223 -1187L1222 -1188zM1223 -1187L1224 -1187z"/></g></svg>