<svg xmlns="http://www.w3.org/2000/svg" pointer-events="none" class="leaflet-zoom-animated" width="1466" height="842" viewBox="417 -984 1466 842" style="transform: translate3d(417px, -984px, 0px);"><g><path class="leaflet-interactive" stroke="black" stroke-opacity="1" stroke-width="1" stroke-linecap="round" stroke-linejoin="round" fill="#fff" fill-opacity="0.2" fill-rule="evenodd" d="M1081 -723L1078 -721L1070 -722L1065 -719L1064 -720L1063 -717L1059 -717L1060 -725L1056 -728L1059 -731L1060 -735L1051 -738L1054 -743L1052 -745L1053 -747L1045 -747L1040 -750L1035 -749L1035 -746L1025 -747L1026 -732L1015 -736L1013 -730L1008 -729L1007 -726L1004 -726L1002 -728L997 -727L989 -735L989 -738L985 -740L983 -738L978 -737L980 -735L977 -734L978 -731L976 -730L977 -728L975 -728L975 -725L968 -723L965 -733L965 -740L962 -747L960 -746L958 -748L959 -754L955 -759L950 -760L948 -763L948 -765L950 -765L950 -768L946 -768L946 -770L950 -771L946 -771L946 -774L941 -776L940 -778L936 -778L936 -782L936 -778L934 -778L935 -782L933 -783L933 -776L919 -779L917 -777L905 -774L903 -775L899 -769L898 -759L895 -758L895 -755L897 -753L895 -747L901 -747L901 -745L905 -743L906 -738L915 -732L916 -730L913 -729L929 -727L937 -718L942 -720L950 -718L950 -707L955 -702L957 -702L955 -694L964 -689L964 -686L966 -686L966 -684L976 -682L978 -684L981 -683L985 -685L987 -683L986 -682L992 -678L999 -682L1001 -681L1005 -673L1009 -676L1009 -679L1014 -674L1014 -668L1017 -663L1022 -663L1021 -652L1018 -647L1021 -644L1025 -646L1035 -645L1034 -646L1038 -646L1040 -649L1046 -647L1050 -650L1054 -650L1057 -647L1060 -647L1058 -646L1059 -638L1054 -633L1053 -618L1049 -620L1046 -616L1046 -607L1044 -604L1041 -604L1043 -602L1041 -596L1038 -595L1038 -592L1039 -590L1042 -591L1042 -588L1047 -581L1057 -584L1060 -590L1063 -588L1064 -576L1062 -576L1065 -573L1067 -564L1072 -562L1065 -558L1065 -553L1066 -550L1070 -551L1072 -546L1070 -544L1073 -540L1077 -541L1077 -537L1081 -535L1085 -538L1085 -536L1099 -536L1100 -538L1110 -536L1112 -538L1111 -550L1118 -550L1118 -556L1120 -556L1120 -560L1124 -562L1129 -559L1134 -562L1137 -561L1136 -556L1139 -556L1140 -552L1144 -547L1152 -546L1154 -538L1155 -520L1152 -520L1152 -523L1149 -519L1150 -517L1148 -511L1142 -507L1138 -514L1134 -512L1129 -517L1124 -518L1126 -521L1121 -519L1119 -523L1115 -521L1114 -523L1110 -522L1110 -524L1101 -520L1100 -522L1095 -521L1095 -519L1099 -516L1100 -513L1098 -510L1101 -508L1107 -508L1105 -501L1108 -495L1106 -494L1107 -492L1104 -491L1104 -483L1101 -480L1094 -480L1091 -478L1090 -479L1090 -473L1079 -465L1080 -460L1077 -451L1087 -445L1087 -442L1090 -441L1088 -434L1092 -433L1094 -429L1099 -432L1103 -431L1103 -429L1107 -427L1102 -421L1106 -419L1109 -420L1109 -418L1113 -424L1116 -422L1115 -421L1117 -417L1119 -419L1123 -416L1123 -396L1119 -392L1113 -390L1113 -393L1112 -392L1109 -383L1108 -384L1110 -381L1113 -381L1116 -376L1144 -376L1144 -378L1149 -383L1153 -383L1153 -380L1154 -381L1159 -378L1163 -380L1165 -379L1167 -383L1168 -372L1169 -371L1171 -373L1171 -370L1173 -371L1177 -368L1183 -368L1187 -365L1187 -363L1189 -363L1196 -369L1199 -368L1202 -370L1206 -370L1210 -368L1210 -370L1215 -368L1218 -370L1226 -354L1238 -345L1254 -344L1259 -346L1259 -339L1264 -341L1264 -343L1266 -341L1266 -336L1268 -334L1267 -332L1270 -326L1272 -326L1277 -334L1283 -336L1285 -335L1288 -339L1289 -337L1291 -339L1291 -343L1288 -347L1289 -348L1294 -347L1296 -351L1299 -352L1303 -350L1308 -353L1308 -360L1304 -363L1306 -366L1315 -365L1324 -368L1322 -380L1324 -380L1324 -382L1331 -382L1328 -385L1329 -388L1327 -388L1327 -390L1330 -392L1330 -396L1332 -397L1330 -398L1338 -402L1338 -404L1339 -402L1348 -406L1351 -410L1330 -432L1327 -432L1337 -442L1341 -444L1346 -444L1352 -440L1356 -433L1366 -430L1371 -426L1405 -417L1405 -428L1398 -442L1395 -453L1386 -465L1366 -471L1366 -474L1358 -477L1362 -481L1362 -486L1357 -490L1357 -498L1355 -505L1352 -508L1341 -510L1331 -515L1328 -519L1313 -524L1315 -529L1313 -532L1309 -534L1314 -540L1315 -551L1312 -557L1311 -567L1305 -571L1302 -589L1303 -590L1300 -592L1301 -597L1300 -599L1296 -599L1293 -603L1288 -623L1281 -634L1272 -657L1264 -672L1259 -685L1254 -703L1254 -708L1230 -722L1222 -726L1210 -728L1206 -732L1188 -741L1186 -745L1177 -750L1179 -754L1182 -755L1181 -756L1176 -758L1169 -758L1180 -759L1176 -760L1175 -762L1175 -760L1164 -760L1157 -763L1154 -767L1155 -768L1153 -773L1156 -790L1160 -794L1161 -789L1163 -789L1161 -793L1162 -796L1160 -799L1150 -798L1147 -796L1146 -792L1135 -792L1122 -789L1122 -779L1119 -776L1117 -769L1114 -768L1114 -763L1111 -763L1109 -759L1111 -756L1113 -757L1115 -755L1106 -750L1104 -752L1101 -751L1098 -754L1091 -754L1091 -752L1088 -749L1086 -750L1087 -745L1085 -743L1084 -744L1082 -741L1084 -733L1082 -727zM1122 -407L1122 -405zM1353 -515L1356 -515z"/></g></svg>