<svg xmlns="http://www.w3.org/2000/svg" pointer-events="none" class="leaflet-zoom-animated" width="1466" height="842" viewBox="419 -1000 1466 842" style="transform: translate3d(419px, -1000px, 0px);"><g><path class="leaflet-interactive" stroke="black" stroke-opacity="1" stroke-width="1" stroke-linecap="round" stroke-linejoin="round" fill="#fff" fill-opacity="0.2" fill-rule="evenodd" d="M924 -541L926 -531L923 -527L926 -521L926 -517L923 -515L923 -506L928 -502L928 -497L930 -500L932 -500L935 -497L935 -495L940 -493L941 -489L937 -486L937 -484L944 -485L947 -481L948 -477L946 -474L946 -468L947 -467L949 -470L950 -465L958 -461L962 -453L966 -455L967 -454L965 -450L964 -452L964 -450L963 -451L966 -450L966 -448L970 -445L974 -437L976 -436L981 -441L982 -437L988 -437L997 -430L1002 -429L1002 -427L1004 -426L1010 -428L1012 -423L1015 -421L1020 -423L1020 -420L1024 -416L1029 -413L1028 -416L1030 -416L1031 -414L1035 -414L1044 -407L1045 -410L1048 -412L1055 -409L1056 -412L1063 -413L1064 -415L1079 -410L1081 -412L1081 -410L1083 -409L1093 -415L1095 -413L1101 -414L1103 -412L1105 -413L1104 -415L1108 -418L1115 -415L1116 -413L1119 -413L1121 -417L1125 -419L1136 -408L1134 -407L1137 -404L1144 -401L1154 -408L1156 -405L1157 -409L1161 -410L1160 -411L1162 -411L1166 -418L1170 -416L1171 -417L1174 -413L1173 -412L1176 -411L1174 -409L1176 -402L1173 -400L1173 -398L1174 -395L1177 -393L1174 -385L1171 -385L1172 -381L1178 -376L1175 -370L1180 -369L1179 -365L1184 -355L1187 -356L1189 -359L1192 -357L1192 -350L1196 -345L1198 -348L1200 -347L1204 -349L1209 -355L1212 -356L1217 -354L1218 -355L1223 -347L1232 -344L1243 -344L1243 -347L1245 -345L1249 -347L1250 -340L1246 -332L1249 -324L1253 -328L1260 -324L1260 -321L1267 -321L1267 -319L1272 -315L1277 -315L1281 -317L1282 -315L1284 -318L1286 -316L1288 -317L1290 -322L1291 -320L1296 -320L1298 -322L1297 -325L1299 -329L1303 -330L1306 -325L1309 -325L1307 -320L1307 -313L1311 -310L1310 -307L1313 -308L1315 -306L1322 -309L1323 -313L1321 -318L1325 -321L1332 -332L1331 -334L1336 -340L1338 -339L1349 -348L1368 -348L1371 -352L1369 -358L1372 -371L1371 -377L1373 -379L1373 -392L1370 -403L1368 -417L1369 -418L1366 -422L1368 -425L1365 -426L1367 -431L1372 -433L1369 -434L1364 -426L1359 -423L1358 -427L1355 -423L1351 -425L1348 -416L1347 -418L1345 -416L1343 -418L1339 -415L1339 -417L1334 -421L1332 -426L1328 -429L1328 -431L1325 -431L1325 -434L1317 -432L1315 -432L1316 -434L1314 -436L1312 -434L1310 -436L1308 -434L1308 -436L1305 -437L1307 -438L1305 -440L1308 -443L1306 -443L1305 -446L1304 -444L1304 -456L1307 -457L1305 -459L1306 -463L1305 -465L1302 -465L1300 -469L1290 -470L1291 -473L1288 -474L1282 -473L1282 -475L1277 -478L1279 -480L1278 -482L1282 -483L1280 -489L1278 -489L1279 -495L1281 -495L1282 -497L1287 -493L1287 -491L1291 -489L1302 -489L1305 -493L1307 -492L1310 -495L1315 -495L1314 -499L1319 -508L1318 -511L1319 -513L1320 -512L1321 -517L1319 -517L1319 -519L1316 -520L1318 -524L1316 -526L1316 -529L1318 -529L1320 -533L1319 -535L1321 -537L1324 -535L1326 -541L1333 -542L1334 -540L1339 -543L1346 -544L1342 -552L1342 -560L1339 -563L1339 -565L1343 -565L1345 -575L1339 -575L1337 -577L1339 -579L1339 -583L1343 -591L1342 -592L1346 -593L1347 -596L1348 -595L1355 -598L1358 -596L1359 -597L1367 -590L1368 -593L1370 -590L1375 -590L1379 -585L1377 -578L1384 -574L1385 -565L1388 -565L1393 -557L1400 -560L1401 -559L1410 -565L1414 -565L1416 -568L1418 -568L1418 -572L1420 -572L1420 -574L1424 -574L1426 -576L1428 -575L1430 -579L1436 -577L1438 -585L1434 -589L1434 -592L1427 -603L1427 -606L1430 -608L1430 -610L1428 -611L1428 -616L1432 -619L1425 -622L1421 -619L1419 -620L1420 -621L1416 -619L1414 -620L1412 -618L1412 -624L1402 -631L1398 -631L1397 -635L1393 -640L1397 -645L1397 -653L1393 -650L1390 -652L1388 -656L1382 -655L1378 -657L1376 -653L1363 -651L1352 -655L1350 -650L1344 -653L1336 -652L1334 -653L1328 -664L1326 -678L1323 -681L1316 -684L1311 -682L1309 -686L1311 -689L1306 -690L1308 -694L1307 -695L1303 -695L1299 -698L1300 -700L1294 -700L1290 -697L1283 -699L1281 -696L1277 -700L1277 -702L1275 -700L1272 -701L1274 -703L1271 -705L1272 -708L1277 -711L1276 -714L1273 -716L1274 -719L1276 -721L1281 -721L1281 -727L1285 -730L1291 -741L1294 -741L1296 -743L1296 -746L1298 -746L1298 -744L1300 -747L1309 -747L1316 -753L1320 -754L1319 -761L1325 -767L1325 -769L1328 -771L1334 -781L1341 -781L1351 -784L1351 -788L1352 -790L1353 -789L1354 -793L1358 -795L1366 -795L1366 -797L1367 -796L1367 -801L1370 -803L1371 -807L1377 -809L1382 -807L1388 -824L1384 -823L1380 -818L1372 -814L1366 -812L1362 -813L1357 -808L1351 -808L1346 -802L1341 -803L1329 -797L1325 -790L1321 -788L1318 -789L1321 -800L1320 -806L1324 -811L1328 -812L1329 -821L1330 -820L1332 -826L1330 -831L1326 -827L1324 -829L1321 -823L1317 -821L1310 -833L1306 -835L1303 -833L1299 -835L1297 -831L1294 -832L1292 -830L1292 -824L1287 -819L1283 -819L1280 -817L1280 -827L1276 -828L1272 -825L1267 -826L1263 -829L1262 -827L1261 -828L1256 -827L1254 -825L1250 -825L1248 -829L1247 -828L1245 -831L1240 -831L1239 -834L1236 -834L1234 -837L1230 -837L1228 -840L1218 -840L1217 -842L1215 -839L1213 -839L1212 -842L1211 -841L1208 -843L1202 -843L1200 -845L1202 -849L1199 -848L1198 -851L1197 -850L1195 -852L1196 -847L1192 -852L1193 -849L1188 -847L1186 -851L1183 -851L1183 -849L1181 -849L1174 -853L1172 -850L1173 -848L1170 -845L1170 -838L1167 -837L1167 -835L1168 -836L1170 -834L1168 -834L1169 -832L1165 -831L1168 -828L1170 -828L1169 -825L1165 -826L1168 -820L1166 -815L1169 -814L1167 -813L1169 -811L1165 -811L1163 -809L1165 -804L1164 -795L1166 -793L1159 -792L1159 -790L1161 -789L1159 -788L1159 -781L1162 -775L1162 -770L1159 -770L1156 -773L1155 -772L1156 -769L1152 -763L1152 -758L1146 -756L1143 -757L1137 -752L1132 -752L1135 -751L1133 -751L1133 -747L1128 -750L1124 -750L1122 -747L1123 -746L1120 -745L1121 -744L1117 -737L1105 -740L1105 -733L1102 -732L1099 -728L1089 -728L1084 -722L1081 -723L1079 -720L1079 -724L1074 -727L1074 -729L1073 -727L1072 -729L1071 -728L1071 -724L1066 -723L1063 -725L1061 -724L1051 -727L1048 -724L1042 -724L1042 -728L1034 -726L1034 -728L1027 -730L1025 -729L1021 -731L1019 -730L1021 -729L1022 -724L1018 -722L1021 -717L1020 -706L1019 -705L1016 -707L1012 -707L1010 -709L998 -707L996 -703L993 -701L984 -698L986 -694L982 -693L975 -682L972 -683L967 -680L964 -682L959 -679L955 -681L950 -678L947 -680L944 -676L943 -678L939 -679L937 -678L935 -673L927 -671L921 -667L918 -670L916 -670L914 -661L908 -657L905 -661L902 -661L897 -656L888 -656L881 -653L877 -657L871 -654L867 -655L866 -652L869 -651L865 -647L866 -644L870 -636L872 -634L876 -634L878 -627L878 -624L876 -625L871 -620L873 -617L872 -616L877 -615L879 -613L883 -613L883 -610L889 -609L891 -607L886 -600L886 -593L890 -592L892 -586L894 -586L894 -583L886 -578L888 -573L893 -573L897 -571L900 -567L904 -567L904 -565L907 -562L907 -556L909 -552L911 -552L912 -549L918 -548L924 -543zM927 -499L926 -501L925 -499zM1334 -800L1334 -802L1332 -801L1333 -800zM1175 -403L1176 -405L1173 -403L1174 -401L1175 -404zM1081 -410L1080 -411z"/></g></svg>