<svg xmlns="http://www.w3.org/2000/svg" pointer-events="none" class="leaflet-zoom-animated" width="1466" height="842" viewBox="-1530 -990 1466 842" style="transform: translate3d(-1530px, -990px, 0px);"><g><path class="leaflet-interactive" stroke="black" stroke-opacity="1" stroke-width="1" stroke-linecap="round" stroke-linejoin="round" fill="#fff" fill-opacity="0.2" fill-rule="evenodd" d="M-811 -661L-809 -658L-807 -658L-807 -663L-801 -663L-799 -665L-799 -668L-796 -665L-797 -662L-791 -655L-789 -655L-783 -646L-777 -647L-769 -644L-759 -644L-759 -642L-761 -643L-765 -638L-770 -638L-770 -635L-773 -634L-770 -631L-772 -627L-769 -622L-767 -622L-767 -619L-757 -618L-752 -611L-753 -610L-750 -610L-748 -608L-748 -605L-746 -605L-747 -602L-750 -604L-758 -604L-757 -603L-759 -599L-757 -595L-757 -590L-752 -585L-754 -581L-752 -579L-751 -580L-750 -577L-747 -581L-740 -579L-741 -573L-743 -572L-743 -568L-746 -567L-743 -567L-744 -565L-738 -564L-734 -560L-735 -557L-733 -558L-731 -556L-726 -547L-720 -546L-720 -544L-714 -540L-712 -540L-709 -544L-711 -545L-712 -551L-710 -552L-710 -554L-708 -555L-702 -553L-693 -556L-696 -554L-696 -552L-690 -556L-683 -565L-679 -567L-677 -570L-679 -575L-675 -588L-667 -594L-666 -599L-663 -598L-662 -600L-655 -601L-653 -604L-653 -602L-651 -602L-653 -605L-652 -606L-657 -608L-657 -617L-659 -616L-661 -619L-663 -618L-662 -621L-664 -624L-664 -631L-666 -634L-665 -637L-680 -637L-681 -640L-684 -640L-685 -642L-683 -643L-683 -645L-689 -644L-693 -647L-693 -649L-696 -649L-695 -651L-698 -652L-696 -662L-691 -662L-690 -664L-694 -666L-693 -669L-688 -669L-687 -672L-683 -675L-684 -677L-680 -681L-680 -683L-682 -683L-682 -681L-691 -683L-696 -682L-698 -687L-702 -686L-702 -684L-713 -686L-719 -683L-721 -685L-720 -688L-724 -693L-722 -695L-723 -698L-727 -700L-727 -704L-730 -706L-731 -709L-729 -714L-727 -714L-724 -710L-723 -711L-721 -717L-724 -720L-722 -724L-725 -726L-723 -728L-725 -731L-727 -730L-727 -727L-731 -728L-730 -730L-733 -732L-732 -736L-738 -739L-734 -743L-736 -745L-736 -749L-746 -761L-746 -763L-750 -761L-761 -762L-762 -759L-765 -757L-763 -756L-764 -753L-770 -755L-778 -755L-779 -753L-786 -750L-786 -739L-787 -737L-792 -737L-787 -731L-788 -726L-791 -724L-799 -721L-803 -721L-805 -724L-808 -721L-810 -721L-809 -724L-811 -726L-817 -721L-819 -717L-823 -716L-823 -711L-827 -711L-832 -722L-836 -721L-846 -713L-859 -706L-856 -701L-859 -700L-860 -702L-861 -699L-864 -699L-864 -701L-867 -702L-879 -700L-879 -713L-876 -716L-876 -722L-880 -728L-881 -734L-883 -734L-884 -732L-895 -732L-898 -727L-895 -723L-900 -721L-902 -722L-910 -711L-907 -702L-909 -699L-908 -695L-914 -697L-920 -695L-925 -689L-921 -688L-923 -683L-920 -679L-919 -681L-918 -679L-919 -676L-927 -670L-918 -660L-916 -660L-917 -654L-909 -642L-906 -640L-905 -636L-907 -633L-905 -631L-906 -630L-904 -626L-898 -627L-897 -625L-895 -625L-895 -622L-897 -620L-907 -618L-908 -616L-916 -615L-914 -611L-915 -609L-917 -608L-919 -611L-920 -607L-923 -605L-918 -604L-917 -599L-916 -600L-911 -598L-909 -600L-908 -598L-910 -597L-901 -596L-899 -581L-895 -579L-893 -580L-893 -578L-900 -560L-897 -559L-897 -557L-900 -555L-901 -556L-903 -550L-913 -548L-916 -553L-918 -553L-928 -545L-929 -539L-925 -535L-926 -531L-928 -532L-929 -529L-931 -529L-932 -526L-936 -525L-937 -521L-939 -520L-938 -514L-940 -509L-937 -500L-932 -500L-931 -497L-926 -496L-927 -494L-924 -490L-925 -487L-923 -486L-920 -480L-920 -476L-918 -476L-917 -474L-919 -470L-916 -471L-912 -469L-918 -455L-923 -448L-926 -439L-929 -439L-930 -434L-928 -430L-930 -427L-928 -422L-929 -423L-930 -421L-932 -423L-934 -419L-933 -418L-943 -414L-941 -413L-943 -410L-940 -409L-940 -407L-937 -405L-939 -401L-932 -397L-931 -393L-924 -393L-922 -391L-920 -393L-920 -391L-919 -393L-917 -393L-918 -392L-916 -392L-917 -390L-915 -388L-903 -388L-903 -386L-894 -383L-891 -380L-885 -382L-884 -380L-881 -380L-879 -382L-877 -381L-877 -376L-873 -377L-871 -382L-868 -383L-867 -385L-862 -384L-859 -378L-856 -379L-853 -383L-852 -382L-852 -389L-857 -391L-856 -393L-860 -397L-859 -398L-861 -401L-853 -414L-850 -417L-849 -416L-849 -418L-844 -418L-840 -425L-839 -424L-837 -428L-838 -429L-834 -433L-832 -442L-829 -444L-829 -449L-820 -452L-817 -451L-815 -453L-817 -457L-815 -457L-815 -460L-812 -463L-808 -457L-791 -478L-762 -479L-757 -490L-749 -493L-744 -502L-739 -507L-740 -510L-746 -508L-747 -509L-749 -514L-753 -517L-751 -518L-753 -519L-753 -524L-771 -519L-770 -522L-772 -524L-778 -521L-780 -528L-788 -527L-788 -531L-794 -531L-795 -544L-792 -549L-789 -548L-786 -552L-789 -558L-787 -565L-789 -565L-790 -567L-788 -571L-792 -573L-790 -574L-792 -578L-791 -582L-796 -582L-795 -580L-802 -582L-808 -575L-809 -576L-809 -574L-807 -574L-808 -571L-816 -575L-819 -580L-829 -580L-830 -578L-831 -581L-836 -575L-839 -576L-843 -582L-847 -580L-848 -582L-850 -580L-849 -582L-851 -585L-851 -589L-853 -590L-847 -593L-850 -595L-849 -597L-851 -600L-853 -602L-854 -601L-853 -606L-848 -610L-839 -613L-838 -615L-837 -613L-835 -613L-831 -620L-829 -620L-838 -631L-838 -634L-840 -634L-839 -637L-832 -641L-827 -639L-821 -644L-816 -652L-814 -650L-807 -650L-812 -659zM-773 -609L-780 -608L-781 -606L-785 -608L-793 -605L-792 -598L-786 -595L-784 -592L-787 -590L-786 -588L-788 -588L-787 -586L-784 -587L-784 -583L-775 -583L-775 -589L-773 -590L-775 -594L-771 -595L-775 -597L-776 -600L-773 -604L-774 -608L-772 -608zM-746 -568L-752 -568L-752 -570L-755 -570L-758 -567L-758 -565L-755 -566L-752 -564L-752 -566L-748 -566zM-708 -549L-708 -549zM-697 -554L-699 -551L-697 -552zM-698 -554L-700 -553L-698 -553z"/></g></svg>