<svg xmlns="http://www.w3.org/2000/svg" pointer-events="none" class="leaflet-zoom-animated" width="1466" height="842" viewBox="416 -984 1466 842" style="transform: translate3d(416px, -984px, 0px);"><g><path class="leaflet-interactive" stroke="black" stroke-opacity="1" stroke-width="1" stroke-linecap="round" stroke-linejoin="round" fill="#fff" fill-opacity="0.2" fill-rule="evenodd" d="M959 -594L957 -596L956 -588L947 -588L947 -580L944 -579L944 -576L942 -574L935 -574L934 -567L931 -566L930 -562L932 -560L931 -555L935 -552L934 -548L936 -547L936 -545L938 -545L937 -543L939 -546L940 -542L945 -542L946 -539L948 -539L945 -535L946 -534L951 -536L956 -526L961 -525L963 -522L963 -513L967 -511L967 -506L965 -502L967 -492L965 -492L968 -492L969 -490L972 -489L970 -488L967 -482L971 -476L970 -474L972 -475L967 -470L968 -468L972 -465L973 -469L976 -468L978 -470L981 -470L982 -467L984 -467L986 -469L988 -468L991 -473L993 -473L996 -467L1002 -464L997 -458L1001 -456L1001 -453L995 -450L993 -445L994 -438L996 -435L1002 -432L1005 -421L1004 -419L1010 -410L1008 -410L1007 -408L1011 -401L1009 -394L1006 -392L1009 -387L1015 -384L1018 -387L1017 -389L1021 -389L1022 -387L1027 -385L1029 -387L1031 -386L1029 -385L1032 -381L1043 -381L1045 -385L1050 -388L1051 -392L1057 -393L1058 -390L1062 -393L1064 -405L1068 -405L1068 -407L1074 -407L1078 -404L1076 -398L1080 -397L1079 -393L1082 -393L1083 -391L1083 -385L1081 -382L1090 -372L1089 -369L1093 -368L1096 -371L1104 -370L1104 -372L1110 -377L1114 -373L1122 -381L1134 -382L1133 -380L1135 -378L1137 -378L1138 -380L1140 -378L1141 -379L1142 -372L1144 -372L1149 -364L1146 -363L1149 -354L1157 -352L1162 -361L1162 -363L1160 -364L1162 -370L1171 -375L1171 -381L1174 -387L1172 -388L1167 -397L1171 -400L1173 -407L1180 -413L1180 -417L1186 -416L1195 -430L1203 -424L1210 -421L1215 -422L1213 -420L1214 -419L1219 -423L1218 -428L1215 -429L1216 -431L1206 -430L1200 -435L1206 -451L1211 -455L1214 -444L1224 -444L1228 -447L1229 -452L1231 -454L1234 -454L1237 -461L1242 -466L1245 -472L1249 -472L1253 -469L1253 -467L1258 -466L1260 -469L1259 -471L1262 -475L1259 -476L1259 -478L1264 -483L1261 -487L1262 -489L1258 -499L1254 -501L1250 -508L1263 -513L1265 -526L1264 -529L1261 -531L1270 -529L1271 -534L1265 -543L1266 -547L1261 -550L1261 -555L1256 -562L1266 -557L1269 -558L1271 -562L1273 -555L1275 -556L1277 -553L1281 -555L1283 -551L1285 -552L1287 -549L1289 -550L1291 -560L1287 -563L1290 -567L1289 -570L1292 -572L1286 -575L1288 -579L1286 -583L1291 -591L1289 -597L1290 -603L1292 -605L1289 -611L1283 -612L1280 -610L1277 -612L1285 -622L1292 -624L1296 -630L1305 -636L1302 -639L1300 -639L1299 -637L1293 -637L1292 -641L1289 -644L1287 -644L1284 -640L1272 -648L1267 -648L1264 -650L1257 -658L1255 -664L1246 -676L1237 -684L1235 -688L1231 -691L1221 -691L1209 -703L1206 -708L1214 -712L1216 -715L1221 -716L1224 -720L1226 -720L1225 -725L1221 -731L1217 -730L1211 -732L1213 -736L1211 -739L1206 -738L1204 -736L1202 -737L1200 -735L1203 -741L1200 -744L1200 -756L1197 -756L1196 -758L1195 -755L1191 -756L1188 -753L1184 -755L1180 -754L1178 -750L1172 -750L1175 -746L1175 -742L1173 -740L1172 -742L1169 -738L1163 -739L1157 -730L1154 -729L1148 -747L1148 -744L1143 -742L1143 -749L1138 -747L1123 -748L1110 -757L1109 -761L1107 -762L1102 -772L1099 -771L1094 -773L1094 -771L1092 -770L1090 -773L1087 -773L1083 -771L1080 -772L1075 -768L1078 -766L1076 -764L1076 -756L1072 -752L1069 -743L1071 -736L1069 -736L1065 -730L1062 -730L1063 -723L1058 -717L1056 -717L1054 -721L1049 -718L1047 -714L1040 -713L1043 -710L1040 -706L1043 -703L1047 -705L1049 -704L1049 -696L1051 -693L1050 -692L1052 -691L1052 -689L1055 -688L1050 -685L1050 -687L1048 -688L1043 -684L1041 -685L1039 -679L1027 -683L1024 -681L1019 -683L1015 -687L1008 -682L1010 -672L1012 -671L1011 -668L1005 -666L1006 -664L1009 -664L1007 -661L1007 -656L1010 -652L1009 -642L1005 -643L1005 -638L999 -632L997 -633L997 -630L995 -629L995 -621L993 -618L991 -618L987 -611L980 -611L973 -604L973 -598L963 -597L960 -594zM1315 -656L1319 -657L1317 -660L1309 -660L1302 -665L1296 -664L1288 -668L1286 -666L1294 -648L1307 -648L1314 -645L1317 -642L1323 -646L1323 -650L1318 -656L1316 -655zM1349 -735L1348 -736zM1305 -669L1305 -664L1307 -663L1312 -669L1307 -670zM1311 -618L1314 -615L1317 -615L1311 -619zM1331 -727L1332 -722L1341 -723L1331 -727zM1307 -683L1304 -683L1300 -680L1296 -680L1304 -675L1313 -673L1312 -679L1314 -680L1311 -684L1308 -684zM1321 -675L1317 -674L1322 -673L1325 -674L1325 -676L1328 -672L1331 -675L1328 -678L1321 -677zM1294 -563L1293 -560L1297 -561L1298 -563L1297 -562L1295 -566L1295 -563zM1353 -738L1355 -738L1354 -740zM1278 -516L1279 -515L1282 -519L1278 -518L1279 -517zM1363 -732L1363 -731zM1269 -512L1274 -512L1271 -512L1272 -513L1270 -514L1270 -512zM1322 -642L1321 -641L1326 -637L1326 -632L1330 -631L1328 -635L1330 -635L1331 -639L1329 -640L1331 -640L1329 -644L1324 -644zM1331 -692L1331 -696L1326 -697L1327 -699L1318 -699L1317 -693L1329 -692zM1313 -530L1314 -530zM1308 -587L1312 -590L1308 -588zM1236 -453L1237 -454zM1284 -514L1286 -515L1284 -515zM1277 -520L1279 -521L1279 -525L1278 -522zM1321 -703L1323 -702L1323 -704zM1333 -694L1334 -692L1336 -693L1334 -694zM1263 -480L1264 -480zM1335 -673L1338 -671L1336 -673zM1316 -632L1314 -633L1312 -631L1320 -624L1321 -625L1319 -629L1321 -630L1317 -633zM1319 -701L1321 -701zM1311 -611L1313 -610zM1198 -405L1200 -406L1199 -407L1198 -405zM1356 -669L1356 -671zM1331 -652L1331 -653zM1309 -629L1310 -628L1309 -630L1308 -629zM1273 -553L1276 -549L1277 -553L1275 -555L1272 -554zM1219 -402L1220 -401L1220 -403zM1308 -592L1309 -591L1309 -593zM1294 -609L1294 -607L1295 -609zM1315 -532L1316 -532zM1340 -672L1339 -673zM1287 -731L1288 -723L1291 -718L1297 -715L1298 -713L1303 -712L1304 -713L1293 -719L1291 -722L1289 -732zM1350 -670L1351 -668L1350 -671zM1316 -672L1317 -673zM1282 -489L1284 -492L1282 -494L1280 -492L1280 -489zM1262 -469L1262 -470zM1211 -432L1212 -432zM1308 -612L1311 -616L1310 -618L1305 -622L1304 -627L1299 -626L1296 -619L1298 -617L1302 -619L1305 -613L1308 -613zM1313 -615L1314 -615zM1334 -727L1333 -729L1333 -727zM1324 -712L1326 -711zM1299 -712L1297 -711L1298 -709L1301 -711zM1325 -632L1326 -630L1326 -632zM1313 -613L1314 -613zM1290 -568L1291 -568zM1238 -449L1238 -451L1237 -449zM1334 -643L1333 -641zM1344 -717L1343 -718L1345 -718L1343 -720L1342 -717zM1308 -673L1308 -671L1310 -671L1309 -673zM1330 -714L1331 -714zM1290 -593L1291 -594zM1213 -416L1213 -416zM1213 -417L1213 -418zM1280 -484L1284 -486L1282 -487L1280 -485zM1311 -672L1314 -672L1311 -672zM1290 -596L1292 -596L1291 -597zM1263 -554L1263 -556zM1306 -609L1305 -608L1306 -609zM1264 -553L1265 -553zM1298 -668L1297 -670L1294 -670L1294 -666L1297 -667zM1327 -646L1328 -649L1330 -649L1328 -650L1328 -652L1326 -651L1326 -646zM1282 -658L1279 -659L1277 -654L1277 -648L1280 -645L1286 -648L1285 -653L1281 -658zM1210 -383L1210 -385L1207 -387L1205 -385L1209 -384zM1321 -673L1322 -673zM1276 -656L1278 -655L1278 -657L1276 -657zM1287 -564L1289 -561L1289 -564zM1321 -631L1321 -632zM1295 -623L1293 -622L1293 -619L1296 -623zM1192 -409L1193 -410zM1220 -401L1222 -401zM1339 -717L1339 -717zM1305 -713L1304 -714zM1357 -667L1357 -668zM1340 -719L1341 -718L1340 -720zM1286 -661L1284 -659L1285 -656L1287 -656L1288 -658L1287 -661zM1208 -419L1207 -418L1209 -419zM1288 -679L1292 -681L1290 -684L1291 -685L1286 -684L1285 -681zM1354 -669L1355 -668L1353 -671zM1262 -551L1261 -550L1263 -550zM1263 -479L1263 -479zM1312 -629L1313 -628zM1285 -548L1288 -549L1285 -548zM1330 -721L1329 -720L1331 -720zM1278 -484L1279 -485zM1292 -569L1292 -567L1293 -568zM1257 -712L1259 -713L1257 -713zM1308 -646L1305 -646L1308 -644L1310 -645zM1303 -672L1305 -672zM1279 -661L1280 -660zM1312 -621L1313 -621zM1292 -587L1293 -587zM1214 -416L1215 -416zM1310 -620L1311 -620zM1185 -408L1186 -407L1185 -408zM1318 -620L1320 -621L1315 -623L1314 -626L1311 -626L1313 -622L1316 -620zM1221 -422L1220 -422zM1306 -710L1306 -710zM1315 -704L1317 -703L1316 -704zM1258 -464L1259 -465zM1290 -579L1289 -580zM1361 -663L1362 -662L1361 -664zM1309 -627L1308 -626L1310 -627zM1185 -404L1184 -403L1186 -405zM1305 -645L1305 -643L1307 -643L1307 -645zM1333 -646L1333 -645zM1246 -448L1248 -450L1249 -449L1249 -451L1247 -449zM1334 -692L1335 -692zM1232 -450L1235 -451L1232 -450zM1322 -712L1321 -711L1323 -712zM1316 -677L1316 -673L1320 -675L1319 -677zM1317 -634L1320 -633L1323 -635L1323 -637L1318 -636zM1351 -734L1352 -735L1350 -735zM1363 -722L1364 -726L1361 -724L1362 -723zM1290 -659L1289 -658L1290 -659zM1219 -400L1220 -401zM1210 -434L1215 -437L1213 -439L1204 -437L1204 -435L1208 -435zM1275 -504L1274 -503L1276 -503zM1298 -648L1298 -646L1300 -647L1299 -649zM1305 -645L1303 -645L1305 -645zM1290 -656L1291 -658L1289 -657zM1191 -411L1190 -410L1192 -410zM1327 -727L1327 -729zM1308 -586L1308 -586zM1263 -556L1264 -557zM1318 -716L1317 -716zM1218 -437L1223 -440L1218 -441L1216 -438zM1307 -628L1308 -627L1308 -629L1306 -628zM1333 -644L1333 -644zM1214 -442L1216 -443L1214 -443zM1368 -722L1368 -725L1365 -725L1367 -724zM1293 -639L1294 -638L1292 -640zM1304 -647L1305 -647zM1300 -643L1299 -644L1299 -642L1301 -642zM1312 -619L1313 -619zM1311 -644L1317 -642L1314 -645L1309 -646zM1302 -645L1302 -646zM1289 -655L1288 -654L1289 -655zM1294 -644L1295 -642L1297 -644L1296 -645zM1205 -438L1209 -441L1205 -440zM1315 -635L1317 -634L1316 -636L1314 -636zM1309 -624L1310 -624zM1286 -486L1287 -487zM1292 -638L1293 -638zM1318 -641L1320 -641L1320 -643L1318 -642zM1311 -616L1313 -616zM1296 -647L1296 -648zM1208 -382L1209 -381L1208 -382zM1211 -386L1212 -386zM1319 -638L1320 -638zM1209 -389L1209 -388z"/></g></svg>