<svg xmlns="http://www.w3.org/2000/svg" pointer-events="none" class="leaflet-zoom-animated" width="1466" height="842" viewBox="413 -984 1466 842" style="transform: translate3d(413px, -984px, 0px);"><g><path class="leaflet-interactive" stroke="black" stroke-opacity="1" stroke-width="1" stroke-linecap="round" stroke-linejoin="round" fill="#fff" fill-opacity="0.2" fill-rule="evenodd" d="M1076 -750L1067 -750L1060 -747L1057 -748L1048 -737L1042 -734L1042 -713L1063 -705L1067 -706L1068 -710L1073 -710L1079 -716L1084 -717L1087 -722L1087 -728L1090 -735L1097 -741L1097 -744L1095 -750L1090 -751L1089 -753L1085 -751L1076 -751zM1123 -373L1125 -373L1124 -374zM1147 -471L1149 -472L1148 -470L1150 -473L1149 -475L1148 -472zM1119 -373L1120 -372L1120 -374L1119 -373zM1106 -679L1109 -680L1106 -680zM1249 -635L1249 -633L1251 -633L1249 -633L1249 -636zM1124 -375L1124 -376zM1113 -659L1115 -660L1111 -660L1114 -659zM1111 -660L1109 -659L1112 -659L1109 -659L1111 -660zM1162 -459L1164 -457L1173 -459L1177 -465L1175 -467L1162 -459zM1164 -488L1165 -486L1164 -488zM1163 -487L1164 -487zM1118 -662L1119 -662zM1113 -665L1113 -666zM1169 -485L1170 -484L1169 -486zM1124 -678L1125 -677zM1180 -522L1181 -521L1180 -522zM1206 -507L1207 -506L1207 -509zM1178 -513L1180 -513zM1159 -459L1160 -459zM1061 -453L1062 -452L1065 -456L1068 -457L1072 -456L1069 -458L1065 -458L1063 -455zM1216 -488L1217 -489zM1129 -654L1133 -655L1132 -656L1129 -654zM1131 -487L1132 -487zM1175 -533L1177 -533L1177 -535zM1128 -661L1127 -660L1131 -661zM1221 -523L1220 -522L1223 -521L1224 -522L1221 -522L1222 -523zM1127 -676L1126 -677zM1107 -665L1108 -665zM1198 -511L1199 -512zM1179 -472L1181 -472zM1176 -470L1178 -471zM1191 -477L1193 -475L1194 -476L1192 -477zM1162 -468L1163 -466L1163 -468zM1197 -499L1197 -500zM1220 -495L1221 -495zM1156 -490L1158 -491zM1180 -537L1182 -539L1180 -538zM1178 -547L1178 -549zM1185 -534L1185 -535zM1109 -665L1110 -664L1109 -666zM1163 -488L1163 -487zM1072 -464L1073 -463L1075 -465L1072 -465zM1226 -549L1227 -547L1226 -549zM1112 -668L1112 -668zM1130 -665L1132 -666L1130 -666zM1113 -655L1115 -656zM1161 -514L1161 -517zM1182 -471L1183 -470zM1193 -518L1194 -518zM1180 -658L1183 -659L1180 -659zM1209 -498L1208 -497L1210 -497zM1156 -496L1157 -496zM1179 -458L1180 -459zM1175 -530L1176 -532zM1250 -532L1251 -531L1251 -533zM1170 -519L1172 -520L1170 -520zM1180 -548L1181 -548zM1224 -525L1226 -526zM1084 -470L1087 -471L1084 -471zM1193 -479L1194 -479zM1146 -469L1147 -470zM1166 -535L1166 -536zM1238 -521L1239 -522zM1169 -655L1171 -655zM1087 -468L1088 -468zM1198 -479L1199 -478L1199 -480zM1108 -457L1110 -458L1109 -459zM1111 -483L1112 -483zM1084 -463L1084 -464zM1126 -489L1127 -489zM1117 -469L1119 -469L1118 -470zM1211 -516L1211 -517zM1238 -530L1242 -529L1241 -531L1239 -531zM1184 -450L1184 -449zM1111 -460L1112 -461zM1131 -417L1131 -418zM1178 -487L1180 -488L1178 -488zM1184 -467L1185 -468zM1155 -444L1155 -443zM1225 -662L1226 -661L1226 -663zM1240 -516L1241 -516zM1141 -737L1141 -738zM1174 -655L1176 -655L1175 -656zM1160 -729L1162 -730L1160 -730zM1133 -401L1134 -400L1134 -402zM1110 -466L1112 -465L1111 -466zM1124 -488L1125 -488zM1139 -464L1140 -465zM1132 -412L1133 -410L1133 -412zM1131 -414L1131 -415zM1195 -606L1197 -606zM1139 -399L1139 -400zM1131 -401L1133 -401L1132 -402zM1124 -672L1123 -673zM1124 -647L1123 -647zM1133 -407L1133 -408zM1186 -456L1187 -457zM1108 -463L1109 -462L1110 -464zM1163 -650L1164 -649L1163 -650zM1185 -655L1185 -654zM1227 -492L1226 -491zM1133 -663L1134 -664zM1204 -524L1205 -524zM1130 -503L1132 -503zM1178 -646L1178 -645zM1239 -539L1239 -537zM1248 -538L1248 -537zM1168 -500L1169 -500z"/></g></svg>