<svg xmlns="http://www.w3.org/2000/svg" pointer-events="none" class="leaflet-zoom-animated" width="1466" height="842" viewBox="421 -1257 1466 842" style="transform: translate3d(421px, -1257px, 0px);"><g><path class="leaflet-interactive" stroke="black" stroke-opacity="1" stroke-width="1" stroke-linecap="round" stroke-linejoin="round" fill="#fff" fill-opacity="0.2" fill-rule="evenodd" d="M1107 -729L1107 -727L1110 -725L1114 -725L1115 -723L1122 -724L1125 -723L1126 -720L1131 -720L1133 -718L1130 -708L1131 -703L1129 -700L1131 -698L1127 -696L1124 -689L1129 -679L1132 -678L1138 -683L1139 -681L1141 -683L1142 -680L1148 -681L1148 -679L1151 -679L1146 -677L1145 -675L1147 -670L1144 -669L1143 -666L1134 -664L1135 -656L1138 -652L1136 -648L1136 -641L1129 -630L1123 -628L1121 -624L1116 -620L1117 -613L1107 -608L1102 -597L1102 -593L1104 -588L1106 -587L1105 -583L1109 -585L1111 -584L1116 -586L1116 -595L1125 -599L1131 -607L1136 -602L1140 -602L1141 -604L1143 -604L1143 -602L1146 -602L1144 -596L1146 -594L1149 -594L1149 -592L1146 -590L1146 -587L1149 -584L1149 -582L1147 -581L1147 -577L1150 -571L1146 -559L1151 -559L1155 -555L1161 -561L1164 -559L1169 -569L1178 -570L1181 -568L1186 -569L1186 -567L1195 -568L1200 -565L1202 -570L1210 -576L1211 -575L1213 -578L1213 -583L1208 -588L1212 -594L1211 -597L1214 -602L1213 -604L1216 -610L1220 -610L1221 -607L1224 -607L1231 -611L1234 -606L1238 -610L1239 -607L1244 -605L1258 -605L1258 -603L1263 -599L1263 -592L1265 -591L1265 -587L1269 -585L1269 -581L1271 -580L1277 -581L1280 -584L1287 -583L1290 -586L1287 -594L1290 -600L1286 -608L1292 -612L1286 -617L1279 -615L1277 -616L1275 -625L1279 -625L1279 -623L1281 -622L1286 -627L1291 -626L1291 -628L1296 -630L1297 -633L1300 -633L1299 -636L1302 -641L1304 -641L1305 -639L1309 -643L1314 -641L1316 -643L1317 -636L1319 -637L1322 -632L1326 -632L1329 -628L1336 -629L1336 -627L1337 -628L1342 -625L1342 -622L1346 -625L1350 -625L1351 -627L1356 -628L1360 -625L1363 -625L1369 -631L1369 -634L1374 -636L1376 -640L1376 -645L1378 -645L1379 -648L1378 -652L1375 -654L1372 -666L1376 -670L1377 -676L1382 -683L1382 -691L1380 -693L1384 -699L1387 -699L1390 -701L1389 -702L1399 -706L1401 -708L1399 -709L1401 -710L1399 -713L1393 -713L1388 -709L1385 -709L1385 -711L1381 -711L1377 -708L1374 -709L1375 -712L1382 -719L1381 -721L1384 -726L1382 -730L1388 -735L1387 -737L1390 -741L1386 -741L1389 -751L1383 -751L1379 -755L1371 -755L1367 -760L1365 -773L1368 -780L1370 -780L1370 -784L1373 -789L1370 -790L1367 -796L1363 -799L1362 -804L1359 -804L1359 -808L1366 -817L1368 -823L1368 -833L1354 -830L1352 -828L1348 -830L1345 -829L1343 -833L1345 -837L1343 -838L1342 -842L1346 -845L1345 -848L1344 -847L1341 -850L1344 -854L1345 -860L1349 -863L1352 -870L1358 -876L1358 -880L1355 -883L1357 -890L1361 -892L1363 -895L1366 -894L1367 -897L1370 -895L1374 -899L1376 -898L1377 -901L1382 -900L1384 -903L1383 -905L1381 -905L1382 -906L1379 -913L1381 -915L1389 -915L1389 -917L1395 -923L1396 -922L1398 -927L1403 -930L1403 -937L1400 -937L1397 -941L1395 -941L1399 -945L1397 -948L1395 -948L1387 -954L1392 -959L1391 -969L1394 -975L1392 -977L1394 -982L1392 -982L1391 -984L1386 -984L1386 -988L1384 -991L1382 -989L1380 -996L1377 -994L1375 -998L1375 -1005L1371 -1003L1368 -1004L1369 -1007L1364 -1007L1364 -1011L1359 -1010L1357 -1006L1355 -1007L1355 -1011L1352 -1008L1351 -1014L1349 -1015L1349 -1018L1352 -1021L1351 -1024L1347 -1024L1346 -1026L1344 -1026L1346 -1033L1349 -1035L1349 -1039L1351 -1041L1355 -1041L1357 -1046L1356 -1049L1350 -1054L1347 -1053L1346 -1055L1350 -1056L1356 -1062L1351 -1067L1350 -1066L1349 -1072L1347 -1070L1338 -1071L1341 -1089L1330 -1079L1328 -1079L1303 -1048L1299 -1048L1297 -1045L1295 -1047L1294 -1054L1292 -1055L1286 -1049L1284 -1049L1282 -1060L1280 -1063L1290 -1074L1291 -1080L1283 -1071L1282 -1079L1279 -1082L1274 -1081L1270 -1077L1271 -1076L1269 -1071L1262 -1067L1259 -1062L1257 -1062L1254 -1065L1249 -1065L1247 -1063L1239 -1067L1236 -1065L1234 -1059L1228 -1057L1223 -1052L1225 -1061L1218 -1066L1220 -1069L1214 -1066L1214 -1068L1211 -1068L1206 -1072L1203 -1071L1203 -1081L1203 -1078L1196 -1083L1193 -1083L1194 -1087L1183 -1092L1182 -1091L1182 -1093L1179 -1095L1172 -1096L1171 -1093L1161 -1093L1154 -1097L1147 -1097L1143 -1095L1141 -1097L1142 -1098L1138 -1100L1129 -1109L1100 -1111L1100 -1115L1090 -1118L1083 -1117L1084 -1110L1080 -1108L1075 -1112L1070 -1110L1061 -1111L1060 -1107L1065 -1105L1066 -1103L1063 -1101L1061 -1095L1064 -1094L1066 -1089L1072 -1087L1074 -1082L1073 -1079L1062 -1072L1058 -1075L1056 -1070L1049 -1066L1046 -1070L1042 -1070L1042 -1073L1038 -1077L1030 -1079L1026 -1083L1013 -1080L999 -1081L993 -1077L995 -1075L994 -1072L990 -1070L990 -1068L988 -1067L990 -1064L985 -1063L980 -1066L973 -1064L973 -1066L971 -1065L972 -1064L970 -1062L970 -1059L966 -1058L967 -1054L964 -1055L965 -1052L962 -1052L961 -1045L960 -1046L958 -1044L960 -1039L956 -1039L956 -1030L953 -1026L948 -1024L950 -1021L948 -1015L950 -1014L945 -1012L954 -1005L946 -989L946 -977L948 -977L952 -973L947 -968L949 -967L941 -961L943 -958L946 -961L948 -959L951 -961L954 -957L949 -952L950 -950L948 -945L948 -938L951 -934L949 -929L952 -927L951 -925L955 -927L957 -926L956 -924L961 -924L958 -923L952 -904L952 -900L955 -903L959 -900L958 -897L954 -896L954 -894L952 -893L954 -886L953 -885L956 -880L955 -873L958 -872L958 -868L962 -868L967 -864L967 -858L965 -854L966 -852L954 -845L952 -843L952 -838L950 -837L947 -837L944 -840L940 -837L938 -840L935 -837L937 -837L934 -828L929 -828L929 -823L924 -821L923 -822L923 -820L916 -815L918 -814L918 -810L913 -805L912 -806L911 -804L907 -804L906 -802L913 -796L913 -794L915 -796L919 -795L919 -799L925 -802L927 -805L928 -804L935 -807L937 -806L934 -803L934 -801L938 -801L940 -803L941 -802L947 -810L948 -807L961 -810L965 -806L966 -808L966 -802L968 -802L966 -801L969 -799L970 -802L972 -801L974 -795L972 -792L974 -792L975 -789L964 -783L964 -781L965 -780L968 -783L971 -781L970 -776L973 -768L975 -767L977 -771L979 -770L974 -765L973 -768L966 -770L961 -765L959 -766L960 -765L957 -763L950 -763L955 -758L957 -759L962 -747L959 -745L960 -742L957 -740L959 -739L954 -736L949 -725L950 -722L954 -722L956 -719L965 -722L966 -724L968 -723L964 -716L967 -712L968 -707L969 -708L971 -705L970 -702L965 -703L965 -700L968 -697L968 -695L970 -695L973 -692L974 -694L978 -694L982 -697L984 -694L988 -692L989 -694L991 -691L986 -684L988 -680L994 -681L995 -679L997 -679L999 -681L1000 -683L998 -690L996 -691L997 -696L1004 -696L1007 -707L1012 -712L1018 -709L1023 -710L1025 -706L1021 -697L1025 -694L1026 -696L1030 -694L1033 -699L1038 -695L1039 -688L1046 -691L1050 -702L1055 -708L1059 -711L1060 -709L1063 -711L1066 -721L1069 -722L1071 -726L1072 -724L1079 -724L1080 -722L1082 -724L1084 -723L1083 -720L1085 -717L1099 -720L1099 -718L1101 -721L1101 -730L1105 -731L1106 -729zM967 -777L968 -777zM1282 -1081L1283 -1080L1281 -1084L1279 -1083zM973 -768L973 -768z"/></g></svg>