<svg xmlns="http://www.w3.org/2000/svg" pointer-events="none" class="leaflet-zoom-animated" width="1466" height="842" viewBox="420 -1257 1466 842" style="transform: translate3d(420px, -1257px, 0px);"><g><path class="leaflet-interactive" stroke="black" stroke-opacity="1" stroke-width="1" stroke-linecap="round" stroke-linejoin="round" fill="#fff" fill-opacity="0.2" fill-rule="evenodd" d="M1044 -1051L1041 -1051L1044 -1054L1038 -1060L1036 -1060L1032 -1054L1024 -1054L1023 -1049L1022 -1050L1021 -1048L1016 -1048L1014 -1043L1012 -1043L1008 -1049L1003 -1049L1003 -1055L1000 -1060L998 -1060L991 -1052L982 -1052L979 -1049L974 -1051L971 -1049L963 -1055L952 -1053L948 -1055L946 -1054L936 -1059L924 -1057L921 -1058L921 -1060L917 -1059L915 -1062L911 -1057L906 -1059L904 -1058L897 -1049L910 -1044L920 -1045L927 -1041L930 -1039L927 -1024L929 -1019L935 -1020L935 -1022L940 -1022L946 -1019L948 -1020L949 -1018L958 -1014L961 -1007L963 -1007L963 -998L967 -992L963 -988L960 -991L956 -990L956 -987L951 -983L948 -983L945 -987L943 -986L942 -988L932 -986L922 -990L915 -989L913 -987L915 -982L910 -979L910 -977L905 -971L906 -968L903 -965L903 -956L906 -953L907 -949L912 -946L911 -939L914 -936L914 -933L911 -929L911 -925L915 -918L914 -916L912 -916L911 -913L916 -904L911 -901L911 -896L914 -893L920 -894L924 -892L925 -885L927 -882L925 -881L923 -877L924 -876L930 -875L934 -877L937 -874L942 -873L943 -871L947 -872L943 -868L944 -867L946 -868L953 -862L958 -861L962 -858L961 -857L963 -853L963 -844L965 -836L967 -834L965 -833L965 -830L959 -827L961 -824L959 -821L961 -821L961 -816L964 -815L956 -796L953 -796L950 -799L948 -805L946 -806L945 -804L940 -807L937 -806L924 -798L923 -794L917 -792L918 -790L912 -785L910 -780L906 -779L906 -782L904 -781L898 -775L890 -763L890 -770L889 -773L886 -775L887 -777L886 -776L885 -778L871 -767L865 -775L868 -776L868 -780L862 -779L862 -781L856 -777L855 -778L848 -772L843 -765L840 -764L838 -766L834 -764L832 -765L829 -774L827 -774L825 -772L826 -768L821 -766L822 -765L818 -761L816 -764L814 -763L813 -765L811 -765L810 -763L805 -764L804 -762L804 -758L806 -756L803 -751L806 -749L808 -750L819 -737L817 -730L818 -728L815 -719L813 -718L815 -718L814 -717L816 -711L813 -704L813 -698L812 -699L809 -697L806 -699L800 -695L800 -693L804 -693L804 -689L807 -689L806 -686L812 -681L812 -683L816 -685L814 -687L821 -698L827 -695L826 -692L828 -691L829 -679L831 -680L831 -678L837 -675L837 -678L835 -678L836 -680L839 -677L839 -675L837 -674L838 -673L841 -673L842 -677L842 -675L843 -676L847 -673L846 -669L848 -669L849 -667L846 -663L847 -659L845 -656L852 -650L850 -642L855 -641L857 -645L861 -645L860 -647L862 -649L868 -645L867 -638L870 -635L867 -630L870 -625L872 -626L880 -619L883 -621L881 -622L883 -628L881 -630L886 -633L889 -637L889 -646L892 -646L891 -650L894 -653L895 -658L898 -659L897 -662L900 -661L899 -665L903 -666L903 -669L905 -671L904 -672L908 -671L917 -673L918 -670L922 -671L922 -677L927 -679L928 -683L926 -684L932 -688L940 -687L944 -689L951 -688L959 -690L963 -686L971 -684L975 -680L975 -677L981 -676L982 -673L989 -677L991 -682L995 -679L1000 -682L1007 -688L1005 -694L999 -696L997 -701L994 -702L996 -708L999 -710L998 -712L993 -714L994 -717L1003 -717L1008 -720L1013 -715L1017 -717L1016 -724L1023 -725L1033 -723L1033 -718L1062 -716L1064 -713L1067 -712L1071 -706L1074 -707L1076 -702L1079 -704L1086 -704L1090 -701L1102 -700L1108 -703L1115 -700L1115 -698L1116 -699L1125 -694L1127 -695L1126 -690L1136 -685L1136 -688L1136 -678L1139 -679L1141 -676L1147 -676L1147 -673L1149 -672L1152 -676L1152 -671L1158 -668L1156 -660L1160 -664L1164 -664L1169 -669L1169 -672L1172 -674L1176 -673L1176 -671L1179 -670L1182 -672L1187 -672L1190 -669L1192 -669L1195 -674L1197 -676L1197 -674L1201 -678L1204 -683L1203 -684L1213 -691L1216 -689L1216 -678L1224 -688L1223 -681L1213 -670L1215 -667L1217 -656L1219 -656L1223 -661L1227 -662L1229 -652L1231 -653L1231 -655L1235 -654L1256 -681L1274 -696L1271 -678L1280 -677L1281 -679L1283 -674L1287 -671L1288 -667L1286 -667L1286 -665L1283 -663L1279 -662L1279 -660L1283 -660L1290 -654L1288 -648L1284 -648L1282 -646L1282 -643L1279 -640L1277 -633L1279 -633L1280 -631L1284 -632L1285 -628L1282 -625L1282 -622L1285 -615L1287 -618L1289 -613L1292 -617L1296 -618L1298 -616L1297 -614L1301 -614L1301 -611L1303 -610L1308 -614L1308 -617L1317 -625L1318 -629L1326 -629L1333 -632L1334 -631L1336 -633L1335 -639L1337 -644L1340 -645L1344 -641L1353 -643L1355 -641L1360 -641L1369 -647L1378 -649L1380 -645L1388 -649L1392 -648L1396 -651L1398 -655L1397 -658L1395 -656L1396 -655L1393 -653L1391 -657L1394 -662L1396 -660L1397 -661L1397 -659L1400 -659L1401 -661L1399 -662L1399 -664L1404 -667L1407 -664L1412 -666L1413 -665L1411 -662L1418 -660L1417 -665L1419 -669L1415 -670L1417 -675L1413 -676L1414 -679L1418 -676L1428 -676L1428 -672L1430 -672L1436 -675L1447 -685L1447 -692L1450 -693L1450 -695L1466 -696L1480 -685L1488 -682L1494 -684L1507 -693L1507 -699L1501 -709L1503 -715L1503 -723L1500 -728L1500 -734L1494 -739L1493 -742L1490 -744L1486 -744L1487 -746L1484 -752L1487 -756L1490 -757L1487 -757L1485 -759L1485 -763L1487 -766L1484 -769L1484 -773L1479 -776L1478 -775L1478 -778L1473 -784L1476 -792L1478 -791L1483 -793L1481 -801L1495 -812L1501 -813L1500 -819L1496 -819L1493 -822L1489 -822L1488 -826L1484 -829L1483 -833L1480 -831L1476 -831L1475 -829L1467 -839L1463 -840L1461 -839L1458 -833L1454 -834L1453 -842L1450 -846L1449 -845L1446 -847L1446 -851L1444 -851L1444 -854L1442 -855L1440 -853L1437 -855L1439 -859L1438 -861L1432 -858L1429 -860L1427 -859L1427 -861L1423 -865L1423 -872L1425 -877L1421 -877L1419 -882L1415 -881L1415 -879L1413 -878L1414 -874L1412 -872L1408 -872L1406 -874L1404 -871L1405 -869L1403 -868L1401 -870L1393 -867L1390 -868L1388 -866L1384 -869L1383 -873L1376 -873L1376 -876L1374 -875L1369 -880L1365 -876L1363 -878L1362 -884L1366 -892L1365 -899L1363 -899L1361 -896L1360 -899L1358 -898L1359 -896L1353 -895L1349 -897L1348 -896L1344 -898L1339 -898L1334 -906L1328 -908L1325 -907L1323 -903L1320 -901L1316 -899L1314 -900L1312 -897L1308 -902L1309 -907L1306 -910L1307 -911L1305 -911L1301 -907L1298 -909L1298 -915L1295 -917L1296 -920L1291 -923L1294 -928L1288 -933L1287 -937L1291 -939L1291 -942L1293 -944L1289 -950L1289 -955L1292 -957L1290 -961L1292 -963L1289 -964L1290 -966L1287 -969L1286 -968L1282 -970L1278 -963L1275 -963L1277 -962L1272 -960L1273 -957L1270 -960L1261 -953L1256 -956L1253 -956L1250 -959L1252 -960L1241 -971L1236 -968L1236 -965L1232 -965L1231 -967L1224 -970L1220 -967L1220 -964L1218 -966L1211 -965L1209 -967L1201 -963L1200 -961L1186 -966L1184 -965L1180 -968L1179 -965L1172 -964L1172 -961L1164 -964L1160 -959L1151 -966L1146 -966L1146 -968L1144 -968L1144 -965L1145 -966L1143 -966L1136 -972L1136 -975L1130 -973L1126 -980L1120 -978L1118 -981L1115 -981L1107 -986L1107 -988L1101 -990L1098 -989L1098 -993L1093 -988L1090 -989L1086 -997L1082 -1000L1082 -1002L1078 -1003L1080 -1002L1080 -1004L1081 -1002L1083 -1006L1082 -1008L1079 -1005L1077 -1006L1074 -1014L1066 -1017L1065 -1022L1063 -1019L1062 -1020L1062 -1025L1064 -1028L1063 -1033L1060 -1037L1053 -1036L1053 -1038L1057 -1040L1056 -1045L1046 -1052L1044 -1049L1043 -1050zM1291 -955L1291 -953L1292 -954zM1044 -1054L1044 -1051L1045 -1053zM1196 -963L1197 -962L1197 -964zM1213 -690L1212 -689L1215 -688z"/></g></svg>