<svg xmlns="http://www.w3.org/2000/svg" pointer-events="none" class="leaflet-zoom-animated" width="1466" height="842" viewBox="408 -855 1466 842" style="transform: translate3d(408px, -855px, 0px);"><g><path class="leaflet-interactive" stroke="black" stroke-opacity="1" stroke-width="1" stroke-linecap="round" stroke-linejoin="round" fill="#fff" fill-opacity="0.2" fill-rule="evenodd" d="M1413 -312L1410 -310L1412 -303L1411 -304L1410 -301L1413 -292L1408 -286L1407 -287L1407 -285L1405 -285L1405 -287L1401 -291L1401 -294L1399 -294L1398 -296L1395 -292L1395 -294L1392 -297L1385 -294L1385 -296L1392 -299L1386 -301L1384 -301L1383 -299L1382 -303L1379 -305L1379 -307L1377 -307L1378 -309L1376 -309L1379 -312L1375 -313L1371 -310L1370 -312L1368 -311L1364 -315L1364 -317L1362 -316L1363 -319L1360 -321L1360 -329L1364 -333L1367 -333L1368 -336L1361 -355L1356 -358L1357 -361L1354 -368L1357 -370L1359 -369L1360 -373L1357 -375L1356 -378L1354 -378L1352 -384L1346 -384L1343 -386L1338 -396L1334 -398L1330 -395L1326 -398L1329 -402L1332 -403L1329 -405L1330 -407L1323 -409L1308 -407L1293 -419L1284 -429L1272 -433L1270 -446L1278 -450L1277 -457L1273 -465L1293 -479L1301 -493L1307 -496L1309 -504L1301 -517L1303 -524L1298 -526L1292 -526L1270 -519L1257 -509L1254 -505L1236 -509L1229 -514L1224 -513L1217 -509L1200 -505L1211 -493L1198 -480L1192 -481L1191 -479L1188 -483L1178 -486L1178 -491L1174 -491L1172 -496L1173 -501L1161 -496L1161 -499L1155 -501L1157 -507L1155 -511L1155 -523L1140 -523L1140 -528L1132 -529L1131 -535L1128 -540L1113 -546L1109 -550L1102 -552L1092 -551L1100 -554L1106 -559L1112 -560L1117 -570L1125 -575L1125 -591L1128 -595L1128 -601L1120 -613L1102 -614L1097 -609L1080 -610L1079 -603L1076 -599L1073 -600L1071 -605L1062 -600L1063 -595L1057 -600L1057 -605L1052 -603L1055 -599L1042 -592L1041 -613L1025 -624L1009 -645L1011 -650L1019 -658L988 -728L980 -726L953 -724L940 -716L936 -712L934 -706L938 -704L937 -699L943 -692L939 -688L941 -680L937 -674L928 -670L920 -669L915 -666L906 -659L903 -653L898 -660L899 -662L896 -665L883 -659L878 -651L868 -649L852 -634L835 -611L836 -606L833 -598L795 -593L794 -577L789 -568L787 -551L782 -530L777 -521L769 -513L769 -504L774 -502L778 -506L793 -509L800 -508L804 -510L804 -507L808 -502L808 -494L811 -493L832 -495L839 -492L839 -489L833 -488L838 -483L861 -486L869 -461L875 -464L883 -464L885 -466L890 -466L895 -465L901 -459L904 -460L913 -458L920 -464L922 -464L926 -461L927 -462L929 -458L938 -451L940 -452L945 -450L949 -451L950 -455L953 -458L965 -455L964 -461L967 -466L967 -468L965 -469L968 -471L971 -470L971 -476L977 -474L983 -476L983 -481L981 -481L982 -484L980 -487L980 -492L978 -494L979 -504L981 -508L979 -511L981 -512L991 -511L999 -508L1011 -500L1013 -497L1027 -491L1030 -487L1038 -493L1037 -494L1039 -501L1044 -501L1044 -499L1052 -495L1061 -505L1063 -505L1063 -503L1067 -500L1077 -496L1074 -494L1079 -489L1085 -486L1091 -479L1091 -477L1095 -476L1098 -470L1105 -465L1122 -457L1124 -454L1125 -460L1117 -468L1118 -471L1128 -467L1129 -462L1131 -464L1133 -459L1136 -459L1137 -457L1139 -458L1144 -455L1145 -457L1150 -456L1156 -450L1159 -452L1160 -450L1157 -444L1159 -441L1161 -442L1168 -437L1170 -433L1179 -429L1183 -434L1190 -431L1193 -427L1199 -424L1200 -421L1206 -426L1210 -423L1211 -418L1214 -415L1213 -412L1228 -401L1237 -391L1230 -388L1231 -385L1229 -381L1234 -379L1234 -377L1237 -376L1241 -371L1235 -367L1239 -362L1243 -360L1242 -357L1244 -356L1246 -348L1253 -342L1255 -342L1255 -340L1257 -339L1253 -338L1251 -333L1248 -332L1252 -328L1252 -319L1245 -319L1240 -316L1240 -311L1245 -303L1241 -301L1243 -301L1242 -299L1232 -304L1227 -294L1222 -296L1221 -295L1223 -290L1221 -288L1225 -286L1225 -280L1222 -279L1221 -274L1218 -275L1218 -273L1213 -271L1210 -266L1211 -265L1207 -266L1204 -264L1205 -248L1207 -246L1212 -246L1220 -236L1217 -236L1214 -231L1212 -232L1206 -222L1202 -224L1197 -223L1196 -221L1193 -222L1187 -228L1185 -227L1180 -230L1177 -230L1178 -231L1171 -235L1166 -234L1162 -237L1158 -237L1157 -234L1155 -234L1152 -226L1154 -225L1163 -210L1170 -208L1170 -197L1182 -197L1185 -200L1191 -194L1192 -188L1197 -189L1197 -191L1199 -191L1201 -194L1203 -193L1203 -190L1206 -186L1204 -185L1202 -179L1198 -176L1198 -174L1201 -172L1200 -168L1202 -167L1205 -170L1205 -172L1211 -172L1213 -176L1215 -176L1216 -174L1218 -175L1217 -180L1220 -184L1225 -183L1229 -186L1229 -192L1223 -196L1222 -198L1224 -201L1221 -201L1223 -202L1222 -204L1219 -204L1220 -209L1214 -214L1219 -214L1221 -216L1226 -215L1228 -221L1238 -221L1235 -224L1241 -229L1244 -229L1244 -231L1247 -231L1247 -233L1250 -233L1253 -227L1256 -227L1259 -225L1259 -222L1262 -221L1259 -218L1261 -216L1259 -214L1262 -211L1261 -206L1265 -206L1270 -202L1273 -202L1277 -206L1279 -202L1277 -198L1279 -198L1279 -200L1281 -201L1289 -197L1293 -199L1302 -199L1307 -195L1306 -191L1309 -184L1311 -184L1313 -180L1319 -179L1317 -178L1318 -177L1314 -179L1313 -178L1316 -167L1315 -164L1319 -162L1315 -158L1313 -159L1312 -155L1314 -152L1326 -146L1328 -143L1337 -143L1341 -140L1346 -143L1349 -140L1353 -141L1356 -144L1357 -143L1366 -148L1363 -151L1362 -155L1364 -158L1372 -155L1382 -159L1384 -158L1387 -164L1387 -170L1385 -169L1388 -172L1388 -170L1388 -173L1386 -175L1384 -174L1381 -176L1377 -182L1381 -182L1383 -184L1382 -186L1388 -193L1388 -195L1394 -195L1399 -191L1403 -194L1405 -193L1410 -195L1411 -191L1415 -189L1417 -195L1415 -199L1412 -200L1411 -205L1413 -207L1409 -211L1412 -215L1413 -222L1416 -222L1417 -224L1416 -229L1413 -229L1414 -232L1420 -229L1423 -235L1418 -239L1417 -242L1411 -245L1405 -245L1406 -246L1404 -248L1410 -252L1411 -251L1411 -255L1415 -257L1417 -260L1415 -262L1412 -272L1416 -276L1418 -275L1423 -277L1431 -277L1436 -273L1438 -274L1440 -270L1444 -267L1444 -265L1448 -266L1449 -268L1460 -266L1462 -270L1465 -269L1464 -267L1466 -269L1471 -269L1475 -271L1470 -275L1465 -285L1467 -285L1470 -289L1478 -285L1483 -285L1489 -288L1495 -286L1497 -288L1505 -287L1509 -289L1510 -301L1505 -308L1504 -320L1513 -328L1512 -330L1514 -335L1511 -339L1511 -349L1509 -352L1504 -354L1505 -352L1502 -351L1497 -359L1491 -359L1491 -363L1489 -359L1481 -363L1481 -366L1481 -364L1478 -364L1479 -367L1477 -368L1477 -370L1476 -369L1473 -372L1462 -375L1460 -374L1460 -376L1457 -379L1450 -379L1448 -390L1446 -389L1444 -392L1440 -390L1437 -392L1437 -390L1431 -392L1431 -389L1426 -393L1423 -390L1418 -392L1418 -389L1421 -385L1419 -385L1420 -384L1419 -382L1417 -382L1417 -380L1415 -383L1415 -381L1418 -379L1418 -377L1419 -378L1419 -368L1417 -370L1414 -368L1412 -362L1410 -363L1410 -361L1412 -360L1408 -360L1407 -358L1414 -354L1412 -350L1414 -349L1413 -344L1412 -345L1413 -342L1418 -344L1420 -342L1421 -343L1423 -340L1424 -341L1425 -339L1428 -340L1434 -332L1431 -324L1433 -325L1429 -321L1432 -317L1432 -314L1428 -313L1427 -311L1424 -312L1424 -310L1418 -313L1414 -313zM1392 -299L1393 -297L1393 -299L1395 -299L1394 -300zM1246 -348L1246 -347zM1393 -296L1394 -295zM1413 -312L1413 -312z"/></g></svg>