<svg xmlns="http://www.w3.org/2000/svg" pointer-events="none" class="leaflet-zoom-animated" width="1466" height="842" viewBox="415 -984 1466 842" style="transform: translate3d(415px, -984px, 0px);"><g><path class="leaflet-interactive" stroke="black" stroke-opacity="1" stroke-width="1" stroke-linecap="round" stroke-linejoin="round" fill="#fff" fill-opacity="0.2" fill-rule="evenodd" d="M1156 -424L1158 -424L1162 -428L1169 -427L1172 -424L1171 -422L1173 -418L1178 -418L1178 -420L1184 -425L1184 -430L1182 -428L1181 -432L1183 -434L1186 -433L1193 -442L1193 -444L1189 -444L1188 -448L1186 -446L1181 -447L1181 -451L1185 -453L1189 -449L1190 -451L1195 -453L1198 -452L1198 -454L1200 -455L1206 -453L1212 -454L1212 -456L1209 -456L1205 -459L1208 -462L1211 -460L1216 -462L1212 -463L1212 -466L1215 -471L1214 -472L1208 -469L1208 -471L1205 -472L1203 -475L1209 -477L1210 -478L1208 -479L1208 -481L1211 -483L1211 -486L1208 -487L1204 -491L1205 -492L1209 -494L1215 -493L1212 -493L1211 -490L1214 -487L1219 -487L1218 -484L1215 -483L1215 -480L1217 -478L1220 -476L1226 -476L1224 -476L1222 -474L1223 -472L1221 -472L1224 -468L1228 -481L1226 -481L1226 -483L1223 -484L1223 -488L1225 -489L1229 -484L1233 -485L1237 -482L1241 -485L1239 -490L1247 -491L1248 -494L1243 -495L1239 -500L1235 -500L1235 -498L1233 -503L1227 -505L1226 -509L1228 -511L1229 -509L1231 -509L1234 -511L1233 -514L1236 -516L1237 -509L1245 -508L1245 -519L1254 -516L1252 -510L1253 -509L1257 -511L1259 -506L1257 -504L1258 -502L1260 -504L1263 -503L1265 -507L1263 -510L1265 -512L1267 -502L1266 -501L1271 -500L1273 -502L1271 -502L1272 -504L1273 -503L1272 -506L1274 -509L1272 -511L1272 -509L1269 -510L1272 -513L1274 -514L1275 -511L1277 -511L1282 -506L1284 -508L1282 -508L1282 -510L1288 -513L1292 -512L1291 -515L1290 -514L1286 -517L1287 -520L1292 -520L1294 -523L1288 -525L1289 -526L1286 -529L1284 -528L1284 -534L1276 -528L1275 -526L1279 -518L1274 -516L1274 -514L1270 -514L1267 -526L1261 -525L1262 -530L1256 -530L1257 -534L1268 -535L1268 -540L1270 -539L1271 -542L1270 -556L1275 -557L1277 -560L1279 -568L1276 -571L1274 -570L1273 -575L1268 -582L1268 -584L1273 -588L1273 -590L1275 -590L1274 -594L1283 -596L1285 -594L1287 -596L1286 -598L1290 -600L1294 -599L1300 -603L1300 -605L1294 -603L1292 -604L1293 -605L1283 -627L1279 -630L1274 -630L1269 -627L1265 -630L1269 -633L1271 -637L1270 -638L1273 -638L1272 -643L1277 -637L1290 -637L1292 -633L1295 -634L1294 -638L1298 -643L1298 -647L1309 -647L1309 -645L1301 -637L1302 -636L1299 -629L1298 -631L1295 -631L1290 -628L1288 -620L1294 -619L1299 -624L1299 -627L1309 -631L1313 -630L1317 -633L1315 -633L1316 -634L1314 -635L1314 -638L1317 -639L1319 -642L1313 -644L1316 -648L1313 -648L1313 -651L1309 -651L1309 -655L1315 -658L1314 -661L1320 -661L1325 -659L1327 -666L1329 -668L1329 -672L1327 -672L1331 -673L1329 -678L1333 -679L1339 -677L1346 -684L1340 -690L1340 -694L1343 -695L1338 -703L1336 -703L1335 -710L1330 -709L1327 -711L1328 -712L1326 -714L1324 -712L1316 -712L1316 -710L1308 -704L1306 -704L1304 -708L1300 -706L1298 -702L1299 -701L1291 -700L1292 -701L1290 -702L1290 -700L1283 -700L1284 -703L1280 -706L1280 -709L1277 -710L1277 -712L1275 -713L1277 -715L1277 -722L1273 -724L1274 -728L1270 -729L1270 -733L1272 -735L1268 -738L1258 -736L1256 -724L1253 -721L1251 -724L1245 -723L1244 -719L1239 -716L1237 -712L1226 -712L1223 -718L1219 -717L1215 -720L1211 -720L1212 -719L1209 -715L1205 -716L1200 -723L1203 -725L1204 -728L1204 -734L1201 -741L1204 -741L1198 -749L1199 -751L1196 -763L1188 -769L1187 -776L1189 -781L1195 -784L1195 -787L1194 -789L1192 -789L1192 -791L1196 -795L1190 -798L1187 -804L1185 -804L1182 -799L1181 -800L1178 -798L1176 -798L1175 -801L1171 -801L1170 -799L1167 -800L1166 -796L1163 -797L1161 -802L1150 -795L1154 -791L1156 -791L1156 -789L1154 -788L1155 -786L1153 -780L1150 -781L1141 -777L1134 -777L1133 -773L1130 -772L1130 -768L1121 -771L1118 -768L1116 -769L1114 -766L1105 -763L1102 -760L1101 -755L1098 -751L1095 -754L1093 -753L1086 -758L1084 -765L1082 -765L1082 -767L1078 -770L1074 -764L1073 -766L1062 -757L1060 -761L1058 -758L1056 -758L1058 -754L1058 -749L1053 -743L1049 -742L1049 -739L1040 -739L1039 -737L1041 -735L1039 -733L1036 -738L1032 -736L1032 -727L1034 -725L1038 -727L1040 -724L1040 -719L1043 -712L1040 -709L1040 -704L1044 -701L1043 -700L1046 -699L1046 -696L1037 -687L1035 -679L1028 -675L1025 -671L1020 -672L1018 -670L1011 -670L1009 -669L1009 -667L1001 -667L990 -654L990 -644L986 -640L991 -632L989 -625L994 -619L993 -618L995 -616L998 -616L997 -612L995 -611L995 -607L993 -604L990 -604L990 -608L987 -609L985 -605L977 -597L978 -596L975 -593L975 -585L977 -583L982 -585L984 -580L974 -570L972 -567L973 -565L963 -557L956 -557L951 -553L952 -549L956 -546L956 -542L955 -544L951 -543L949 -539L950 -538L945 -535L946 -531L943 -529L945 -521L943 -522L943 -518L941 -518L940 -516L942 -510L939 -505L940 -497L936 -495L935 -496L933 -490L931 -490L930 -488L928 -489L926 -487L926 -483L929 -479L928 -478L933 -471L928 -468L933 -462L929 -464L928 -462L931 -459L936 -458L938 -456L941 -457L948 -450L954 -451L956 -454L960 -451L960 -449L962 -449L962 -446L966 -446L971 -450L971 -452L976 -454L975 -452L977 -452L978 -450L974 -448L975 -445L976 -446L980 -438L984 -438L987 -432L987 -427L992 -428L994 -432L996 -430L1004 -433L1008 -432L1010 -434L1013 -434L1014 -432L1008 -422L1012 -416L1015 -416L1018 -413L1016 -411L1019 -405L1020 -406L1022 -403L1021 -402L1023 -395L1025 -395L1025 -388L1027 -388L1030 -385L1030 -383L1025 -379L1024 -376L1024 -373L1027 -368L1026 -367L1029 -366L1029 -360L1026 -358L1029 -355L1027 -353L1030 -353L1033 -350L1032 -347L1035 -342L1035 -336L1041 -333L1042 -331L1043 -332L1048 -330L1048 -323L1057 -324L1058 -322L1064 -322L1072 -324L1072 -329L1076 -332L1076 -337L1086 -338L1091 -345L1090 -348L1092 -354L1102 -356L1109 -367L1112 -367L1115 -370L1115 -376L1122 -382L1123 -386L1127 -387L1128 -389L1132 -389L1133 -392L1136 -392L1132 -402L1129 -403L1130 -407L1126 -408L1129 -419L1135 -425L1137 -422L1144 -418L1155 -419L1155 -423zM1159 -418L1156 -412L1151 -415L1149 -414L1148 -413L1150 -409L1148 -409L1147 -407L1153 -405L1156 -409L1163 -408L1165 -410L1165 -414L1163 -417L1159 -419zM1256 -486L1260 -483L1263 -483L1263 -485L1265 -486L1264 -488L1260 -487L1258 -491L1254 -491L1253 -487zM1349 -605L1347 -605L1349 -603L1349 -605zM1295 -525L1294 -528L1293 -526zM1369 -668L1369 -666L1370 -668zM1367 -669L1367 -670zM1326 -662L1326 -660L1328 -660L1327 -662zM1265 -530L1268 -532L1268 -534L1264 -530zM1304 -589L1305 -588L1306 -590L1304 -591L1301 -589L1301 -587L1302 -588zM1301 -562L1303 -564L1301 -563zM1333 -662L1330 -662L1332 -661zM1286 -636L1288 -636L1285 -637zM1277 -502L1280 -503L1276 -503zM1276 -497L1277 -500L1275 -499L1275 -497zM1143 -406L1147 -410L1143 -411L1141 -407zM1336 -632L1336 -633zM1295 -637L1299 -634L1299 -637L1296 -638zM1095 -344L1097 -344L1095 -344zM1093 -345L1094 -344L1093 -345zM1140 -417L1139 -420L1132 -422L1130 -420L1128 -413L1130 -409L1134 -408L1140 -414zM1297 -581L1299 -581L1301 -584L1296 -584L1296 -581zM1271 -580L1272 -583L1270 -585L1268 -584L1269 -581L1271 -581zM1293 -609L1293 -610zM1286 -625L1287 -625zM1135 -398L1135 -400zM1256 -500L1257 -502L1255 -500zM1335 -639L1336 -637L1338 -638L1336 -639zM1307 -617L1309 -617L1310 -619L1307 -620L1306 -618zM1317 -624L1318 -624zM1273 -532L1274 -530L1278 -530L1278 -533L1274 -533zM1316 -637L1315 -637zM1316 -621L1318 -621L1317 -623L1316 -622zM1274 -543L1274 -544zM1265 -493L1265 -492zM1274 -580L1275 -582L1273 -581L1274 -579zM1246 -478L1246 -478zM1338 -665L1339 -665zM1213 -485L1212 -484zM1304 -623L1303 -621L1305 -622L1304 -623zM1282 -630L1283 -628L1287 -629L1285 -631L1282 -630zM1260 -493L1259 -493zM1282 -496L1283 -496zM1296 -610L1296 -609zM1304 -592L1304 -592zM1215 -469L1215 -470zM1092 -346L1092 -347zM1298 -564L1299 -565L1297 -564zM1217 -477L1218 -477zM1271 -534L1273 -535L1271 -535zM1267 -485L1267 -486zM1248 -510L1249 -511zM1156 -422L1157 -422zM1244 -498L1243 -498zM1128 -410L1127 -412L1127 -410zM1285 -628L1286 -629zM1340 -679L1342 -679L1341 -680zM1316 -623L1319 -625L1318 -629L1314 -625L1315 -624zM1324 -656L1323 -657zM1265 -491L1266 -492zM1316 -617L1317 -618zM1271 -579L1271 -579zM1302 -594L1303 -596L1302 -594zM1324 -601L1324 -602zM1272 -533L1273 -532L1273 -534zM1336 -660L1338 -662L1340 -661L1336 -666L1333 -664L1335 -661zM1317 -648L1318 -647L1317 -649zM1273 -631L1282 -634L1282 -636L1274 -636L1272 -635L1273 -632zM1265 -534L1266 -534zM1214 -484L1216 -485L1214 -485zM1283 -636L1285 -637L1283 -637zM1246 -499L1246 -500zM1255 -465L1254 -466z"/></g></svg>