<svg xmlns="http://www.w3.org/2000/svg" pointer-events="none" class="leaflet-zoom-animated" width="1466" height="842" viewBox="422 -1257 1466 842" style="transform: translate3d(422px, -1257px, 0px);"><g><path class="leaflet-interactive" stroke="black" stroke-opacity="1" stroke-width="1" stroke-linecap="round" stroke-linejoin="round" fill="#fff" fill-opacity="0.2" fill-rule="evenodd" d="M1363 -854L1367 -860L1365 -863L1369 -865L1372 -868L1372 -870L1373 -869L1378 -871L1377 -876L1383 -876L1385 -882L1384 -883L1386 -885L1383 -885L1385 -885L1387 -888L1388 -885L1392 -888L1401 -885L1401 -891L1408 -897L1413 -898L1414 -900L1415 -899L1414 -902L1416 -906L1416 -912L1407 -916L1408 -918L1406 -918L1407 -920L1404 -922L1405 -928L1402 -933L1403 -934L1401 -940L1403 -944L1408 -948L1405 -951L1402 -948L1401 -952L1405 -962L1404 -964L1407 -971L1409 -972L1406 -972L1406 -974L1404 -975L1400 -973L1401 -975L1398 -977L1400 -983L1397 -986L1397 -992L1399 -995L1398 -996L1391 -993L1390 -989L1388 -987L1387 -988L1387 -980L1383 -972L1381 -972L1383 -965L1381 -964L1376 -967L1375 -963L1372 -961L1367 -964L1366 -967L1360 -965L1357 -968L1357 -970L1353 -967L1352 -964L1348 -974L1352 -976L1354 -984L1352 -984L1353 -989L1347 -996L1346 -994L1341 -993L1346 -986L1343 -984L1343 -979L1338 -978L1337 -980L1335 -980L1335 -985L1338 -987L1335 -999L1338 -1000L1337 -1006L1339 -1007L1340 -1011L1338 -1010L1335 -1013L1328 -1011L1328 -1009L1325 -1009L1313 -1015L1314 -1021L1317 -1024L1318 -1028L1315 -1029L1315 -1037L1310 -1049L1310 -1056L1307 -1058L1306 -1053L1304 -1051L1300 -1056L1294 -1054L1289 -1057L1285 -1052L1276 -1052L1274 -1049L1272 -1049L1270 -1044L1268 -1044L1265 -1047L1266 -1052L1263 -1053L1265 -1063L1260 -1068L1257 -1067L1258 -1066L1255 -1063L1251 -1065L1246 -1064L1244 -1066L1243 -1071L1236 -1066L1233 -1067L1234 -1069L1228 -1068L1230 -1062L1229 -1058L1225 -1058L1227 -1052L1225 -1049L1232 -1042L1229 -1039L1226 -1032L1224 -1033L1222 -1032L1223 -1030L1221 -1028L1215 -1027L1214 -1023L1211 -1025L1212 -1031L1209 -1031L1209 -1037L1205 -1035L1200 -1037L1200 -1035L1198 -1034L1197 -1037L1195 -1034L1194 -1036L1192 -1033L1190 -1033L1190 -1026L1187 -1024L1184 -1028L1175 -1023L1178 -1020L1178 -1017L1181 -1016L1179 -1009L1176 -1009L1176 -1006L1174 -1006L1171 -1009L1169 -1008L1169 -1005L1171 -1004L1170 -1002L1167 -1002L1166 -999L1168 -993L1165 -991L1163 -992L1163 -995L1159 -994L1158 -997L1154 -997L1154 -995L1152 -995L1151 -998L1156 -1001L1156 -1008L1157 -1007L1157 -1010L1160 -1012L1157 -1013L1157 -1016L1156 -1015L1151 -1019L1152 -1022L1148 -1027L1142 -1031L1142 -1023L1145 -1021L1148 -1015L1148 -1013L1146 -1013L1145 -1008L1147 -1004L1143 -1006L1146 -1001L1144 -999L1137 -1004L1135 -1003L1135 -994L1130 -994L1130 -996L1126 -1000L1118 -1004L1116 -1010L1111 -1010L1108 -1013L1108 -1016L1104 -1016L1104 -1018L1102 -1018L1103 -1019L1097 -1023L1094 -1015L1090 -1014L1092 -1008L1090 -1006L1081 -1008L1080 -1006L1078 -1006L1077 -1008L1074 -1005L1072 -1005L1072 -1000L1066 -998L1065 -990L1069 -985L1068 -978L1074 -973L1076 -973L1077 -976L1081 -976L1081 -979L1090 -969L1088 -960L1091 -957L1097 -959L1098 -956L1103 -956L1104 -959L1112 -962L1118 -959L1124 -953L1125 -951L1122 -948L1123 -946L1127 -945L1130 -941L1128 -935L1131 -933L1129 -928L1132 -927L1130 -925L1118 -919L1112 -922L1106 -922L1106 -920L1094 -917L1093 -919L1088 -917L1088 -915L1086 -914L1079 -916L1075 -914L1075 -912L1071 -912L1068 -910L1066 -910L1066 -912L1057 -920L1045 -920L1038 -915L1038 -909L1036 -907L1037 -906L1030 -898L1032 -898L1033 -895L1029 -883L1026 -880L1026 -882L1022 -885L1015 -885L1001 -875L1001 -873L998 -872L996 -873L994 -878L992 -878L988 -874L987 -877L984 -877L974 -873L968 -876L965 -882L957 -886L956 -889L951 -890L948 -884L946 -884L945 -880L941 -876L942 -873L934 -869L930 -873L931 -875L926 -876L920 -881L920 -886L914 -885L912 -887L910 -878L906 -871L899 -868L891 -855L887 -855L884 -853L887 -849L882 -848L884 -846L883 -843L891 -847L898 -837L898 -829L894 -827L891 -823L894 -814L897 -815L898 -813L896 -810L897 -806L895 -804L897 -799L900 -798L902 -794L906 -792L925 -793L924 -797L930 -806L939 -803L942 -803L943 -805L947 -802L951 -804L955 -812L957 -813L961 -806L961 -801L963 -799L970 -799L970 -793L974 -792L977 -785L979 -784L979 -780L981 -778L978 -776L978 -774L975 -774L969 -768L966 -758L966 -750L964 -747L961 -749L960 -748L961 -741L959 -734L956 -731L956 -729L958 -730L959 -727L957 -726L958 -723L955 -720L955 -716L952 -713L948 -716L948 -710L946 -706L949 -700L957 -697L958 -690L956 -690L958 -687L959 -689L962 -689L966 -692L968 -691L968 -693L969 -692L967 -681L977 -675L977 -669L983 -669L990 -665L992 -666L994 -663L992 -663L993 -655L987 -661L984 -659L985 -656L981 -650L981 -647L975 -645L980 -645L983 -640L967 -621L968 -615L966 -613L971 -611L976 -605L982 -604L985 -601L988 -605L995 -607L1000 -615L1008 -616L1011 -618L1013 -627L1016 -629L1016 -631L1021 -634L1021 -636L1024 -635L1027 -639L1029 -639L1033 -635L1033 -632L1040 -632L1043 -634L1050 -632L1054 -621L1057 -619L1065 -620L1066 -617L1074 -616L1083 -609L1088 -612L1095 -612L1096 -608L1102 -603L1106 -609L1113 -612L1114 -616L1116 -615L1119 -625L1118 -629L1114 -634L1118 -635L1120 -638L1128 -637L1140 -641L1149 -647L1153 -648L1159 -653L1161 -657L1166 -656L1170 -658L1181 -658L1185 -665L1191 -663L1190 -665L1193 -667L1193 -674L1190 -676L1188 -683L1192 -686L1193 -689L1198 -691L1197 -696L1206 -697L1211 -701L1213 -698L1212 -696L1221 -689L1222 -684L1219 -683L1220 -681L1224 -679L1226 -681L1230 -679L1229 -674L1231 -668L1234 -670L1236 -667L1234 -661L1239 -660L1239 -662L1241 -662L1244 -665L1245 -664L1245 -666L1247 -665L1249 -671L1251 -671L1255 -659L1259 -664L1261 -662L1260 -659L1263 -657L1261 -652L1264 -651L1268 -651L1271 -654L1283 -659L1290 -659L1293 -661L1293 -663L1295 -663L1295 -673L1297 -677L1295 -679L1300 -680L1300 -682L1297 -682L1297 -684L1300 -686L1303 -685L1303 -683L1305 -683L1304 -685L1310 -690L1311 -693L1314 -693L1319 -689L1322 -683L1323 -685L1327 -685L1329 -681L1336 -676L1336 -673L1339 -670L1339 -679L1336 -682L1338 -688L1339 -686L1340 -687L1338 -689L1342 -693L1345 -692L1342 -695L1342 -697L1344 -699L1345 -698L1345 -702L1352 -704L1354 -703L1353 -700L1355 -699L1354 -695L1356 -692L1358 -695L1361 -696L1363 -694L1369 -695L1376 -691L1377 -693L1378 -692L1381 -695L1378 -696L1378 -702L1376 -703L1381 -712L1378 -713L1379 -714L1377 -714L1377 -712L1374 -714L1374 -712L1372 -712L1369 -708L1364 -708L1365 -712L1368 -714L1372 -714L1372 -718L1381 -718L1381 -720L1384 -721L1386 -721L1387 -718L1385 -716L1387 -714L1391 -717L1389 -720L1391 -720L1393 -714L1399 -711L1404 -713L1404 -723L1407 -724L1409 -729L1413 -733L1413 -735L1410 -736L1415 -739L1417 -743L1417 -745L1414 -748L1414 -751L1419 -750L1420 -752L1418 -756L1417 -755L1415 -760L1416 -761L1413 -764L1417 -771L1416 -772L1413 -769L1412 -770L1406 -767L1399 -770L1398 -772L1403 -783L1408 -787L1406 -788L1409 -790L1408 -793L1411 -795L1406 -807L1404 -806L1399 -811L1406 -811L1409 -813L1408 -814L1410 -813L1413 -817L1418 -817L1417 -825L1415 -828L1413 -828L1413 -831L1420 -835L1421 -834L1424 -837L1423 -840L1421 -840L1423 -843L1421 -845L1421 -848L1419 -850L1418 -847L1415 -851L1416 -856L1414 -854L1411 -858L1406 -858L1399 -855L1397 -855L1396 -858L1394 -854L1388 -849L1383 -849L1384 -853L1386 -854L1385 -855L1378 -852L1376 -853L1374 -850L1368 -847L1368 -843L1366 -843L1366 -845L1363 -842L1356 -850L1356 -852L1358 -851L1361 -854L1363 -853zM1017 -631L1018 -632zM1417 -825L1418 -817L1421 -816L1419 -823L1420 -828L1417 -831L1415 -829L1417 -825zM1426 -817L1424 -817L1424 -815L1422 -816L1423 -813L1428 -818L1426 -819L1426 -817z"/></g></svg>