<svg xmlns="http://www.w3.org/2000/svg" pointer-events="none" class="leaflet-zoom-animated" width="1466" height="842" viewBox="-1531 -578 1466 842" style="transform: translate3d(-1531px, -578px, 0px);"><g><path class="leaflet-interactive" stroke="black" stroke-opacity="1" stroke-width="1" stroke-linecap="round" stroke-linejoin="round" fill="#fff" fill-opacity="0.2" fill-rule="evenodd" d="M-689 8L-688 5L-685 9L-684 7L-681 7L-678 4L-678 1L-676 0L-674 3L-662 0L-645 4L-636 1L-635 2L-637 5L-632 10L-630 7L-630 1L-626 -3L-625 -10L-619 -12L-618 -16L-613 -18L-613 -16L-611 -22L-615 -26L-613 -30L-604 -41L-601 -42L-592 -52L-581 -57L-578 -61L-578 -64L-569 -70L-563 -78L-561 -74L-555 -77L-552 -77L-552 -75L-550 -75L-550 -77L-554 -79L-553 -84L-540 -90L-538 -93L-530 -94L-529 -97L-526 -99L-524 -97L-520 -98L-517 -95L-517 -99L-512 -102L-511 -106L-505 -106L-504 -111L-501 -114L-499 -111L-492 -112L-493 -114L-496 -115L-495 -118L-490 -123L-492 -128L-495 -129L-501 -126L-502 -127L-501 -130L-496 -132L-494 -137L-493 -136L-492 -143L-490 -143L-488 -146L-487 -150L-489 -152L-487 -155L-485 -155L-485 -157L-482 -160L-487 -161L-485 -167L-486 -169L-491 -169L-492 -173L-495 -171L-498 -178L-496 -179L-496 -181L-499 -184L-501 -183L-501 -187L-506 -191L-505 -196L-509 -201L-508 -204L-511 -206L-513 -211L-511 -217L-513 -221L-517 -223L-524 -221L-525 -222L-523 -232L-528 -242L-526 -252L-522 -252L-528 -256L-523 -261L-521 -261L-516 -271L-517 -273L-514 -273L-510 -278L-512 -281L-517 -280L-521 -283L-521 -280L-525 -278L-525 -285L-527 -282L-529 -282L-526 -286L-526 -288L-529 -289L-529 -294L-527 -296L-530 -299L-538 -299L-538 -304L-536 -306L-537 -314L-539 -314L-546 -323L-548 -322L-546 -324L-548 -327L-545 -338L-551 -337L-553 -339L-552 -341L-555 -344L-557 -344L-555 -347L-557 -350L-555 -353L-556 -360L-562 -362L-562 -360L-566 -358L-568 -370L-566 -374L-566 -381L-568 -388L-564 -394L-564 -401L-567 -399L-572 -400L-578 -393L-582 -392L-584 -388L-584 -383L-590 -377L-591 -373L-596 -370L-596 -368L-598 -369L-602 -367L-603 -362L-606 -370L-607 -369L-612 -371L-611 -374L-610 -373L-605 -377L-605 -379L-607 -381L-612 -381L-615 -384L-606 -394L-617 -404L-619 -404L-620 -414L-621 -413L-626 -416L-635 -415L-635 -419L-639 -421L-642 -419L-650 -428L-655 -430L-654 -432L-659 -435L-657 -441L-664 -446L-665 -444L-666 -445L-668 -443L-668 -439L-672 -437L-672 -419L-676 -417L-675 -412L-677 -411L-677 -409L-675 -407L-679 -399L-679 -394L-684 -385L-687 -385L-693 -390L-701 -386L-713 -384L-720 -375L-719 -371L-721 -367L-720 -365L-719 -366L-716 -364L-726 -360L-731 -356L-738 -357L-740 -354L-743 -356L-747 -356L-750 -349L-749 -348L-761 -358L-770 -356L-774 -358L-776 -363L-788 -365L-795 -364L-793 -357L-787 -356L-785 -354L-791 -349L-791 -345L-799 -345L-804 -347L-807 -351L-809 -351L-809 -345L-821 -348L-821 -350L-828 -348L-829 -346L-833 -346L-836 -337L-834 -336L-839 -326L-843 -327L-844 -323L-845 -322L-845 -324L-849 -321L-853 -316L-857 -315L-860 -320L-861 -319L-864 -323L-863 -324L-870 -320L-875 -322L-879 -319L-880 -321L-881 -319L-883 -319L-883 -317L-886 -318L-891 -314L-891 -310L-901 -304L-905 -300L-904 -299L-907 -295L-909 -295L-912 -292L-914 -293L-916 -291L-918 -292L-917 -293L-921 -293L-924 -295L-928 -294L-929 -291L-934 -292L-935 -289L-941 -288L-952 -280L-956 -281L-966 -275L-967 -274L-966 -272L-964 -272L-964 -270L-968 -268L-968 -264L-971 -261L-971 -259L-975 -260L-981 -255L-981 -252L-982 -253L-984 -252L-983 -251L-985 -251L-986 -249L-982 -247L-986 -247L-992 -242L-998 -233L-997 -227L-1001 -224L-1005 -225L-1007 -229L-1005 -234L-1005 -240L-1007 -238L-1010 -248L-1011 -250L-1013 -250L-1013 -256L-1016 -260L-1016 -263L-1018 -263L-1018 -266L-1024 -274L-1022 -283L-1023 -287L-1033 -287L-1035 -289L-1036 -288L-1038 -291L-1042 -290L-1045 -295L-1051 -297L-1051 -299L-1048 -302L-1048 -305L-1055 -309L-1056 -304L-1063 -299L-1069 -298L-1075 -293L-1078 -284L-1076 -284L-1072 -279L-1072 -276L-1068 -275L-1065 -272L-1066 -264L-1071 -257L-1071 -253L-1069 -251L-1071 -248L-1071 -240L-1074 -234L-1071 -232L-1073 -230L-1071 -228L-1073 -226L-1072 -217L-1068 -213L-1062 -211L-1062 -208L-1067 -207L-1067 -204L-1064 -203L-1063 -198L-1066 -195L-1066 -190L-1071 -189L-1072 -187L-1070 -186L-1071 -179L-1072 -182L-1073 -179L-1078 -178L-1079 -170L-1082 -166L-1085 -166L-1083 -164L-1084 -161L-1089 -156L-1093 -155L-1093 -151L-1095 -149L-1097 -149L-1098 -147L-1104 -149L-1106 -146L-1104 -141L-1100 -141L-1098 -139L-1100 -138L-1100 -135L-1105 -134L-1108 -136L-1110 -134L-1110 -126L-1114 -120L-1114 -115L-1113 -116L-1111 -113L-1109 -113L-1110 -110L-1105 -109L-1104 -106L-1095 -99L-1090 -99L-1084 -102L-1083 -100L-1087 -95L-1086 -92L-1079 -92L-1080 -89L-1077 -85L-1073 -83L-1057 -83L-1054 -86L-1048 -84L-1048 -82L-1050 -81L-1045 -74L-1047 -64L-1041 -52L-1043 -46L-1040 -48L-1035 -43L-1032 -44L-1031 -36L-1033 -32L-1028 -24L-1024 -26L-1023 -18L-1017 -18L-1015 -20L-1014 -25L-1012 -26L-1001 -29L-998 -28L-995 -31L-973 -41L-965 -42L-961 -58L-955 -62L-953 -75L-949 -75L-946 -80L-934 -91L-934 -99L-932 -101L-924 -102L-921 -103L-920 -105L-915 -104L-914 -106L-916 -109L-919 -109L-919 -115L-921 -116L-920 -117L-917 -113L-914 -115L-910 -115L-911 -117L-910 -120L-908 -120L-907 -124L-903 -125L-899 -121L-892 -122L-878 -119L-878 -125L-874 -125L-867 -120L-868 -118L-863 -121L-861 -121L-861 -119L-853 -120L-851 -123L-850 -122L-850 -124L-844 -127L-843 -123L-841 -122L-841 -118L-832 -114L-834 -110L-832 -101L-825 -100L-821 -97L-818 -97L-814 -100L-814 -90L-805 -82L-805 -78L-802 -77L-807 -77L-807 -75L-805 -75L-804 -73L-806 -70L-809 -71L-809 -66L-812 -66L-812 -62L-816 -65L-817 -64L-818 -62L-815 -60L-817 -57L-819 -59L-824 -58L-825 -49L-833 -49L-832 -44L-826 -38L-829 -34L-831 -36L-832 -35L-835 -28L-842 -25L-845 -22L-847 -13L-855 -12L-858 -8L-859 -9L-865 -4L-868 -5L-873 2L-875 2L-874 9L-876 10L-873 17L-874 20L-878 22L-877 25L-891 27L-898 33L-898 38L-894 42L-892 39L-891 40L-891 42L-896 45L-894 48L-896 49L-895 53L-893 54L-890 52L-889 55L-880 55L-879 60L-876 60L-876 63L-874 65L-871 65L-867 60L-862 60L-853 55L-853 61L-854 60L-858 63L-856 65L-864 65L-865 67L-864 69L-863 68L-862 70L-860 70L-861 72L-865 71L-863 79L-860 79L-856 84L-860 88L-863 90L-860 85L-864 80L-867 83L-864 87L-865 89L-872 94L-879 95L-884 91L-889 96L-889 98L-887 98L-887 101L-893 101L-898 105L-902 103L-908 104L-910 107L-910 111L-907 111L-908 124L-906 130L-900 131L-895 123L-890 123L-887 119L-873 120L-867 113L-858 115L-856 113L-855 114L-852 109L-859 105L-862 105L-858 102L-857 97L-851 98L-849 97L-849 95L-846 96L-845 102L-840 105L-835 102L-841 94L-835 97L-834 96L-836 92L-834 92L-831 95L-828 91L-822 91L-821 90L-823 86L-817 83L-816 81L-812 81L-816 78L-817 73L-814 73L-813 71L-805 67L-803 61L-796 57L-790 50L-782 51L-767 37L-765 38L-754 32L-755 31L-753 30L-752 32L-750 30L-750 27L-739 28L-736 23L-734 23L-734 21L-733 22L-733 20L-727 20L-723 22L-721 19L-717 19L-716 16L-714 17L-710 15L-712 14L-711 12L-714 11L-712 11L-711 9L-705 9L-701 10L-701 12L-696 12L-695 10L-690 8zM-776 66L-774 68L-774 66L-767 68L-766 67L-769 64L-773 66L-776 63L-777 65L-778 62L-782 63L-777 66zM-792 75L-791 73L-796 74L-798 79L-796 81L-794 80L-794 78L-792 79L-792 76zM-769 72L-763 71L-764 73L-762 73L-759 71L-764 69L-770 71zM-758 96L-761 92L-762 96L-758 97zM-789 78L-790 77L-789 78zM-843 113L-843 110L-843 112zM-789 72L-786 72L-788 70zM-789 67L-787 68L-788 67zM-734 34L-740 33L-741 36L-737 40L-733 36zM-799 75L-800 75zM-800 66L-801 65L-800 66zM-730 41L-730 38L-731 40zM-773 74L-772 73L-774 73zM-781 72L-777 71L-782 70L-782 72zM-752 91L-753 92L-751 92zM-754 89L-753 89zM-843 108L-842 108zM-748 92L-747 90L-749 90L-748 92zM-938 -76L-934 -78L-934 -81L-936 -83L-939 -77zM-875 76L-878 74L-876 75zM-728 48L-727 46L-731 44L-729 48zM-873 76L-874 74zM-756 71L-756 73L-755 71zM-756 89L-755 89zM-722 95L-718 93L-717 90L-720 86L-720 88L-723 87L-722 95zM-736 69L-736 67L-737 69zM-903 88L-904 87zM-661 6L-661 4L-663 5zM-671 10L-667 9L-670 8L-672 10zM-796 58L-798 58L-798 60L-795 57zM-953 -67L-953 -68zM-571 -68L-570 -69L-573 -67zM-920 103L-919 104L-920 103z"/></g></svg>