<svg xmlns="http://www.w3.org/2000/svg" pointer-events="none" class="leaflet-zoom-animated" width="1466" height="842" viewBox="423 -1257 1466 842" style="transform: translate3d(423px, -1257px, 0px);"><g><path class="leaflet-interactive" stroke="black" stroke-opacity="1" stroke-width="1" stroke-linecap="round" stroke-linejoin="round" fill="#fff" fill-opacity="0.2" fill-rule="evenodd" d="M1208 -710L1209 -705L1211 -704L1212 -691L1215 -688L1211 -683L1211 -676L1222 -671L1225 -671L1225 -673L1231 -675L1235 -672L1236 -673L1237 -671L1234 -668L1235 -662L1232 -661L1235 -649L1232 -647L1232 -642L1237 -640L1241 -642L1239 -644L1243 -647L1238 -654L1239 -656L1242 -656L1244 -658L1248 -654L1247 -653L1250 -652L1249 -646L1251 -646L1249 -638L1245 -636L1249 -626L1253 -632L1257 -627L1263 -629L1264 -626L1271 -623L1273 -629L1277 -626L1279 -627L1278 -634L1281 -635L1284 -642L1284 -650L1285 -649L1288 -655L1295 -658L1295 -662L1300 -667L1298 -671L1294 -669L1292 -671L1289 -668L1287 -670L1289 -673L1295 -676L1293 -678L1298 -683L1292 -687L1292 -698L1294 -701L1294 -705L1300 -715L1298 -718L1292 -719L1292 -723L1287 -728L1284 -728L1280 -733L1283 -738L1282 -740L1280 -740L1281 -748L1278 -751L1274 -751L1274 -748L1271 -748L1268 -744L1263 -744L1265 -753L1258 -759L1260 -762L1260 -768L1263 -770L1261 -771L1261 -773L1258 -773L1260 -775L1256 -779L1255 -778L1255 -780L1254 -777L1251 -776L1250 -778L1252 -778L1252 -780L1249 -783L1248 -782L1251 -778L1248 -778L1244 -781L1244 -783L1242 -782L1241 -794L1239 -799L1234 -801L1227 -790L1229 -789L1227 -786L1225 -786L1225 -784L1224 -786L1219 -788L1220 -790L1217 -792L1217 -796L1213 -796L1213 -798L1219 -802L1222 -800L1225 -802L1226 -801L1226 -807L1229 -814L1227 -820L1228 -821L1226 -820L1231 -830L1230 -832L1232 -840L1232 -842L1229 -843L1221 -853L1220 -852L1216 -854L1216 -856L1218 -856L1219 -859L1217 -861L1217 -865L1226 -868L1227 -866L1229 -867L1231 -864L1235 -868L1234 -869L1239 -871L1238 -874L1240 -877L1242 -877L1243 -872L1247 -867L1251 -869L1253 -867L1256 -868L1267 -881L1269 -880L1275 -884L1277 -882L1281 -883L1282 -881L1280 -874L1284 -870L1298 -881L1299 -879L1300 -880L1303 -873L1301 -870L1302 -867L1304 -867L1310 -878L1319 -885L1319 -882L1322 -883L1324 -885L1324 -888L1331 -893L1330 -895L1336 -897L1337 -901L1352 -910L1358 -907L1359 -909L1361 -908L1363 -902L1366 -899L1369 -899L1375 -909L1375 -915L1377 -918L1374 -919L1374 -924L1372 -924L1374 -927L1372 -930L1375 -933L1378 -933L1378 -936L1380 -937L1378 -939L1375 -954L1376 -956L1374 -960L1375 -961L1371 -964L1366 -964L1360 -971L1357 -970L1356 -971L1360 -975L1356 -974L1356 -976L1352 -976L1347 -980L1343 -978L1337 -979L1336 -980L1340 -985L1338 -987L1337 -994L1333 -997L1327 -996L1320 -998L1298 -996L1294 -1001L1294 -1003L1296 -1003L1295 -1005L1288 -1008L1288 -1012L1282 -1015L1277 -1021L1269 -1025L1259 -1027L1256 -1031L1251 -1032L1246 -1039L1241 -1038L1235 -1044L1233 -1044L1233 -1046L1230 -1046L1226 -1049L1223 -1047L1216 -1048L1214 -1046L1221 -1037L1219 -1034L1211 -1034L1213 -1032L1209 -1029L1213 -1026L1211 -1024L1207 -1027L1204 -1024L1205 -1018L1207 -1018L1210 -1012L1215 -1011L1215 -1009L1222 -1006L1221 -1005L1223 -1003L1224 -1004L1228 -1001L1225 -999L1227 -998L1226 -994L1229 -992L1224 -990L1222 -986L1220 -988L1218 -987L1214 -981L1214 -978L1211 -978L1209 -974L1197 -973L1197 -970L1200 -969L1198 -962L1194 -960L1196 -956L1187 -948L1181 -947L1182 -944L1186 -945L1188 -942L1184 -937L1185 -936L1180 -932L1182 -930L1182 -927L1185 -926L1180 -923L1178 -919L1174 -919L1175 -912L1179 -911L1166 -898L1157 -902L1158 -906L1156 -908L1149 -905L1146 -901L1143 -904L1136 -903L1135 -905L1132 -903L1134 -900L1130 -897L1131 -896L1129 -897L1129 -894L1127 -894L1130 -887L1135 -883L1133 -878L1127 -872L1129 -871L1127 -869L1126 -870L1121 -863L1119 -858L1120 -857L1112 -845L1112 -842L1098 -827L1098 -824L1097 -825L1095 -823L1096 -821L1094 -819L1092 -821L1092 -818L1090 -819L1087 -824L1084 -822L1084 -819L1081 -818L1076 -818L1074 -820L1073 -818L1065 -817L1061 -823L1061 -827L1058 -833L1056 -833L1056 -835L1055 -834L1055 -843L1053 -846L1048 -848L1044 -845L1037 -847L1038 -846L1036 -845L1037 -844L1035 -844L1036 -842L1034 -840L1032 -842L1033 -840L1025 -840L1024 -836L1023 -835L1023 -837L1021 -837L1022 -836L1019 -833L1019 -836L1017 -836L1016 -839L1014 -839L1014 -844L1012 -848L1011 -847L1009 -849L1010 -847L1007 -847L1005 -851L1004 -850L999 -854L992 -854L990 -856L988 -855L989 -857L986 -857L986 -855L986 -858L983 -856L981 -861L978 -857L976 -857L975 -852L973 -850L974 -848L971 -849L971 -844L973 -844L973 -842L968 -841L967 -843L963 -844L964 -838L967 -837L965 -837L965 -834L956 -834L955 -832L957 -830L958 -832L961 -831L958 -829L961 -826L965 -825L965 -823L968 -822L971 -818L972 -819L975 -817L971 -807L973 -801L971 -798L963 -799L960 -796L960 -792L958 -790L959 -789L957 -786L956 -787L954 -782L954 -784L951 -785L949 -784L950 -782L945 -782L943 -780L942 -781L940 -775L939 -776L936 -772L936 -774L933 -768L936 -762L936 -757L942 -757L943 -756L940 -754L944 -754L947 -752L947 -750L944 -747L946 -743L948 -744L950 -742L948 -740L953 -740L954 -738L961 -739L962 -737L964 -739L967 -737L967 -739L971 -741L969 -738L971 -735L970 -731L973 -724L975 -724L973 -723L975 -717L974 -714L976 -712L976 -709L980 -705L978 -704L979 -703L986 -703L989 -700L989 -702L995 -707L996 -706L996 -708L999 -705L1001 -706L1002 -700L1003 -702L1007 -700L1013 -702L1015 -701L1021 -695L1020 -688L1022 -687L1022 -683L1025 -680L1025 -676L1027 -675L1025 -674L1029 -667L1028 -663L1030 -661L1034 -666L1041 -661L1043 -663L1040 -667L1043 -667L1044 -665L1045 -666L1042 -669L1043 -675L1046 -676L1044 -678L1044 -681L1039 -685L1038 -689L1040 -692L1039 -693L1041 -693L1042 -690L1049 -684L1048 -682L1050 -679L1053 -677L1054 -678L1053 -677L1057 -674L1054 -673L1054 -665L1051 -661L1048 -660L1049 -657L1051 -657L1051 -659L1055 -659L1056 -656L1060 -657L1060 -654L1062 -653L1065 -655L1063 -660L1064 -663L1068 -665L1066 -670L1073 -668L1077 -675L1078 -678L1075 -679L1076 -680L1072 -685L1074 -687L1081 -690L1084 -687L1087 -687L1087 -695L1090 -698L1092 -698L1092 -696L1094 -697L1093 -699L1095 -698L1095 -696L1097 -699L1102 -697L1106 -699L1106 -694L1109 -693L1108 -687L1111 -685L1112 -689L1118 -690L1120 -692L1119 -694L1122 -694L1124 -696L1127 -703L1129 -704L1125 -707L1125 -709L1122 -710L1124 -714L1122 -720L1126 -720L1127 -723L1125 -730L1131 -731L1130 -729L1133 -728L1139 -733L1141 -732L1141 -728L1143 -726L1148 -727L1152 -725L1155 -728L1154 -729L1157 -731L1161 -725L1160 -715L1163 -714L1162 -709L1165 -706L1167 -706L1169 -711L1171 -711L1173 -714L1182 -714L1186 -719L1193 -716L1197 -718L1200 -715L1200 -713L1203 -715L1204 -720L1207 -719L1207 -711zM1280 -876L1280 -879L1278 -878L1280 -876zM959 -828L959 -828zM1279 -876L1280 -875zM1094 -819L1093 -819z"/></g></svg>