<svg xmlns="http://www.w3.org/2000/svg" pointer-events="none" class="leaflet-zoom-animated" width="1466" height="896" viewBox="424 -1285 1466 896" style="transform: translate3d(424px, -1285px, 0px);"><g><path class="leaflet-interactive" stroke="black" stroke-opacity="1" stroke-width="1" stroke-linecap="round" stroke-linejoin="round" fill="#fff" fill-opacity="0.2" fill-rule="evenodd" d="M1251 -763L1248 -767L1250 -771L1248 -771L1248 -773L1243 -775L1242 -777L1242 -789L1246 -796L1248 -809L1252 -814L1255 -824L1257 -825L1259 -831L1252 -859L1254 -884L1249 -890L1251 -890L1252 -892L1250 -892L1251 -894L1249 -894L1251 -900L1248 -901L1251 -905L1248 -908L1252 -909L1251 -910L1256 -914L1261 -924L1263 -924L1263 -928L1261 -928L1260 -931L1261 -933L1266 -935L1267 -940L1267 -947L1263 -948L1266 -951L1261 -954L1258 -961L1255 -963L1254 -976L1257 -977L1258 -982L1262 -983L1267 -991L1271 -992L1271 -995L1273 -995L1271 -1002L1277 -1013L1276 -1021L1278 -1025L1281 -1025L1283 -1027L1288 -1041L1286 -1041L1286 -1043L1284 -1043L1284 -1045L1282 -1045L1279 -1049L1282 -1051L1281 -1052L1284 -1055L1283 -1058L1270 -1052L1263 -1039L1258 -1040L1255 -1046L1251 -1046L1251 -1043L1249 -1042L1244 -1047L1238 -1050L1237 -1046L1240 -1044L1241 -1040L1232 -1036L1230 -1036L1227 -1039L1225 -1038L1229 -1034L1226 -1032L1228 -1030L1226 -1029L1225 -1031L1220 -1027L1219 -1024L1216 -1022L1217 -1020L1214 -1015L1211 -1012L1209 -1014L1204 -1009L1204 -1007L1201 -1006L1201 -1000L1198 -1001L1194 -995L1192 -995L1192 -993L1188 -990L1183 -975L1189 -971L1189 -967L1187 -966L1187 -963L1183 -961L1178 -968L1176 -948L1169 -945L1166 -947L1155 -944L1151 -946L1146 -943L1144 -945L1141 -945L1139 -952L1128 -956L1126 -959L1124 -957L1125 -956L1123 -952L1117 -952L1117 -948L1113 -948L1112 -947L1114 -946L1111 -943L1109 -943L1110 -941L1112 -941L1108 -935L1106 -927L1109 -921L1107 -921L1110 -918L1110 -915L1107 -915L1109 -905L1108 -904L1112 -902L1116 -903L1119 -900L1119 -898L1122 -899L1134 -895L1138 -890L1137 -888L1140 -890L1140 -887L1142 -885L1144 -886L1144 -884L1148 -883L1149 -887L1150 -883L1157 -882L1159 -877L1158 -876L1159 -877L1163 -875L1163 -878L1168 -876L1170 -873L1170 -863L1173 -859L1171 -854L1172 -852L1163 -844L1165 -829L1169 -825L1168 -813L1164 -811L1154 -810L1148 -812L1142 -809L1127 -812L1128 -810L1124 -809L1131 -797L1133 -797L1133 -795L1131 -793L1125 -793L1123 -791L1124 -793L1121 -794L1119 -790L1109 -792L1108 -790L1104 -789L1102 -792L1099 -793L1099 -796L1097 -798L1096 -797L1090 -801L1082 -801L1077 -799L1075 -800L1073 -797L1071 -797L1075 -784L1069 -778L1071 -776L1068 -776L1063 -772L1066 -768L1070 -769L1074 -767L1082 -759L1079 -753L1073 -756L1072 -754L1075 -753L1076 -748L1075 -746L1072 -746L1071 -739L1068 -735L1072 -732L1070 -729L1071 -724L1074 -723L1076 -718L1074 -713L1070 -715L1069 -719L1064 -717L1063 -718L1058 -715L1053 -719L1048 -719L1042 -712L1041 -706L1037 -706L1041 -699L1045 -699L1048 -696L1048 -694L1047 -696L1044 -693L1046 -694L1045 -685L1043 -682L1041 -683L1037 -680L1026 -680L1030 -672L1029 -671L1031 -669L1036 -673L1041 -673L1041 -676L1049 -676L1050 -678L1055 -670L1065 -668L1068 -665L1076 -669L1078 -668L1082 -671L1085 -671L1085 -669L1089 -671L1091 -669L1098 -670L1097 -669L1100 -664L1099 -659L1107 -653L1112 -661L1115 -660L1115 -655L1119 -652L1122 -654L1126 -653L1127 -649L1129 -650L1134 -642L1137 -642L1139 -639L1141 -643L1144 -644L1148 -643L1151 -646L1154 -644L1162 -646L1164 -643L1163 -642L1167 -641L1171 -637L1174 -637L1181 -631L1190 -628L1199 -620L1197 -619L1199 -618L1199 -616L1209 -616L1213 -618L1213 -620L1215 -621L1212 -626L1214 -628L1212 -633L1214 -636L1212 -640L1213 -642L1208 -648L1208 -652L1215 -661L1214 -664L1229 -663L1233 -661L1235 -665L1238 -664L1241 -666L1238 -669L1238 -675L1233 -679L1228 -679L1225 -681L1223 -679L1220 -681L1222 -689L1221 -690L1217 -692L1213 -691L1207 -693L1206 -694L1209 -698L1215 -700L1219 -698L1224 -699L1233 -696L1239 -697L1241 -694L1246 -694L1252 -695L1254 -698L1258 -699L1259 -693L1261 -694L1263 -691L1266 -694L1269 -694L1269 -697L1277 -699L1277 -717L1270 -721L1267 -729L1259 -732L1258 -734L1262 -737L1261 -740L1258 -741L1258 -746L1260 -749L1256 -752L1251 -753L1254 -759L1252 -762zM1278 -712L1278 -711zM1053 -673L1053 -672z"/></g></svg>