<svg xmlns="http://www.w3.org/2000/svg" pointer-events="none" class="leaflet-zoom-animated" width="1466" height="842" viewBox="407 -842 1466 842" style="transform: translate3d(407px, -842px, 0px);"><g><path class="leaflet-interactive" stroke="black" stroke-opacity="1" stroke-width="1" stroke-linecap="round" stroke-linejoin="round" fill="#fff" fill-opacity="0.2" fill-rule="evenodd" d="M1424 -510L1431 -513L1418 -526L1411 -530L1408 -534L1407 -533L1408 -537L1405 -540L1402 -547L1400 -548L1394 -543L1394 -545L1387 -548L1384 -553L1377 -556L1373 -551L1369 -554L1366 -554L1356 -564L1352 -564L1351 -566L1353 -568L1353 -574L1350 -572L1344 -578L1339 -579L1338 -577L1333 -580L1332 -579L1331 -581L1329 -580L1326 -582L1325 -586L1323 -584L1322 -589L1312 -593L1311 -590L1319 -582L1318 -576L1311 -582L1303 -585L1292 -592L1289 -598L1286 -598L1282 -605L1269 -615L1271 -618L1261 -622L1257 -625L1257 -627L1255 -627L1248 -620L1247 -617L1241 -619L1238 -621L1238 -623L1233 -623L1231 -617L1232 -616L1224 -609L1223 -611L1209 -618L1206 -620L1206 -622L1197 -626L1193 -630L1185 -633L1175 -634L1173 -633L1174 -630L1172 -616L1174 -614L1177 -598L1173 -596L1165 -598L1165 -592L1161 -593L1159 -591L1161 -590L1157 -583L1159 -577L1147 -580L1141 -572L1129 -575L1124 -580L1122 -580L1121 -584L1120 -583L1115 -586L1107 -580L1098 -582L1095 -581L1091 -586L1084 -588L1079 -588L1077 -586L1068 -586L1063 -583L1055 -608L1032 -605L1027 -610L1033 -611L1033 -614L1026 -617L1006 -615L1003 -616L1001 -617L1002 -624L998 -629L998 -632L994 -630L987 -631L984 -629L983 -630L972 -628L964 -621L959 -622L955 -619L947 -618L941 -614L934 -614L906 -604L901 -604L893 -601L884 -602L884 -598L880 -597L875 -592L861 -591L862 -586L864 -586L862 -583L869 -577L872 -577L872 -581L880 -582L880 -548L894 -541L896 -539L895 -536L897 -536L900 -533L904 -534L906 -532L910 -518L914 -515L916 -507L910 -507L901 -501L896 -501L889 -494L890 -490L888 -486L889 -487L890 -482L903 -479L903 -467L905 -466L904 -464L906 -462L907 -456L905 -454L901 -455L898 -451L895 -450L889 -456L884 -456L880 -458L867 -458L862 -461L863 -463L856 -465L857 -461L854 -457L854 -453L842 -454L838 -451L829 -452L830 -445L835 -443L836 -441L846 -441L846 -436L844 -435L845 -430L843 -430L845 -427L842 -423L845 -420L842 -416L840 -417L833 -413L833 -410L835 -409L831 -407L834 -401L837 -400L837 -388L839 -387L846 -389L849 -385L847 -379L843 -377L848 -368L847 -360L850 -357L848 -354L848 -347L841 -344L840 -341L842 -336L851 -328L853 -328L852 -325L856 -321L855 -315L860 -312L860 -309L865 -308L871 -300L880 -297L888 -291L896 -290L897 -288L897 -290L905 -290L908 -288L912 -291L919 -289L921 -287L925 -289L938 -280L940 -281L945 -274L954 -277L958 -275L956 -273L956 -270L959 -268L961 -270L962 -269L968 -271L971 -269L974 -270L976 -268L978 -271L987 -267L993 -269L996 -263L1000 -264L1001 -266L1004 -263L1006 -263L1010 -258L1011 -260L1013 -260L1016 -255L1025 -261L1030 -259L1034 -254L1036 -256L1037 -254L1040 -255L1044 -253L1047 -255L1047 -257L1054 -258L1056 -262L1058 -260L1059 -262L1064 -263L1066 -266L1072 -261L1077 -254L1079 -255L1081 -251L1091 -251L1095 -248L1087 -246L1088 -244L1090 -244L1095 -247L1094 -245L1097 -239L1100 -238L1101 -240L1103 -238L1104 -230L1102 -230L1100 -227L1107 -216L1110 -216L1112 -218L1119 -216L1121 -213L1124 -220L1128 -220L1131 -215L1136 -213L1136 -208L1138 -208L1141 -213L1139 -215L1140 -216L1137 -218L1137 -221L1139 -223L1138 -224L1141 -226L1146 -226L1150 -218L1155 -214L1161 -215L1163 -212L1165 -213L1167 -216L1164 -222L1166 -224L1163 -227L1162 -231L1168 -228L1170 -230L1172 -229L1173 -233L1182 -231L1183 -233L1185 -233L1184 -235L1186 -233L1189 -234L1189 -236L1187 -237L1187 -243L1189 -246L1191 -244L1194 -246L1192 -253L1190 -253L1192 -256L1190 -260L1192 -259L1195 -261L1197 -258L1208 -258L1197 -264L1192 -272L1191 -280L1198 -283L1197 -284L1199 -286L1197 -293L1201 -296L1203 -302L1209 -305L1199 -310L1198 -315L1194 -316L1194 -325L1191 -328L1193 -330L1192 -332L1204 -335L1204 -338L1207 -340L1205 -345L1213 -350L1218 -349L1222 -344L1225 -345L1230 -342L1238 -343L1238 -341L1240 -340L1239 -331L1240 -329L1241 -330L1243 -325L1244 -326L1250 -319L1248 -318L1250 -316L1250 -313L1254 -310L1253 -306L1256 -304L1255 -299L1257 -298L1257 -295L1264 -289L1274 -286L1278 -277L1283 -278L1290 -275L1293 -272L1298 -271L1298 -269L1301 -273L1301 -281L1302 -280L1305 -282L1307 -286L1309 -281L1313 -280L1312 -278L1314 -278L1317 -275L1317 -269L1315 -266L1317 -264L1320 -264L1321 -262L1323 -269L1326 -268L1329 -270L1328 -267L1330 -269L1337 -259L1342 -258L1341 -262L1344 -263L1342 -266L1346 -264L1352 -264L1354 -262L1360 -266L1362 -266L1362 -264L1367 -269L1367 -276L1362 -279L1362 -283L1365 -283L1362 -296L1364 -296L1365 -298L1369 -298L1375 -292L1374 -295L1378 -296L1385 -289L1390 -298L1386 -301L1388 -307L1392 -308L1392 -313L1391 -311L1385 -310L1384 -318L1379 -322L1376 -321L1376 -319L1370 -319L1367 -321L1364 -319L1364 -330L1359 -331L1353 -337L1354 -338L1351 -340L1351 -343L1346 -348L1348 -352L1347 -353L1349 -356L1351 -356L1352 -359L1354 -359L1359 -356L1365 -357L1380 -349L1381 -350L1387 -344L1388 -345L1390 -343L1396 -346L1400 -344L1405 -353L1408 -353L1411 -358L1414 -358L1408 -367L1402 -368L1398 -373L1398 -386L1401 -388L1405 -387L1404 -388L1406 -393L1412 -395L1412 -397L1416 -397L1416 -400L1418 -401L1418 -403L1420 -403L1419 -407L1415 -410L1417 -412L1415 -414L1415 -417L1416 -418L1421 -416L1423 -418L1422 -419L1425 -426L1436 -421L1438 -423L1435 -423L1439 -425L1433 -436L1438 -442L1445 -440L1446 -442L1446 -452L1442 -454L1445 -455L1445 -458L1447 -460L1451 -461L1449 -462L1449 -464L1440 -469L1440 -472L1437 -476L1437 -482L1430 -488L1430 -491L1434 -493L1431 -498L1429 -498L1425 -503L1423 -503L1425 -509zM1440 -469L1440 -470z"/></g></svg>