<svg xmlns="http://www.w3.org/2000/svg" pointer-events="none" class="leaflet-zoom-animated" width="1466" height="842" viewBox="-122 -70 1466 842" style="transform: translate3d(-122px, -70px, 0px) scale(1);"><g><path class="leaflet-interactive" stroke="black" stroke-opacity="1" stroke-width="1" stroke-linecap="round" stroke-linejoin="round" fill="#fff" fill-opacity="0.2" fill-rule="evenodd" d="M532 94L522 103L518 102L514 98L502 101L493 110L491 120L483 124L477 121L463 118L448 116L444 118L444 124L450 133L444 140L440 142L441 148L440 152L438 153L432 153L425 143L422 141L408 137L401 138L400 151L381 168L369 191L345 201L334 212L321 235L317 239L313 242L287 249L265 273L264 276L274 280L279 284L285 302L286 315L282 322L285 331L316 351L331 351L339 355L342 354L338 344L344 339L358 334L372 334L380 336L401 346L425 350L432 353L438 359L440 367L435 378L424 387L336 440L332 440L328 434L329 431L332 429L348 429L356 421L358 409L357 404L351 402L328 404L316 408L312 403L253 424L251 428L255 433L255 436L249 447L250 453L253 458L252 466L242 477L240 483L236 484L233 487L219 490L210 506L208 503L203 503L192 509L191 511L193 518L204 516L203 524L200 527L190 529L187 532L187 541L180 542L176 545L174 549L174 564L179 576L177 586L178 589L184 595L181 606L182 609L194 607L199 600L204 597L216 598L222 595L236 586L240 580L242 573L245 570L254 570L256 577L269 590L285 591L291 589L304 589L308 587L311 583L311 571L322 568L328 564L337 554L352 553L366 547L374 548L371 556L371 562L381 578L389 585L395 586L406 578L415 576L418 572L426 567L428 562L433 563L437 558L437 555L440 552L440 550L439 548L428 545L426 540L418 541L408 533L412 525L420 522L428 516L426 511L414 500L411 495L408 494L408 491L411 487L413 487L425 496L431 498L443 497L445 495L442 481L442 478L444 477L444 463L441 462L441 459L447 457L450 454L451 438L456 434L471 434L484 430L490 425L490 415L504 395L516 391L525 392L541 405L578 405L590 421L611 433L614 437L614 445L611 449L600 455L592 462L582 467L579 470L577 482L580 488L588 497L603 522L615 529L622 538L631 544L637 546L643 554L650 551L659 555L663 555L671 533L675 533L685 543L692 544L695 548L693 553L694 558L693 560L690 559L686 561L688 564L698 571L694 581L696 584L703 584L711 580L715 606L716 608L721 610L736 605L736 601L730 589L730 584L736 579L749 573L761 589L780 592L784 590L784 592L787 594L789 593L788 590L790 586L787 581L784 581L783 579L781 566L777 558L778 556L786 554L788 550L782 551L780 549L781 543L774 531L776 526L780 524L783 519L782 506L785 503L765 481L763 476L766 465L782 447L786 446L790 448L796 459L790 472L790 479L792 484L797 487L804 501L807 503L813 502L817 494L820 493L820 489L827 489L832 496L844 506L848 503L849 499L853 499L856 497L857 491L852 484L851 473L849 471L845 471L843 468L852 462L854 458L860 456L864 451L864 444L861 438L855 432L851 424L838 424L834 418L832 409L825 404L812 400L807 393L801 366L802 364L810 365L816 355L816 349L809 337L811 318L815 311L815 299L824 296L833 305L841 306L842 310L859 310L861 309L861 306L859 305L861 300L860 299L866 297L870 298L871 303L873 304L871 313L876 313L894 324L894 329L889 340L889 344L899 353L897 358L906 370L910 370L918 362L920 363L919 367L925 385L928 387L931 386L933 380L936 378L934 372L934 362L941 365L944 363L944 359L949 361L955 358L956 353L962 351L957 348L958 344L964 343L965 336L967 334L973 340L977 340L979 337L979 331L976 326L980 319L979 304L973 297L970 297L964 290L957 286L955 283L958 273L962 270L963 262L972 255L980 257L986 267L988 268L998 268L1001 266L1001 261L992 248L990 234L993 228L991 226L988 227L984 223L981 223L980 219L965 225L949 222L945 213L949 207L950 202L947 193L934 186L932 187L931 193L932 200L926 203L924 202L920 205L921 214L924 216L922 223L918 225L914 220L907 221L908 211L904 202L905 195L907 192L915 190L917 186L912 167L907 158L903 159L901 164L899 165L900 176L897 178L895 182L892 181L893 172L890 167L884 170L881 166L882 162L879 157L876 156L870 158L864 162L860 168L853 172L846 184L844 191L833 191L831 198L826 198L815 207L810 214L810 221L806 225L795 222L774 226L759 224L752 227L751 235L745 237L725 238L699 220L697 214L699 206L703 200L708 199L712 201L710 208L711 209L724 211L737 209L743 206L748 201L751 195L747 191L742 193L734 204L728 203L725 201L725 197L729 197L728 195L723 195L722 193L715 191L714 189L716 181L720 177L724 179L730 179L737 178L738 176L742 175L743 178L747 180L760 195L762 207L764 209L770 209L784 202L795 188L805 183L812 176L816 176L831 169L859 154L861 149L874 141L883 129L898 118L900 115L900 110L897 108L890 108L878 116L871 119L867 119L852 127L843 122L834 113L829 114L828 112L824 112L825 111L823 109L814 109L817 99L819 99L819 96L826 88L820 87L816 91L815 88L819 82L818 80L810 81L809 79L806 80L808 83L806 86L799 84L793 85L793 78L798 75L800 71L798 68L794 68L791 62L788 62L786 60L786 57L784 57L784 55L788 52L788 50L785 50L783 48L779 48L779 51L773 50L771 52L768 48L762 48L759 50L747 72L742 72L740 79L735 81L732 77L729 79L729 81L722 83L720 85L715 85L714 81L716 76L720 73L723 67L730 61L739 60L737 55L738 50L735 47L731 46L726 39L723 41L718 41L716 38L695 37L692 40L674 40L672 42L668 40L667 33L657 33L655 31L652 31L646 34L644 30L641 32L638 38L634 41L631 41L630 46L627 47L627 53L629 51L630 52L625 58L625 60L621 62L613 59L608 59L605 62L599 61L595 65L592 64L587 67L584 72L579 73L577 78L572 80L568 78L569 71L567 69L565 73L559 72L550 74L545 69L541 69L537 71L533 77L526 78L523 80L524 83L532 88L533 92zM454 584L452 581L452 577L462 572L456 570L460 568L460 562L455 565L447 565L447 573L445 574L444 577L441 578L443 582L447 581L450 583L450 587L449 590L441 592L439 597L434 598L437 604L440 603L441 606L446 603L447 600L450 600L450 598L454 595L458 595L461 599L463 596L466 595L466 592L469 591L466 586L462 586L459 588zM844 121L852 116L852 113L854 112L861 115L863 111L869 109L874 103L877 102L877 100L873 97L870 97L871 94L868 90L858 86L857 88L859 90L859 97L856 104L854 104L854 107L851 108L852 109L850 110L848 106L845 106L844 108L842 106L841 108L839 108L838 106L838 110L842 112L840 116L842 120zM609 574L609 570L606 565L602 565L599 570L594 567L592 557L585 552L585 547L588 545L589 542L588 539L583 537L582 534L579 535L577 539L565 543L562 546L562 548L569 551L566 555L570 558L555 569L557 581L566 582L572 579L575 577L576 570L581 572L583 577L583 611L576 617L574 621L574 626L577 630L588 632L593 635L600 628L606 634L610 635L611 629L606 617L618 627L623 630L627 630L628 625L621 613L618 604L629 594L639 595L644 587L641 582L633 583L631 580L627 580L619 585L612 584L602 587L598 592L595 587L608 576zM852 77L854 71L853 69L850 70L842 63L842 59L837 57L838 53L844 52L850 58L858 53L858 51L863 53L871 49L870 47L857 47L852 45L851 47L836 45L835 40L830 41L828 43L832 51L827 51L825 54L837 65L836 66L834 64L828 66L824 73L825 76L828 74L837 75L846 70L844 75L851 77zM394 618L400 614L401 610L400 607L396 607L396 605L398 604L395 598L393 596L390 596L384 603L383 609L387 613L390 613L393 617zM287 635L288 631L293 632L292 629L288 628L286 625L280 626L278 622L273 619L271 624L271 632L274 633L280 628L282 629L282 633L285 632L286 635zM832 509L829 513L823 513L820 515L816 522L816 530L823 534L827 534L827 541L831 539L832 535L839 535L841 530L840 526L843 525L843 520L841 520L841 518L839 517L840 514L842 514L840 507L834 508zM879 376L882 374L881 368L884 367L884 364L886 363L885 358L887 354L881 348L874 345L876 336L871 329L871 318L856 314L846 315L846 322L852 327L851 331L848 332L848 335L849 337L852 337L852 335L853 337L851 339L853 341L854 352L849 357L849 360L855 370L862 375L866 372L875 375zM777 643L774 648L773 655L774 657L778 655L775 659L777 661L783 662L780 669L783 670L788 668L791 664L790 661L793 659L794 656L796 657L796 660L809 658L807 650L805 648L805 646L808 643L805 637L797 630L795 629L791 634L784 636L779 641zM267 668L270 668L272 664L279 665L282 662L285 663L285 658L283 658L282 653L288 651L284 648L278 647L276 650L278 653L276 656L271 659L269 657L266 657L262 660L262 664L266 667zM463 507L451 506L447 511L449 514L457 516L460 522L464 521L467 531L472 535L475 535L477 531L476 529L478 528L473 520L475 511L471 507L466 508zM934 415L936 422L940 425L940 429L943 432L945 426L949 426L949 424L945 421L947 417L942 410L943 409L935 409L933 413zM835 396L834 398L839 406L849 408L849 403L844 395L841 395L837 390L836 395zM470 474L474 474L481 469L481 467L478 466L476 462L470 463L470 465L468 463L476 457L474 453L455 458L455 460L460 461L462 466L464 467L463 472L468 474zM840 359L843 357L840 344L843 341L843 338L837 333L836 327L840 328L841 326L838 323L836 323L832 325L831 331L829 334L826 335L833 344L834 352L838 353L838 358zM885 402L891 397L892 390L887 386L883 377L878 376L871 378L868 381L868 384L871 388L870 390L873 392L872 397L877 401L882 400L884 402zM935 182L938 181L939 174L943 170L944 164L939 160L939 150L934 148L929 150L923 157L927 161L927 165L930 172L929 180L932 182zM262 645L265 645L266 643L265 642L260 645zM873 92L875 91L877 86L875 79L878 74L875 67L873 67L871 70L871 79L867 79L861 71L859 71L856 74L857 82L868 89L871 89L872 91zM765 634L767 632L767 629L774 632L781 629L783 625L783 618L781 615L763 618L764 633zM677 549L679 549L680 547L682 548L685 545L685 543L675 542L673 546L676 549zM917 516L921 515L923 511L921 503L919 508L915 508L916 515zM942 398L946 394L943 391L945 387L944 379L934 381L933 387L933 395L936 395L941 398zM236 333L239 331L241 327L239 326L239 324L241 322L240 321L242 317L239 315L235 315L234 313L230 313L230 317L236 322L234 331L235 332zM731 222L732 225L733 223L731 220zM917 423L918 418L925 414L925 408L926 406L928 406L930 401L927 399L925 399L923 403L918 402L916 405L912 414L913 421L915 423zM886 339L888 339L889 326L884 322L876 320L875 327L878 331L880 331L881 326L883 327L882 332L885 339zM930 134L934 133L936 126L941 120L940 119L932 119L928 121L927 125L925 126L929 134zM914 501L917 499L920 490L920 488L918 487L912 493L913 500zM959 399L960 398L953 394L951 391L949 393L950 397L956 398zM482 510L489 506L491 501L490 498L485 497L478 501L477 508L479 509zM827 630L830 629L831 620L828 615L825 616L824 620L822 619L820 621L821 627L824 630zM296 672L298 670L297 669L295 672zM728 189L730 191L732 190L733 186L728 187zM868 310L872 307L872 304L869 303L867 306L868 310zM300 635L301 633L298 631L297 632L299 635zM1046 69L1050 68L1053 62L1049 59L1043 59L1040 56L1037 52L1037 42L1034 41L1028 44L1026 47L1025 51L1027 60L1029 63L1041 69zM819 319L821 318L821 316L818 313L816 313L815 314L818 319zM249 376L251 370L250 369L246 369L248 375zM875 401L875 402zM825 327L826 324L829 322L828 321L823 326zM612 532L615 530L609 531zM816 496L816 495zM802 49L804 47L799 42L798 43L802 47L802 49zM810 77L813 75L809 72L809 77zM920 488L921 487L919 487zM786 57L789 57L791 55L790 53L785 57zM826 98L829 97L830 95L826 95L825 93L823 95L825 98zM227 356L227 353L225 352L226 355zM872 443L873 442L871 443zM891 164L891 157L889 163zM984 210L986 209L984 207L983 209zM360 397L364 394L359 390L360 389L358 390L357 395L359 397zM494 462L498 460L496 458L492 458L493 461zM271 642L270 639L269 641zM942 407L941 406L942 408zM788 47L791 46L788 46zM784 212L784 211zM847 328L849 327L846 323L846 328zM948 393L950 391L948 387L946 388L947 392zM571 469L577 467L577 465L573 463L570 466L570 469zM678 578L683 576L683 573L677 571L675 572L677 578zM852 625L855 620L855 617L853 618L853 622L851 625zM828 76L828 75zM739 78L740 76L739 78zM520 471L526 469L524 467L526 463L525 462L516 467L518 470zM734 590L735 589L732 587L731 588L733 590zM299 637L298 636zM716 85L717 84L715 84zM895 388L897 388L896 383L894 384L894 388zM946 401L947 400L944 400zM863 440L862 439zM875 442L877 442L876 440L874 439L873 441zM171 577L174 574L174 572L169 572L170 576zM774 660L771 661L771 663L775 662L774 660zM854 69L860 65L859 61L857 60L853 62L853 68zM851 126L853 125L852 124L851 126zM866 302L865 300L864 302zM867 311L867 309L866 310zM839 332L841 330L838 329L838 332zM942 367L941 366zM785 561L787 559L781 557L780 558L783 560zM604 563L607 562L607 558L605 558L602 561L603 563zM287 660L287 659zM832 185L832 185zM830 319L831 318L828 316L827 317L829 319zM980 344L979 339L977 341L979 343zM826 344L826 341L825 344zM945 402L946 401L944 402zM885 407L886 406L884 406zM329 577L331 576L329 577zM850 629L852 626L851 625L848 627L848 629zM781 48L781 46zM891 65L892 62L891 60L889 60L888 61L890 65zM796 62L796 60L794 61zM817 77L818 76L816 76zM951 155L952 154L948 152L948 154zM892 167L893 166L891 165L891 167zM882 338L882 336L880 337zM955 382L956 381L954 381zM867 483L869 482L868 477L863 479L865 483zM914 515L915 514L913 512L911 513L912 515zM831 619L832 616L831 615L830 617zM885 342L885 343zM794 45L794 44zM805 71L805 71zM806 76L805 76zM828 86L827 85zM832 112L832 111zM895 160L896 159L894 159zM1033 183L1032 179L1031 182zM994 229L994 227L993 229zM971 283L972 281L970 282zM823 302L823 300L822 301zM947 373L948 370L946 370L946 372zM381 389L386 381L384 378L381 382L380 389zM378 401L379 400L377 400zM943 402L944 401L942 401zM873 425L874 424L872 422L872 424zM862 437L862 435L861 437zM579 466L579 463L578 465zM943 495L943 493L942 495zM948 498L948 495L946 496L947 498zM798 67L797 67zM994 232L993 231zM971 281L971 278L969 281zM820 307L819 307zM845 317L844 316zM832 324L831 322L830 324zM848 331L848 329L847 330zM244 363L247 360L246 358L244 358L242 362zM912 501L911 501zM754 639L753 639zM274 642L273 642zM921 376L922 375L920 376zM823 87L822 86z"/></g></svg>