<svg xmlns="http://www.w3.org/2000/svg" pointer-events="none" class="leaflet-zoom-animated" width="1466" height="842" viewBox="-1533 -371 1466 842" style="transform: translate3d(-1533px, -371px, 0px);"><g><path class="leaflet-interactive" stroke="black" stroke-opacity="1" stroke-width="1" stroke-linecap="round" stroke-linejoin="round" fill="#fff" fill-opacity="0.2" fill-rule="evenodd" d="M-912 267L-910 278L-911 279L-906 284L-892 291L-887 290L-884 287L-881 288L-880 286L-872 283L-866 288L-862 289L-862 291L-854 291L-848 303L-853 311L-850 318L-850 328L-848 324L-846 325L-843 322L-840 325L-840 323L-834 323L-827 327L-826 329L-831 331L-829 336L-830 338L-824 345L-824 352L-823 351L-821 353L-819 351L-819 357L-816 359L-815 358L-813 360L-806 358L-802 355L-804 353L-802 350L-804 347L-802 345L-804 341L-799 342L-797 336L-790 331L-787 333L-785 340L-786 351L-777 368L-778 370L-773 370L-773 380L-769 386L-769 390L-767 393L-763 392L-760 394L-759 392L-751 389L-751 377L-749 375L-745 376L-740 371L-727 371L-723 364L-721 364L-720 362L-715 364L-715 371L-713 374L-703 366L-701 361L-699 360L-700 367L-698 370L-699 372L-696 380L-698 382L-697 384L-695 386L-694 385L-689 388L-688 387L-680 394L-679 393L-676 399L-674 399L-669 394L-666 398L-661 399L-656 396L-661 393L-661 390L-659 390L-659 364L-658 361L-656 361L-665 318L-667 313L-668 314L-671 309L-667 308L-664 303L-659 305L-654 300L-648 302L-648 300L-638 291L-640 289L-639 286L-635 286L-630 278L-628 278L-628 281L-623 284L-590 294L-583 298L-580 298L-573 292L-573 285L-574 283L-575 284L-575 281L-573 278L-574 277L-572 276L-571 268L-564 263L-560 263L-558 259L-559 258L-557 256L-559 254L-557 251L-558 249L-556 250L-558 248L-558 245L-556 242L-553 243L-551 241L-552 239L-548 239L-545 231L-548 226L-543 222L-543 220L-540 221L-540 218L-538 218L-537 216L-537 213L-539 213L-539 211L-536 209L-538 205L-540 205L-537 195L-533 193L-531 183L-533 180L-530 173L-531 170L-527 163L-524 162L-523 160L-523 157L-526 152L-525 147L-518 139L-511 139L-510 137L-508 137L-498 121L-498 117L-503 114L-503 109L-506 107L-508 103L-508 99L-502 88L-503 84L-484 74L-484 71L-491 70L-494 72L-496 76L-499 76L-504 73L-511 73L-522 76L-524 75L-527 78L-530 78L-534 81L-542 82L-543 84L-546 85L-547 88L-553 89L-554 92L-558 94L-574 92L-577 94L-579 99L-584 101L-587 106L-592 104L-594 105L-593 109L-597 115L-597 119L-601 121L-608 117L-610 117L-613 121L-625 121L-626 124L-636 121L-643 124L-645 120L-649 118L-654 120L-658 119L-665 122L-671 121L-672 113L-675 106L-684 98L-685 95L-680 84L-677 81L-682 74L-680 68L-682 66L-685 68L-687 67L-688 62L-691 59L-684 43L-685 41L-692 42L-694 39L-703 42L-705 41L-715 31L-719 29L-720 25L-722 25L-722 21L-727 18L-726 15L-729 12L-735 12L-737 3L-743 2L-745 8L-749 5L-757 8L-759 6L-760 1L-767 -2L-771 0L-772 -1L-770 -6L-771 -9L-773 -9L-773 -7L-781 -10L-788 -9L-791 -5L-793 -7L-796 -7L-797 -5L-803 -6L-807 -9L-815 -9L-820 -14L-821 -21L-826 -22L-828 -25L-827 -34L-830 -37L-825 -47L-824 -54L-834 -58L-837 -62L-835 -69L-839 -71L-835 -79L-839 -85L-838 -91L-841 -93L-847 -105L-850 -106L-854 -113L-856 -113L-857 -124L-853 -132L-854 -133L-858 -131L-856 -130L-857 -127L-860 -129L-861 -132L-855 -135L-856 -139L-862 -140L-861 -145L-859 -147L-865 -150L-867 -153L-864 -155L-864 -161L-867 -162L-873 -174L-877 -178L-877 -185L-875 -185L-872 -191L-875 -194L-884 -197L-883 -200L-878 -204L-882 -205L-883 -214L-886 -217L-888 -217L-888 -221L-891 -225L-893 -227L-897 -225L-899 -229L-898 -232L-895 -232L-894 -234L-896 -237L-893 -239L-895 -242L-899 -239L-904 -249L-908 -249L-912 -246L-913 -247L-913 -251L-910 -252L-909 -256L-912 -257L-915 -263L-919 -261L-921 -265L-929 -268L-934 -272L-944 -272L-948 -269L-947 -266L-949 -264L-950 -268L-955 -268L-957 -273L-963 -272L-969 -274L-978 -286L-982 -283L-986 -288L-987 -287L-993 -293L-1000 -295L-1001 -294L-1006 -299L-1008 -295L-1010 -295L-1009 -299L-1011 -299L-1011 -296L-1013 -296L-1013 -298L-1020 -300L-1028 -295L-1030 -296L-1037 -294L-1039 -292L-1059 -291L-1064 -295L-1069 -292L-1071 -293L-1075 -289L-1084 -289L-1091 -286L-1093 -287L-1102 -282L-1094 -275L-1095 -270L-1090 -267L-1090 -264L-1088 -262L-1089 -258L-1093 -257L-1095 -250L-1098 -247L-1097 -246L-1104 -237L-1117 -227L-1115 -225L-1112 -226L-1102 -216L-1096 -215L-1094 -213L-1095 -211L-1093 -206L-1087 -203L-1082 -204L-1081 -208L-1077 -211L-1078 -213L-1075 -214L-1076 -215L-1072 -220L-1070 -217L-1065 -216L-1065 -214L-1061 -210L-1059 -211L-1058 -204L-1044 -201L-1045 -195L-1051 -192L-1051 -187L-1049 -180L-1047 -181L-1046 -176L-1048 -174L-1046 -171L-1046 -164L-1041 -154L-1042 -152L-1039 -149L-1041 -147L-1041 -144L-1033 -131L-1027 -131L-1021 -127L-1019 -129L-1017 -128L-1005 -132L-1002 -138L-998 -135L-996 -136L-992 -131L-985 -132L-985 -134L-979 -134L-973 -129L-970 -129L-966 -137L-960 -133L-957 -133L-954 -135L-954 -137L-949 -137L-946 -141L-946 -145L-940 -149L-939 -157L-937 -157L-937 -155L-935 -156L-929 -153L-926 -154L-926 -152L-919 -145L-913 -134L-911 -134L-908 -127L-909 -126L-904 -124L-904 -119L-900 -117L-899 -118L-899 -115L-895 -112L-896 -108L-894 -108L-894 -106L-897 -103L-896 -102L-898 -102L-900 -98L-902 -99L-901 -98L-905 -92L-907 -93L-909 -91L-906 -88L-907 -83L-905 -77L-914 -70L-918 -69L-917 -66L-919 -67L-919 -60L-922 -58L-923 -52L-928 -49L-926 -47L-931 -45L-931 -43L-928 -42L-931 -41L-930 -38L-933 -34L-935 -34L-932 -29L-932 -26L-935 -25L-933 -23L-933 -14L-935 -12L-934 -13L-936 -14L-937 -11L-932 -9L-932 15L-938 24L-941 22L-941 20L-947 20L-952 25L-951 28L-955 36L-954 38L-956 38L-956 42L-961 50L-960 53L-962 61L-965 63L-964 69L-966 71L-962 84L-966 93L-970 95L-967 92L-967 90L-969 89L-969 86L-974 78L-974 67L-977 65L-990 76L-1008 99L-1021 105L-1024 113L-1027 116L-1041 123L-1045 128L-1053 132L-1057 142L-1061 145L-1061 147L-1051 161L-1045 164L-1041 164L-1041 166L-1044 168L-1044 173L-1041 173L-1039 171L-1039 180L-1034 185L-1034 187L-1027 186L-1024 178L-1017 179L-1016 173L-1020 171L-1020 169L-1015 173L-1010 171L-1012 179L-1009 180L-1008 176L-1006 179L-1008 180L-1005 184L-1005 187L-1007 189L-1022 191L-1021 194L-1024 196L-1026 194L-1030 195L-1029 196L-1031 194L-1032 197L-1034 197L-1034 206L-1026 219L-1024 217L-1017 220L-1011 218L-1008 220L-995 215L-993 215L-992 218L-992 216L-990 217L-991 218L-989 220L-991 221L-988 225L-989 228L-987 232L-987 234L-988 233L-988 235L-990 236L-990 239L-985 243L-985 245L-987 246L-986 248L-989 250L-982 255L-982 259L-978 259L-978 261L-976 261L-977 263L-975 265L-972 265L-972 270L-968 270L-964 273L-962 272L-962 270L-955 271L-954 269L-953 271L-949 271L-946 265L-946 267L-942 268L-941 272L-939 272L-939 275L-937 273L-929 274L-929 272L-927 274L-923 270L-924 268L-920 269L-916 268L-915 266L-913 267zM-982 -78L-985 -78L-985 -76L-987 -76L-989 -73L-988 -68L-992 -64L-998 -70L-999 -69L-999 -62L-995 -57L-994 -52L-992 -51L-982 -54L-976 -54L-976 -51L-974 -50L-972 -52L-973 -61L-969 -65L-969 -76L-974 -75L-976 -77L-980 -77z"/></g></svg>